<svg width="51" height="52" fill="none" xmlns="http://www.w3.org/2000/svg"><path d="M32.37 22.508h0a1.619 1.619 0 01-2.158-1.525V15.67H26.26a.317.317 0 00-.236.527c.425.474.658 1.086.658 1.722a2.587 2.587 0 01-2.584 2.584 2.587 2.587 0 01-1.926-4.306l.484.434m9.715 5.878l1.709 1.21c-.001.836-.932 1.486-1.71 1.21h0l-.004-.002c-1.002-.347-2.153.395-2.153 1.527v5.314h-2.899v.65a3.22 3.22 0 01-3.216 3.216 3.22 3.22 0 01-3.216-3.216v-.65h-2.648a2.252 2.252 0 01-2.25-2.25v-11.6c0-1.24 1.01-2.249 2.25-2.249h3.702c.271 0 .417.324.235.527l.485.434m9.715 5.878c.779-.277 1.708.373 1.709 1.21l-1.709-1.21zm-9.715-5.878c.556-.622.114-1.611-.72-1.611h-3.702c-1.6 0-2.9 1.3-2.9 2.9v11.598c0 1.6 1.3 2.9 2.9 2.9h1.347m3.075-15.787a1.936 1.936 0 001.441 3.222 1.936 1.936 0 001.442-3.222c-.556-.622-.114-1.611.72-1.611h3.954L19.58 32.417m0 0h.65-.65z" stroke="#000" stroke-width="1.302"/><rect x="1.502" y="1.502" width="47.058" height="48.298" rx="23.529" stroke="#F5D061" stroke-width="3.004"/></svg>