<svg width="51" height="51" fill="none" xmlns="http://www.w3.org/2000/svg"><path d="M24.864 24.883c-1.893-.492-2.503-1.001-2.503-1.794 0-.91.843-1.543 2.253-1.543 1.185 0 1.777.45 1.994 1.168.1.333.376.584.726.584h.25a.791.791 0 00.751-1.06c-.35-.985-1.168-1.802-2.47-2.12v-.575a1.25 1.25 0 00-1.25-1.252 1.25 1.25 0 00-1.252 1.252v.55c-1.619.351-2.92 1.402-2.92 3.013 0 1.927 1.593 2.887 3.92 3.446 2.087.5 2.504 1.235 2.504 2.01 0 .576-.409 1.494-2.253 1.494-1.377 0-2.086-.492-2.361-1.193-.125-.326-.409-.56-.751-.56h-.234a.796.796 0 00-.742 1.085c.475 1.16 1.585 1.844 2.837 2.111v.56a1.25 1.25 0 001.251 1.251 1.25 1.25 0 001.252-1.252v-.542c1.627-.309 2.92-1.251 2.92-2.962 0-2.37-2.027-3.179-3.922-3.671z" fill="#333"/><rect x="1.502" y="2.272" width="47.058" height="47.058" rx="23.529" stroke="#F5D061" stroke-width="3.004"/></svg>