<svg width="51" height="51" fill="none" xmlns="http://www.w3.org/2000/svg"><g clip-path="url(#clip0)" fill-rule="evenodd" clip-rule="evenodd" fill="#333"><path d="M29.41 17.96c0-1.4-1.082-2.536-2.421-2.536h-3.905c-1.337 0-2.422 1.136-2.422 2.535v4.426l2.53 3.037-2.53 3.064v4.4c0 1.4 1.084 2.535 2.422 2.535h3.905c1.337 0 2.421-1.135 2.421-2.534v-4.479l-2.62-2.97 2.62-2.974v-4.505zm-1.25 3.72l-2.503 3.741 2.503 3.769v3.754a1.251 1.251 0 01-1.252 1.252h-3.754a1.251 1.251 0 01-1.252-1.252V29.19l2.503-3.769-2.503-3.715v-3.78a1.252 1.252 0 011.252-1.252h3.754a1.252 1.252 0 011.252 1.252v3.755z"/><path d="M26.908 32.945h-3.755v-2.503l1.878-2.477 1.877 2.477v2.503zm0-12.515l-1.851 2.476-1.904-2.477h3.755z"/></g><rect x="1.502" y="1.907" width="47.058" height="47.058" rx="23.529" stroke="#F5D061" stroke-width="3.004"/><defs><clipPath id="clip0"><path fill="#fff" transform="translate(14.393 15.424)" d="M0 0h21.276v20.025H0z"/></clipPath></defs></svg>