<svg width="147" height="58" fill="none" xmlns="http://www.w3.org/2000/svg"><g clip-path="url(#clip0)" fill="#3E84D7"><path d="M139.411.445c-6.77 0-13.541 2.392-18.28 7.175-4.062 3.588-8.802 5.382-14.218 5.382S96.757 11.208 92.695 7.62C87.956 2.837 81.863.445 74.415.445c-6.77 0-13.54 2.392-18.28 7.175-1.354 1.196-.677 2.99 0 3.588 1.354 1.196 3.385.598 4.062 0C64.26 7.62 69 5.827 74.415 5.827s10.156 1.793 14.218 5.38c4.74 4.784 11.51 7.176 18.28 7.176 6.77 0 13.541-2.392 18.28-7.175 4.062-3.588 8.802-5.381 14.218-5.381s10.155 1.793 14.218 5.38c4.739 4.784 11.509 7.176 18.28 7.176 6.77 0 13.541-2.392 18.28-7.175 7.447-7.175 20.988-7.175 28.435 0 5.417 4.783 11.51 7.175 18.958 7.175 6.77 0 13.54-2.392 18.28-7.175 3.385-3.588 8.801-5.381 14.217-5.381 5.417 0 10.156 1.793 13.541 5.38a3.579 3.579 0 004.739 0c.677-.597.677-2.39 0-3.587C283.62 2.837 276.85.445 270.079.445c-6.77 0-13.54 2.392-18.28 7.175-4.062 3.588-8.801 5.382-14.217 5.382-5.417 0-10.156-1.794-14.218-5.382-9.479-9.566-27.082-9.566-36.56 0-4.063 3.588-8.802 5.382-14.218 5.382-5.417 0-10.156-1.794-14.218-5.382-5.416-4.783-11.51-7.175-18.957-7.175zM84.571 39.31c-6.77 0-13.54 2.392-18.28 7.175-4.062 3.588-8.801 5.382-14.217 5.382-5.417 0-10.156-1.794-14.218-5.382-4.74-4.783-11.51-7.175-18.28-7.175-6.77 0-13.541 2.392-18.28 7.175-1.354 1.196-.677 2.99 0 3.588 1.354 1.196 3.385.598 4.062 0 4.062-3.588 8.801-5.381 14.218-5.381 5.416 0 10.155 1.793 14.218 5.38 4.739 4.784 11.51 7.176 18.28 7.176 6.77 0 13.54-2.392 18.28-7.175 4.062-3.588 8.801-5.381 14.217-5.381 5.417 0 10.156 1.793 14.218 5.38 4.739 4.784 11.51 7.176 18.28 7.176 6.771 0 13.541-2.392 18.28-7.175 7.448-7.175 20.988-7.175 28.436 0 4.739 4.783 11.51 7.175 18.28 7.175 6.77 0 13.541-2.392 18.28-7.175 4.062-3.588 8.801-5.381 14.218-5.381 5.416 0 10.155 1.793 14.218 5.38 1.354 1.197 2.708 1.197 4.062 0 1.354-1.195 1.354-2.39 0-3.587-4.062-4.783-10.833-7.175-18.28-7.175-6.771 0-13.541 2.392-18.28 7.175-4.062 3.588-8.802 5.382-14.218 5.382s-10.156-1.794-14.218-5.382c-9.478-9.566-27.081-9.566-36.56 0-4.062 3.588-8.801 5.382-14.218 5.382-5.416 0-10.155-1.794-14.218-5.382-4.739-4.783-10.832-7.175-18.28-7.175z"/></g><defs><clipPath id="clip0"><path fill="#fff" transform="matrix(-1 0 0 1 289.036 .446)" d="M0 0h288.418v56.802H0z"/></clipPath></defs></svg>