<svg width="268" height="65" fill="none" xmlns="http://www.w3.org/2000/svg"><g clip-path="url(#clip0)" fill="#F5D061" stroke="#F5D061" stroke-width="3.566"><path d="M71.352 48.706l.027.028.026.028c5.92 6.45 16.752 6.456 22.68.015 4.588-5.227 11.116-7.817 17.604-7.817 6.475 0 12.99 2.58 17.577 7.787 3.295 3.273 7.057 4.857 11.36 4.857 4.302 0 8.064-1.584 11.359-4.857 4.587-5.207 11.102-7.787 17.577-7.787 6.476 0 12.991 2.58 17.578 7.787 3.295 3.273 7.057 4.857 11.359 4.857 4.32 0 8.095-1.597 11.4-4.898.634-.632 1.635-1.075 2.646-1.188 1.083-.12 2.42.118 3.491 1.188.634.633 1.078 1.634 1.19 2.645.119 1.068-.111 2.382-1.144 3.444-4.587 5.211-11.105 7.794-17.583 7.794-7.103 0-13.011-2.6-17.577-7.787-3.296-3.274-7.057-4.858-11.36-4.858-4.302 0-8.064 1.584-11.359 4.858-4.587 5.206-11.102 7.787-17.577 7.787-7.143 0-13.012-2.625-18.14-7.747-3.305-3.301-7.08-4.898-11.4-4.898-4.302 0-8.064 1.584-11.36 4.858-9.146 10.382-26.008 10.382-35.154 0-3.296-3.274-7.058-4.858-11.36-4.858s-8.064 1.584-11.36 4.858c-4.586 5.206-11.102 7.787-17.577 7.787-6.494 0-13.03-2.596-17.618-7.834l-.15-.172-.103-.204c-.446-.89-.641-1.924-.641-2.83 0-.462.05-.947.177-1.407.121-.438.35-.987.798-1.436 1.902-1.9 4.838-1.9 6.74 0l.057.057.052.063c2.643 3.167 6.34 4.778 10.688 4.778 4.42 0 8.689-1.66 11.291-4.778l.014-.017.014-.016c4.589-5.238 11.123-7.833 17.618-7.833 7.142 0 13.011 2.624 18.14 7.746zm135.516-33.041c-4.586 5.207-11.102 7.787-17.577 7.787-7.103 0-13.011-2.6-17.577-7.787-3.296-3.274-7.058-4.857-11.36-4.857s-8.064 1.583-11.359 4.857c-9.146 10.382-26.009 10.382-35.155 0-3.295-3.274-7.057-4.857-11.36-4.857-4.302 0-8.064 1.583-11.36 4.857-4.586 5.207-11.101 7.787-17.576 7.787-6.995 0-13.586-2.53-17.63-7.842-.753-.782-1.335-1.78-1.335-2.973 0-1.242.63-2.271 1.428-3.068.797-.796 1.827-1.424 3.068-1.424 1.242 0 2.271.628 3.069 1.425 3.305 3.3 7.08 4.897 11.4 4.897 4.302 0 8.064-1.584 11.36-4.857 4.586-5.207 11.101-7.787 17.576-7.787 6.488 0 13.016 2.59 17.604 7.817 5.924 6.436 16.743 6.436 22.667 0 4.588-5.227 11.116-7.817 17.603-7.817 6.475 0 12.991 2.58 17.578 7.787 3.295 3.273 7.057 4.857 11.359 4.857s8.064-1.584 11.36-4.857c4.586-5.207 11.102-7.787 17.577-7.787 6.475 0 12.991 2.58 17.577 7.787 3.296 3.273 7.058 4.857 11.36 4.857 4.32 0 8.095-1.597 11.4-4.898.633-.632 1.635-1.075 2.646-1.187 1.082-.12 2.419.117 3.491 1.187.633.633 1.078 1.634 1.19 2.645.119 1.068-.111 2.382-1.144 3.444-4.587 5.211-11.105 7.794-17.583 7.794-6.475 0-12.991-2.58-17.577-7.787-3.296-3.274-7.058-4.857-11.36-4.857s-8.064 1.583-11.36 4.857z"/></g><defs><clipPath id="clip0"><path fill="#fff" transform="matrix(1 0 0 -1 0 64.405)" d="M0 0h268v64.406H0z"/></clipPath></defs></svg>