<svg width="340" height="393" fill="none" xmlns="http://www.w3.org/2000/svg"><g clip-path="url(#clip0)" fill="#E8E9ED"><path d="M194.902 302.412c1.706 0 2.986 1.511 2.986 3.525 0 2.014-1.28 3.524-2.986 3.524-1.706 0-2.985-1.51-2.985-3.524 0-2.014 1.279-3.525 2.985-3.525zm-21.751-192.839c1.706 0 2.986 1.511 2.986 3.525 0 2.014-1.28 3.524-2.986 3.524-1.706 0-2.985-1.51-2.985-3.524 0-2.014 1.279-3.525 2.985-3.525zm147.991 58.91c1.706 0 2.985 1.51 2.985 3.524 0 2.014-1.279 3.524-2.985 3.524s-2.986-1.51-2.986-3.524c0-2.014 1.28-3.524 2.986-3.524zM130.078 370.887c1.706 0 2.985 1.511 2.985 3.525 0 2.014-1.279 3.524-2.985 3.524s-2.985-1.51-2.985-3.524c-.427-2.014 1.279-3.525 2.985-3.525zm130.076-106.741c1.706 0 2.986 1.511 2.986 3.525 0 2.014-1.28 3.524-2.986 3.524-1.706 0-2.985-1.51-2.985-3.524 0-2.014 1.279-3.525 2.985-3.525zM231.58 107.559c1.706 0 2.985 1.511 2.985 3.525 0 2.014-1.279 3.524-2.985 3.524s-2.985-1.51-2.985-3.524c-.427-2.014 1.279-3.525 2.985-3.525zM98.092 36.063c1.706 0 2.985 1.51 2.985 3.524 0 2.014-1.28 3.525-2.985 3.525-1.706 0-2.986-1.51-2.986-3.525-.426-2.014 1.28-3.524 2.986-3.524zm104.487-18.126c1.706 0 2.986 1.51 2.986 3.525 0 2.014-1.28 3.524-2.986 3.524-1.706 0-2.985-1.51-2.985-3.524 0-2.014 1.279-3.525 2.985-3.525zm-74.635 171.692c1.649 0 2.986-1.578 2.986-3.524 0-1.947-1.337-3.525-2.986-3.525-1.648 0-2.985 1.578-2.985 3.525 0 1.946 1.337 3.524 2.985 3.524zm-113.87 67.469c1.706 0 2.986 1.51 2.986 3.524 0 2.014-1.28 3.524-2.986 3.524-1.706 0-2.985-1.51-2.985-3.524 0-1.511 1.28-3.524 2.985-3.524zM324.98 128.203c1.705 0 2.985 1.51 2.985 3.524 0 2.014-1.28 3.525-2.985 3.525-1.706 0-2.986-1.511-2.986-3.525 0-2.014 1.28-3.524 2.986-3.524zM225.183 77.35c1.706 0 2.985 1.51 2.985 3.524 0 2.014-1.279 3.525-2.985 3.525s-2.986-1.51-2.986-3.525c0-2.014 1.28-3.524 2.986-3.524zM132.21 46.133c1.706 0 2.985 1.51 2.985 3.524 0 2.015-1.279 3.525-2.985 3.525s-2.986-1.51-2.986-3.525c-.426-1.51 1.28-3.524 2.986-3.524zm.426 74.517c1.706 0 2.985 1.511 2.985 3.525 0 2.014-1.279 3.524-2.985 3.524s-2.986-1.51-2.986-3.524c-.426-1.511 1.28-3.525 2.986-3.525zm43.928 193.342c1.706 0 2.986 1.511 2.986 3.525 0 2.014-1.28 3.524-2.986 3.524-1.706 0-2.985-1.51-2.985-3.524-.427-2.014 1.279-3.525 2.985-3.525zm159.504-120.838c1.706 0 2.986 1.51 2.986 3.524 0 2.014-1.28 3.524-2.986 3.524-1.706 0-2.985-1.51-2.985-3.524 0-1.51 1.279-3.524 2.985-3.524zM109.605 372.902c1.706 0 2.986 1.51 2.986 3.524 0 2.014-1.28 3.524-2.986 3.524-1.706 0-2.985-1.51-2.985-3.524-.426-2.014 1.279-3.524 2.985-3.524zm149.27-204.923c1.706 0 2.985 1.51 2.985 3.524 0 2.014-1.279 3.525-2.985 3.525s-2.985-1.511-2.985-3.525c0-2.014 1.279-3.524 2.985-3.524zm-63.973 170.685c1.706 0 2.986 1.51 2.986 3.524 0 2.014-1.28 3.525-2.986 3.525-1.706 0-2.985-1.511-2.985-3.525-.427-2.014 1.279-3.524 2.985-3.524zm52.032-35.748c1.706 0 2.985 1.51 2.985 3.524 0 2.014-1.279 3.524-2.985 3.524s-2.986-1.51-2.986-3.524c0-2.014 1.28-3.524 2.986-3.524zM59.707 317.014c1.706 0 2.985 1.51 2.985 3.524 0 2.014-1.279 3.525-2.985 3.525s-2.985-1.511-2.985-3.525c0-2.014 1.28-3.524 2.985-3.524zm21.751 39.272c1.706 0 2.985 1.51 2.985 3.524 0 2.014-1.279 3.525-2.985 3.525s-2.985-1.511-2.985-3.525c0-2.014 1.28-3.524 2.985-3.524zM236.271 20.455c1.706 0 2.986 1.51 2.986 3.524 0 2.014-1.28 3.525-2.986 3.525-1.706 0-2.985-1.51-2.985-3.525-.426-2.014 1.279-3.524 2.985-3.524zM132.209 277.741c1.706 0 2.985 1.51 2.985 3.524 0 2.014-1.279 3.525-2.985 3.525s-2.985-1.511-2.985-3.525c0-2.014 1.279-3.524 2.985-3.524zm63.12-146.014c1.706 0 2.985 1.511 2.985 3.525 0 2.014-1.279 3.524-2.985 3.524s-2.985-1.51-2.985-3.524c0-2.014 1.279-3.525 2.985-3.525zm-78.473-11.077c1.649 0 2.986-1.578 2.986-3.524 0-1.947-1.337-3.525-2.986-3.525-1.648 0-2.985 1.578-2.985 3.525 0 1.946 1.337 3.524 2.985 3.524zm76.768 35.749c1.706 0 2.985 1.51 2.985 3.524 0 2.014-1.279 3.524-2.985 3.524s-2.985-1.51-2.985-3.524c0-2.014 1.279-3.524 2.985-3.524zM234.14 68.79c1.705 0 2.985 1.51 2.985 3.525 0 2.014-1.28 3.524-2.985 3.524-1.706 0-2.986-1.51-2.986-3.524-.426-2.014 1.28-3.525 2.986-3.525zM10.661 227.391c1.649 0 2.986-1.578 2.986-3.524 0-1.947-1.337-3.525-2.986-3.525-1.649 0-2.985 1.578-2.985 3.525 0 1.946 1.336 3.524 2.985 3.524zm171.874-42.797c1.706 0 2.986 1.511 2.986 3.525 0 2.014-1.28 3.524-2.986 3.524-1.706 0-2.985-1.51-2.985-3.524 0-2.014 1.279-3.525 2.985-3.525zm34.118 159.608c1.706 0 2.986 1.51 2.986 3.524 0 2.014-1.28 3.525-2.986 3.525-1.706 0-2.985-1.511-2.985-3.525 0-2.014 1.279-3.524 2.985-3.524zm-64.826-55.385c1.706 0 2.986 1.511 2.986 3.525 0 2.014-1.28 3.524-2.986 3.524-1.706 0-2.985-1.51-2.985-3.524 0-2.014 1.279-3.525 2.985-3.525zm75.915-14.6c1.706 0 2.986 1.51 2.986 3.524 0 2.014-1.28 3.525-2.986 3.525-1.706 0-2.985-1.511-2.985-3.525 0-2.014 1.279-3.524 2.985-3.524zm-79.753-65.959c1.706 0 2.986 1.511 2.986 3.525 0 2.014-1.28 3.524-2.986 3.524-1.706 0-2.985-1.51-2.985-3.524 0-2.014 1.279-3.525 2.985-3.525zM47.766 107.056c1.706 0 2.985 1.51 2.985 3.524 0 2.014-1.28 3.525-2.985 3.525-1.706 0-2.986-1.511-2.986-3.525-.426-2.014 1.28-3.524 2.986-3.524zM135.622.818c1.706 0 2.985 1.51 2.985 3.525 0 2.014-1.279 3.524-2.985 3.524s-2.985-1.51-2.985-3.524c-.427-2.014 1.279-3.525 2.985-3.525zM74.634 94.972c1.706 0 2.985 1.51 2.985 3.524 0 2.014-1.28 3.525-2.985 3.525-1.706 0-2.986-1.511-2.986-3.525 0-2.014 1.28-3.524 2.986-3.524zM62.693 244.51c1.706 0 2.986 1.511 2.986 3.525 0 2.014-1.28 3.524-2.986 3.524-1.706 0-2.985-1.51-2.985-3.524 0-2.014 1.28-3.525 2.985-3.525zm190.211-44.308c1.706 0 2.986 1.511 2.986 3.525 0 2.014-1.28 3.524-2.986 3.524-1.706 0-2.985-1.51-2.985-3.524 0-2.014 1.279-3.525 2.985-3.525zM118.562 87.923c1.706 0 2.986 1.51 2.986 3.525 0 2.014-1.28 3.524-2.986 3.524-1.706 0-2.985-1.51-2.985-3.524-.426-1.51 1.279-3.525 2.985-3.525zm102.783 96.671c1.706 0 2.985 1.511 2.985 3.525 0 2.014-1.279 3.524-2.985 3.524s-2.986-1.51-2.986-3.524c-.426-2.014 1.28-3.525 2.986-3.525zM69.943 125.685c1.706 0 2.986 1.511 2.986 3.525 0 2.014-1.28 3.524-2.986 3.524-1.706 0-2.985-1.51-2.985-3.524 0-2.014 1.28-3.525 2.985-3.525zm41.795 62.937c1.706 0 2.986 1.511 2.986 3.525 0 2.014-1.28 3.524-2.986 3.524-1.706 0-2.985-1.51-2.985-3.524 0-2.014 1.279-3.525 2.985-3.525zm67.811-103.72c1.706 0 2.985 1.51 2.985 3.524 0 2.014-1.279 3.525-2.985 3.525s-2.986-1.51-2.986-3.525c0-1.51 1.28-3.524 2.986-3.524zm123.254 43.804c1.706 0 2.985 1.511 2.985 3.525 0 2.014-1.279 3.524-2.985 3.524s-2.986-1.51-2.986-3.524c-.426-1.511 1.28-3.525 2.986-3.525zm-64.825-77.035c1.705 0 2.985 1.51 2.985 3.525 0 2.014-1.28 3.524-2.985 3.524-1.706 0-2.986-1.51-2.986-3.524 0-2.014 1.28-3.525 2.986-3.525zM21.75 157.909c1.706 0 2.985 1.51 2.985 3.524 0 2.014-1.279 3.525-2.985 3.525s-2.985-1.511-2.985-3.525c0-1.51 1.28-3.524 2.985-3.524zm248.641-40.28c1.706 0 2.985 1.511 2.985 3.525 0 2.014-1.279 3.524-2.985 3.524s-2.986-1.51-2.986-3.524c0-2.014 1.28-3.525 2.986-3.525zm33.264 77.035c1.706 0 2.986 1.51 2.986 3.524 0 2.014-1.28 3.525-2.986 3.525-1.706 0-2.985-1.511-2.985-3.525 0-2.014 1.279-3.524 2.985-3.524zm-250.77-5.035c1.706 0 2.985 1.511 2.985 3.525 0 2.014-1.28 3.524-2.985 3.524-1.706 0-2.986-1.51-2.986-3.524-.426-1.511 1.28-3.525 2.986-3.525zm155.666 175.72c1.706 0 2.985 1.51 2.985 3.524 0 2.014-1.279 3.525-2.985 3.525s-2.986-1.511-2.986-3.525c-.426-2.014 1.28-3.524 2.986-3.524zm40.515-285.985c1.706 0 2.986 1.51 2.986 3.524 0 2.014-1.28 3.524-2.986 3.524-1.705 0-2.985-1.51-2.985-3.524 0-2.014 1.28-3.525 2.985-3.525zm-87.855 293.538c1.706 0 2.985 1.51 2.985 3.524 0 2.014-1.279 3.524-2.985 3.524s-2.985-1.51-2.985-3.524c0-1.51 1.279-3.524 2.985-3.524zm78.472-114.798c1.648 0 2.985-1.577 2.985-3.524 0-1.946-1.337-3.524-2.985-3.524-1.649 0-2.986 1.578-2.986 3.524 0 1.947 1.337 3.524 2.986 3.524zm87.003-33.23c1.705 0 2.985 1.51 2.985 3.524 0 2.014-1.28 3.525-2.985 3.525-1.706 0-2.986-1.511-2.986-3.525 0-1.51 1.28-3.524 2.986-3.524zM153.96 87.42c1.706 0 2.985 1.51 2.985 3.524 0 2.014-1.279 3.524-2.985 3.524s-2.985-1.51-2.985-3.524c0-2.014 1.279-3.525 2.985-3.525zm-88.281 63.44c1.706 0 2.985 1.511 2.985 3.525 0 2.014-1.28 3.524-2.985 3.524-1.706 0-2.986-1.51-2.986-3.524 0-1.511 1.28-3.525 2.986-3.525zm81.884-14.098c1.705 0 2.985 1.511 2.985 3.525 0 2.014-1.28 3.524-2.985 3.524-1.706 0-2.986-1.51-2.986-3.524 0-1.511 1.28-3.525 2.986-3.525zm112.592 145.51c1.706 0 2.986 1.511 2.986 3.525 0 2.014-1.28 3.524-2.986 3.524-1.706 0-2.985-1.51-2.985-3.524-.427-2.014 1.279-3.525 2.985-3.525zM88.282 20.455c1.706 0 2.986 1.51 2.986 3.524 0 2.014-1.28 3.525-2.986 3.525-1.706 0-2.985-1.51-2.985-3.525-.427-1.51 1.28-3.524 2.985-3.524zM35.825 233.937c1.706 0 2.986 1.51 2.986 3.524 0 2.014-1.28 3.525-2.986 3.525-1.706 0-2.985-1.511-2.985-3.525 0-1.51 1.28-3.524 2.985-3.524zm158.651-42.294c1.706 0 2.985 1.511 2.985 3.525 0 2.014-1.279 3.524-2.985 3.524s-2.986-1.51-2.986-3.524c0-2.014 1.28-3.525 2.986-3.525zm91.693-116.811c1.706 0 2.985 1.51 2.985 3.525 0 2.014-1.279 3.524-2.985 3.524s-2.985-1.51-2.985-3.524c0-2.014 1.279-3.525 2.985-3.525zm-26.442 222.545c1.706 0 2.986 1.511 2.986 3.525 0 2.014-1.28 3.524-2.986 3.524-1.706 0-2.985-1.51-2.985-3.524-.427-2.014.853-3.525 2.985-3.525zM29.001 207.251c1.706 0 2.985 1.511 2.985 3.525 0 2.014-1.28 3.524-2.985 3.524-1.706 0-2.985-1.51-2.985-3.524 0-2.014 1.28-3.525 2.985-3.525zm99.797 101.203c1.706 0 2.985 1.51 2.985 3.524 0 2.014-1.279 3.525-2.985 3.525s-2.986-1.511-2.986-3.525c-.426-1.51 1.28-3.524 2.986-3.524zm139.033 33.735c1.706 0 2.985 1.51 2.985 3.524 0 2.014-1.279 3.524-2.985 3.524s-2.985-1.51-2.985-3.524c0-2.014 1.279-3.524 2.985-3.524zM151.827 55.7c1.706 0 2.985 1.51 2.985 3.524 0 2.014-1.279 3.525-2.985 3.525s-2.985-1.511-2.985-3.525c-.427-2.014 1.279-3.524 2.985-3.524zm37.531 302.097c1.706 0 2.986 1.51 2.986 3.524 0 2.014-1.28 3.525-2.986 3.525-1.706 0-2.985-1.511-2.985-3.525 0-1.51 1.279-3.524 2.985-3.524zm93.827-52.364c1.705 0 2.985 1.51 2.985 3.524 0 2.014-1.28 3.525-2.985 3.525-1.706 0-2.986-1.511-2.986-3.525-.426-2.014 1.28-3.524 2.986-3.524zM7.25 186.105c1.706 0 2.985 1.51 2.985 3.524 0 2.014-1.28 3.525-2.985 3.525-1.706 0-2.985-1.511-2.985-3.525-.427-1.51 1.279-3.524 2.985-3.524zm226.036 25.678c1.706 0 2.986 1.511 2.986 3.525 0 2.014-1.28 3.524-2.986 3.524-1.706 0-2.985-1.51-2.985-3.524 0-2.014 1.279-3.525 2.985-3.525zM104.914 65.266c1.706 0 2.985 1.51 2.985 3.524 0 2.014-1.279 3.525-2.985 3.525s-2.985-1.51-2.985-3.525c-.427-2.014 1.279-3.524 2.985-3.524zm32.84-46.322c1.706 0 2.985 1.51 2.985 3.525 0 2.014-1.279 3.524-2.985 3.524s-2.986-1.51-2.986-3.524c-.426-2.014 1.28-3.525 2.986-3.525zm160.783 138.461c1.706 0 2.985 1.511 2.985 3.525 0 2.014-1.279 3.524-2.985 3.524s-2.985-1.51-2.985-3.524c0-2.014 1.279-3.525 2.985-3.525zM61.414 283.279c1.706 0 2.985 1.511 2.985 3.525 0 2.014-1.28 3.524-2.985 3.524-1.706 0-2.985-1.51-2.985-3.524-.427-1.511 1.279-3.525 2.985-3.525zm214.947-72.503c1.706 0 2.986 1.51 2.986 3.524 0 2.014-1.28 3.525-2.986 3.525-1.706 0-2.985-1.511-2.985-3.525-.427-2.014 1.279-3.524 2.985-3.524zm-144.151 20.14c1.706 0 2.985 1.51 2.985 3.524 0 2.014-1.279 3.524-2.985 3.524s-2.986-1.51-2.986-3.524c-.426-2.014 1.28-3.524 2.986-3.524zm162.062-6.546c1.706 0 2.986 1.511 2.986 3.525 0 2.014-1.28 3.524-2.986 3.524-1.705 0-2.985-1.51-2.985-3.524 0-2.014 1.28-3.525 2.985-3.525zM84.87 301.405c1.706 0 2.986 1.51 2.986 3.524 0 2.014-1.28 3.525-2.986 3.525-1.706 0-2.985-1.511-2.985-3.525 0-1.51 1.28-3.524 2.985-3.524zM208.976 72.314c1.706 0 2.985 1.511 2.985 3.525 0 2.014-1.279 3.525-2.985 3.525s-2.986-1.511-2.986-3.525c0-2.014 1.28-3.525 2.986-3.525zM51.604 259.112c1.706 0 2.986 1.51 2.986 3.524 0 2.014-1.28 3.525-2.986 3.525-1.706 0-2.985-1.511-2.985-3.525-.426-2.014 1.28-3.524 2.985-3.524zm92.974 99.692c1.706 0 2.986 1.51 2.986 3.524 0 2.014-1.28 3.524-2.986 3.524-1.706 0-2.985-1.51-2.985-3.524 0-2.014 1.279-3.524 2.985-3.524zM187.652 142.3c1.706 0 2.986 1.511 2.986 3.525 0 2.014-1.28 3.524-2.986 3.524-1.706 0-2.985-1.51-2.985-3.524 0-2.014 1.279-3.525 2.985-3.525zm90.414 43.301c1.706 0 2.986 1.51 2.986 3.524 0 2.014-1.28 3.525-2.986 3.525-1.706 0-2.985-1.511-2.985-3.525-.427-1.51 1.279-3.524 2.985-3.524zm-7.675-133.93c1.706 0 2.985 1.51 2.985 3.525 0 2.014-1.279 3.524-2.985 3.524s-2.986-1.51-2.986-3.524c0-2.014 1.28-3.525 2.986-3.525zM83.165 72.314c1.706 0 2.985 1.511 2.985 3.525 0 2.014-1.28 3.525-2.985 3.525-1.706 0-2.985-1.511-2.985-3.525-.427-1.51 1.279-3.525 2.985-3.525zm13.22 35.245c1.706 0 2.985 1.511 2.985 3.525 0 2.014-1.28 3.524-2.985 3.524-1.706 0-2.986-1.51-2.986-3.524-.426-2.014 1.28-3.525 2.986-3.525zm-93.4 41.287c1.706 0 2.986 1.511 2.986 3.525 0 2.014-1.28 3.524-2.986 3.524-1.706 0-2.985-1.51-2.985-3.524 0-2.014 1.28-3.525 2.985-3.525zm201.3 11.58c1.706 0 2.985 1.511 2.985 3.525 0 2.014-1.279 3.524-2.985 3.524s-2.985-1.51-2.985-3.524c-.427-2.014 1.279-3.525 2.985-3.525zm-2.132-49.342c1.706 0 2.986 1.51 2.986 3.524 0 2.014-1.28 3.525-2.986 3.525-1.706 0-2.985-1.511-2.985-3.525 0-2.014 1.279-3.524 2.985-3.524zm-89.135 221.538c1.706 0 2.986 1.51 2.986 3.524 0 2.014-1.28 3.525-2.986 3.525-1.705 0-2.985-1.511-2.985-3.525-.426-2.014 1.28-3.524 2.985-3.524zM46.913 170.496c1.706 0 2.986 1.511 2.986 3.525 0 2.014-1.28 3.524-2.986 3.524-1.706 0-2.985-1.51-2.985-3.524 0-2.014 1.28-3.525 2.985-3.525zM231.58 325.069c1.706 0 2.985 1.511 2.985 3.525 0 2.014-1.279 3.524-2.985 3.524s-2.985-1.51-2.985-3.524c0-1.511 1.279-3.525 2.985-3.525zm-59.707-183.272c1.706 0 2.985 1.51 2.985 3.524 0 2.014-1.279 3.525-2.985 3.525s-2.985-1.511-2.985-3.525c0-2.014 1.279-3.524 2.985-3.524zm47.34-139.468c1.706 0 2.985 1.51 2.985 3.524 0 2.014-1.279 3.525-2.985 3.525s-2.986-1.51-2.986-3.525c-.426-2.014 1.28-3.524 2.986-3.524zm6.396 129.901c1.706 0 2.986 1.511 2.986 3.525 0 2.014-1.28 3.524-2.986 3.524-1.706 0-2.985-1.51-2.985-3.524 0-1.511 1.279-3.525 2.985-3.525zM92.547 334.132c1.706 0 2.985 1.511 2.985 3.525 0 2.014-1.28 3.524-2.985 3.524-1.706 0-2.986-1.51-2.986-3.524 0-2.014 1.28-3.525 2.986-3.525zm74.635 13.595c1.706 0 2.985 1.51 2.985 3.524 0 2.014-1.279 3.525-2.985 3.525s-2.986-1.511-2.986-3.525c0-2.014 1.28-3.524 2.986-3.524zM86.15 185.098c1.705 0 2.985 1.51 2.985 3.524 0 2.014-1.28 3.524-2.986 3.524-1.706 0-2.985-1.51-2.985-3.524-.427-1.51 1.28-3.524 2.985-3.524zm171.446-50.35c1.706 0 2.985 1.511 2.985 3.525 0 2.014-1.279 3.524-2.985 3.524s-2.986-1.51-2.986-3.524c-.426-2.014 1.28-3.525 2.986-3.525zm-37.958 249.734c1.706 0 2.985 1.51 2.985 3.524 0 2.014-1.279 3.524-2.985 3.524s-2.986-1.51-2.986-3.524c0-2.014 1.28-3.524 2.986-3.524zm56.297-229.594c1.706 0 2.985 1.51 2.985 3.524 0 2.014-1.279 3.525-2.985 3.525s-2.986-1.511-2.986-3.525c0-2.014 1.28-3.524 2.986-3.524zm-59.709 93.146c1.706 0 2.986 1.511 2.986 3.525 0 2.014-1.28 3.524-2.986 3.524-1.705 0-2.985-1.51-2.985-3.524-.426-2.014 1.28-3.525 2.985-3.525zM52.031 210.272c1.706 0 2.986 1.511 2.986 3.525 0 2.014-1.28 3.524-2.986 3.524-1.706 0-2.985-1.51-2.985-3.524 0-1.511 1.28-3.525 2.985-3.525zm26.867-1.007c1.706 0 2.986 1.511 2.986 3.525 0 2.014-1.28 3.524-2.986 3.524-1.706 0-2.985-1.51-2.985-3.524 0-2.014 1.28-3.525 2.986-3.525zM62.692 68.287c1.706 0 2.986 1.51 2.986 3.524 0 2.014-1.28 3.525-2.986 3.525-1.706 0-2.985-1.51-2.985-3.525-.427-2.014 1.28-3.524 2.985-3.524zm50.326 209.454c1.706 0 2.985 1.51 2.985 3.524 0 2.014-1.279 3.525-2.985 3.525s-2.986-1.511-2.986-3.525c0-1.51 1.28-3.524 2.986-3.524zm21.75-205.93c1.706 0 2.986 1.51 2.986 3.525 0 2.014-1.28 3.524-2.986 3.524-1.705 0-2.985-1.51-2.985-3.524-.426-2.014 1.28-3.525 2.985-3.525zm93.827 227.58c1.706 0 2.985 1.511 2.985 3.525 0 2.014-1.279 3.524-2.985 3.524s-2.986-1.51-2.986-3.524c-.426-2.014 1.28-3.525 2.986-3.525zm52.458-52.867c1.706 0 2.985 1.511 2.985 3.525 0 2.014-1.279 3.524-2.985 3.524s-2.986-1.51-2.986-3.524c0-2.014 1.28-3.525 2.986-3.525zm-123.681 81.063c1.706 0 2.985 1.51 2.985 3.524 0 2.014-1.279 3.525-2.985 3.525s-2.985-1.511-2.985-3.525c-.427-2.014 1.279-3.524 2.985-3.524zm117.283-11.077c1.706 0 2.986 1.51 2.986 3.524 0 2.014-1.28 3.525-2.986 3.525-1.706 0-2.985-1.511-2.985-3.525-.427-2.014 1.279-3.524 2.985-3.524zm-110.46-116.308c1.706 0 2.986 1.511 2.986 3.525 0 2.014-1.28 3.524-2.986 3.524-1.706 0-2.985-1.51-2.985-3.524 0-1.511 1.279-3.525 2.985-3.525zm33.694 66.965c1.706 0 2.985 1.511 2.985 3.525 0 2.014-1.279 3.524-2.985 3.524s-2.986-1.51-2.986-3.524c0-1.511 1.28-3.525 2.986-3.525zm-46.489-21.65c1.706 0 2.986 1.51 2.986 3.524 0 2.014-1.28 3.525-2.986 3.525-1.706 0-2.985-1.511-2.985-3.525 0-2.014 1.279-3.524 2.985-3.524zm3.413 25.175c1.706 0 2.986 1.51 2.986 3.524 0 2.014-1.28 3.525-2.986 3.525-1.706 0-2.985-1.511-2.985-3.525-.426-2.014 1.279-3.524 2.985-3.524zm-86.575 62.937c1.706 0 2.986 1.51 2.986 3.524 0 2.014-1.28 3.525-2.986 3.525-1.706 0-2.985-1.511-2.985-3.525-.427-2.014 1.28-3.524 2.985-3.524zm71.649-155.581c1.706 0 2.985 1.511 2.985 3.525 0 2.014-1.279 3.524-2.985 3.524s-2.986-1.51-2.986-3.524c0-2.014 1.28-3.525 2.986-3.525zm-5.971 206.434c1.706 0 2.985 1.51 2.985 3.524 0 2.014-1.279 3.524-2.985 3.524s-2.985-1.51-2.985-3.524c-.427-2.014 1.279-3.524 2.985-3.524zm33.266-332.307c1.648 0 2.985-1.578 2.985-3.524 0-1.947-1.337-3.525-2.985-3.525-1.649 0-2.986 1.578-2.986 3.525 0 1.946 1.337 3.524 2.986 3.524zm-6.398-44.811c1.706 0 2.986 1.51 2.986 3.525 0 2.014-1.28 3.524-2.986 3.524-1.706 0-2.985-1.51-2.985-3.524 0-1.51 1.279-3.525 2.985-3.525zm166.328 255.272c1.706 0 2.986 1.511 2.986 3.525 0 2.014-1.28 3.524-2.986 3.524-1.706 0-2.985-1.51-2.985-3.524 0-2.014 1.279-3.525 2.985-3.525zm-295.978.503c1.706 0 2.985 1.511 2.985 3.525 0 2.014-1.28 3.524-2.985 3.524-1.706 0-2.986-1.51-2.986-3.524 0-2.014 1.28-3.525 2.986-3.525zm70.796-51.356c1.706 0 2.985 1.511 2.985 3.525 0 2.014-1.279 3.524-2.985 3.524s-2.986-1.51-2.986-3.524c0-2.014 1.28-3.525 2.986-3.525zm-75.488-27.692c1.706 0 2.986 1.51 2.986 3.524 0 2.014-1.28 3.525-2.986 3.525-1.706 0-2.985-1.511-2.985-3.525 0-2.014 1.28-3.524 2.985-3.524zm258.875-84.587c1.706 0 2.986 1.51 2.986 3.524 0 2.014-1.28 3.524-2.986 3.524-1.706 0-2.985-1.51-2.985-3.524 0-2.014 1.279-3.525 2.985-3.525zM108.754 16.93c1.706 0 2.985 1.51 2.985 3.524 0 2.014-1.279 3.525-2.985 3.525s-2.986-1.51-2.986-3.524c-.426-2.014 1.28-3.525 2.986-3.525zm110.032 21.147c1.706 0 2.986 1.51 2.986 3.525 0 2.014-1.28 3.524-2.986 3.524-1.706 0-2.985-1.51-2.985-3.524 0-2.014 1.279-3.525 2.985-3.525zM99.798 301.405c1.706 0 2.985 1.51 2.985 3.524 0 2.014-1.279 3.525-2.985 3.525s-2.986-1.511-2.986-3.525c0-2.014 1.28-3.524 2.986-3.524zm98.517-61.426c1.706 0 2.986 1.51 2.986 3.524 0 2.014-1.28 3.525-2.986 3.525-1.706 0-2.985-1.511-2.985-3.525-.427-2.014 1.279-3.524 2.985-3.524zM189.784 65.77c1.706 0 2.986 1.51 2.986 3.524 0 2.014-1.28 3.525-2.986 3.525-1.706 0-2.985-1.511-2.985-3.525 0-2.014 1.279-3.525 2.985-3.525zm30.707 167.663c1.706 0 2.986 1.511 2.986 3.525 0 2.014-1.28 3.524-2.986 3.524-1.706 0-2.985-1.51-2.985-3.524 0-2.014 1.279-3.525 2.985-3.525zM69.09 43.112c1.706 0 2.985 1.51 2.985 3.525 0 2.014-1.28 3.524-2.985 3.524-1.706 0-2.986-1.51-2.986-3.524 0-2.014 1.28-3.525 2.986-3.525zm-31.987 90.629c1.706 0 2.986 1.511 2.986 3.525 0 2.014-1.28 3.524-2.986 3.524-1.705 0-2.985-1.51-2.985-3.524 0-2.014 1.28-3.525 2.985-3.525zm3.413-50.349c1.706 0 2.985 1.51 2.985 3.524 0 2.014-1.28 3.525-2.985 3.525-1.706 0-2.986-1.51-2.986-3.525 0-2.014 1.28-3.524 2.986-3.524zm196.608 85.594c1.706 0 2.985 1.511 2.985 3.524 0 2.014-1.279 3.525-2.985 3.525s-2.985-1.511-2.985-3.525c0-1.51 1.279-3.524 2.985-3.524zm49.899 163.132c1.706 0 2.986 1.511 2.986 3.525 0 2.014-1.28 3.524-2.986 3.524-1.705 0-2.985-1.51-2.985-3.524 0-1.511 1.28-3.525 2.985-3.525zM52.031 60.734c1.65 0 2.986-1.578 2.986-3.524 0-1.947-1.337-3.525-2.986-3.525-1.648 0-2.985 1.578-2.985 3.525 0 1.947 1.337 3.524 2.985 3.524zM122.4 161.433c1.706 0 2.986 1.511 2.986 3.525 0 2.014-1.28 3.524-2.986 3.524-1.706 0-2.985-1.51-2.985-3.524-.427-1.511 1.279-3.525 2.985-3.525zm123.681 182.266c1.706 0 2.985 1.51 2.985 3.524 0 2.014-1.279 3.524-2.985 3.524s-2.986-1.51-2.986-3.524c-.426-2.014.853-3.524 2.986-3.524zM176.99 27c1.706 0 2.986 1.51 2.986 3.524 0 2.014-1.28 3.525-2.986 3.525-1.706 0-2.985-1.51-2.985-3.525 0-2.014 1.279-3.524 2.985-3.524zm-73.354 116.811c1.706 0 2.985 1.511 2.985 3.525 0 2.014-1.279 3.524-2.985 3.524s-2.986-1.51-2.986-3.524c0-1.511 1.28-3.525 2.986-3.525zm-9.811 99.188c1.706 0 2.986 1.511 2.986 3.525 0 2.014-1.28 3.524-2.986 3.524-1.706 0-2.985-1.51-2.985-3.524 0-1.511 1.28-3.525 2.985-3.525zm119.416 73.007c1.706 0 2.986 1.511 2.986 3.525 0 2.014-1.28 3.524-2.986 3.524-1.706 0-2.985-1.51-2.985-3.524 0-2.014 1.279-3.525 2.985-3.525zM25.163 103.532c1.706 0 2.985 1.51 2.985 3.524 0 2.014-1.279 3.524-2.985 3.524s-2.985-1.51-2.985-3.524c0-2.014 1.28-3.524 2.985-3.524zm136.048 61.929c1.706 0 2.985 1.511 2.985 3.525 0 2.014-1.279 3.524-2.985 3.524s-2.985-1.51-2.985-3.524c0-2.014 1.279-3.525 2.985-3.525zm-64.4 100.699c1.706 0 2.986 1.511 2.986 3.525 0 2.014-1.28 3.524-2.986 3.524-1.706 0-2.985-1.51-2.985-3.524-.426-1.511 1.28-3.525 2.985-3.525zM261.434 33.042c1.706 0 2.985 1.51 2.985 3.525 0 2.014-1.279 3.524-2.985 3.524s-2.986-1.51-2.986-3.524c0-1.51 1.28-3.525 2.986-3.525zm-243.522 92.14c1.706 0 2.986 1.51 2.986 3.524 0 2.014-1.28 3.525-2.986 3.525-1.706 0-2.985-1.511-2.985-3.525 0-1.51 1.28-3.524 2.985-3.524zm99.37 118.321c1.706 0 2.986 1.51 2.986 3.524 0 2.014-1.28 3.525-2.986 3.525-1.706 0-2.985-1.511-2.985-3.525 0-2.014 1.279-3.524 2.985-3.524zm60.989 40.783c1.705 0 2.985 1.511 2.985 3.525 0 2.014-1.28 3.524-2.985 3.524-1.706 0-2.986-1.51-2.986-3.524 0-2.014 1.28-3.525 2.986-3.525zm127.944 18.63c1.706 0 2.985 1.51 2.985 3.524 0 2.014-1.279 3.524-2.985 3.524s-2.986-1.51-2.986-3.524c0-2.014 1.28-3.524 2.986-3.524zM182.962.818c1.706 0 2.985 1.51 2.985 3.525 0 2.014-1.279 3.524-2.985 3.524s-2.985-1.51-2.985-3.524c0-2.014 1.279-3.525 2.985-3.525zM316.45 108.063c1.706 0 2.986 1.511 2.986 3.525 0 2.014-1.28 3.524-2.986 3.524-1.706 0-2.985-1.51-2.985-3.524-.427-2.014 1.279-3.525 2.985-3.525zm10.236 133.426c1.705 0 2.985 1.511 2.985 3.525 0 2.014-1.28 3.524-2.985 3.524-1.706 0-2.986-1.51-2.986-3.524 0-1.511 1.28-3.525 2.986-3.525zM32.412 289.825c1.706 0 2.986 1.51 2.986 3.524 0 2.014-1.28 3.525-2.986 3.525-1.706 0-2.985-1.511-2.985-3.525 0-1.51 1.28-3.524 2.985-3.524zm147.99-65.455c1.706 0 2.986 1.511 2.986 3.525 0 2.014-1.28 3.524-2.986 3.524-1.706 0-2.985-1.51-2.985-3.524 0-2.014 1.279-3.525 2.985-3.525zm154.813-68.979c1.706 0 2.985 1.511 2.985 3.525 0 2.014-1.279 3.524-2.985 3.524s-2.986-1.51-2.986-3.524c0-1.511 1.28-3.525 2.986-3.525zm-30.28 93.147c1.706 0 2.985 1.51 2.985 3.524 0 2.014-1.279 3.525-2.985 3.525s-2.986-1.511-2.986-3.525c0-2.014 1.28-3.524 2.986-3.524zm-2.132 35.245c1.706 0 2.985 1.51 2.985 3.524 0 2.014-1.279 3.525-2.985 3.525s-2.986-1.511-2.986-3.525c-.426-2.014 1.28-3.524 2.986-3.524zM270.815 90.44c1.706 0 2.986 1.511 2.986 3.525 0 2.014-1.28 3.525-2.986 3.525-1.705 0-2.985-1.51-2.985-3.525 0-2.014 1.28-3.524 2.985-3.524zm-95.104 163.637c1.706 0 2.985 1.51 2.985 3.524 0 2.014-1.279 3.525-2.985 3.525s-2.985-1.511-2.985-3.525c0-2.014 1.279-3.524 2.985-3.524z"/></g><defs><clipPath id="clip0"><path fill="#fff" transform="translate(0 .818)" d="M0 0h339.48v391.216H0z"/></clipPath></defs></svg>