<svg width="280" height="323" fill="none" xmlns="http://www.w3.org/2000/svg"><g clip-path="url(#clip0)" fill="#E8E9ED"><path d="M160.753 248.752c1.407 0 2.463 1.246 2.463 2.907s-1.056 2.907-2.463 2.907-2.462-1.246-2.462-2.907 1.055-2.907 2.462-2.907zM142.814 89.7c1.407 0 2.462 1.246 2.462 2.907s-1.055 2.907-2.462 2.907c-1.407 0-2.462-1.246-2.462-2.907s1.055-2.907 2.462-2.907zm122.06 48.588c1.407 0 2.463 1.246 2.463 2.907s-1.056 2.907-2.463 2.907-2.462-1.246-2.462-2.907 1.055-2.907 2.462-2.907zM107.287 305.229c1.408 0 2.463 1.246 2.463 2.907 0 1.662-1.055 2.907-2.463 2.907-1.407 0-2.462-1.245-2.462-2.907-.352-1.661 1.055-2.907 2.462-2.907zm107.286-88.038c1.407 0 2.462 1.246 2.462 2.907s-1.055 2.907-2.462 2.907c-1.407 0-2.463-1.246-2.463-2.907s1.056-2.907 2.463-2.907zM191.005 88.04c1.407 0 2.463 1.245 2.463 2.906s-1.056 2.907-2.463 2.907-2.462-1.246-2.462-2.907c-.352-1.661 1.055-2.907 2.462-2.907zm-110.1-58.97c1.407 0 2.462 1.245 2.462 2.906s-1.055 2.907-2.462 2.907c-1.407 0-2.463-1.246-2.463-2.907-.351-1.66 1.056-2.907 2.463-2.907zm86.18-14.95c1.407 0 2.463 1.246 2.463 2.907 0 1.66-1.056 2.906-2.463 2.906s-2.462-1.245-2.462-2.906c0-1.662 1.055-2.907 2.462-2.907zm-61.557 141.609c1.36 0 2.462-1.301 2.462-2.907 0-1.605-1.102-2.906-2.462-2.906s-2.463 1.301-2.463 2.906c0 1.606 1.103 2.907 2.463 2.907zm-93.919 55.647c1.407 0 2.462 1.246 2.462 2.907 0 1.662-1.055 2.907-2.462 2.907-1.407 0-2.463-1.245-2.463-2.907 0-1.245 1.056-2.907 2.463-2.907zM268.04 105.065c1.407 0 2.463 1.246 2.463 2.907s-1.056 2.907-2.463 2.907-2.462-1.246-2.462-2.907 1.055-2.907 2.462-2.907zm-82.311-41.942c1.407 0 2.462 1.245 2.462 2.907 0 1.66-1.055 2.906-2.462 2.906-1.407 0-2.462-1.245-2.462-2.907 0-1.66 1.055-2.906 2.462-2.906zm-76.684-25.748c1.407 0 2.463 1.246 2.463 2.907s-1.056 2.907-2.463 2.907-2.462-1.246-2.462-2.907c-.352-1.246 1.055-2.907 2.462-2.907zm.352 61.461c1.407 0 2.462 1.246 2.462 2.907s-1.055 2.907-2.462 2.907c-1.407 0-2.462-1.246-2.462-2.907-.352-1.245 1.055-2.907 2.462-2.907zm36.231 159.467c1.407 0 2.463 1.246 2.463 2.907s-1.056 2.907-2.463 2.907-2.462-1.246-2.462-2.907c-.352-1.661 1.055-2.907 2.462-2.907zm131.558-99.667c1.407 0 2.462 1.246 2.462 2.907s-1.055 2.907-2.462 2.907c-1.407 0-2.462-1.246-2.462-2.907 0-1.246 1.055-2.907 2.462-2.907zM90.402 306.891c1.407 0 2.462 1.245 2.462 2.907 0 1.661-1.055 2.906-2.462 2.906-1.407 0-2.463-1.245-2.463-2.906-.351-1.662 1.056-2.907 2.463-2.907zm123.116-169.019c1.407 0 2.462 1.246 2.462 2.907s-1.055 2.907-2.462 2.907c-1.407 0-2.462-1.246-2.462-2.907s1.055-2.907 2.462-2.907zm-52.765 140.78c1.407 0 2.463 1.246 2.463 2.907s-1.056 2.907-2.463 2.907-2.462-1.246-2.462-2.907c-.352-1.661 1.055-2.907 2.462-2.907zm42.915-29.485c1.407 0 2.463 1.246 2.463 2.907s-1.056 2.907-2.463 2.907-2.462-1.246-2.462-2.907 1.055-2.907 2.462-2.907zM49.245 260.795c1.408 0 2.463 1.246 2.463 2.907s-1.055 2.907-2.462 2.907c-1.407 0-2.463-1.246-2.463-2.907s1.056-2.907 2.462-2.907zm17.941 32.391c1.407 0 2.462 1.246 2.462 2.907S68.593 299 67.186 299c-1.407 0-2.462-1.246-2.462-2.907s1.055-2.907 2.462-2.907zm127.688-276.99c1.407 0 2.463 1.246 2.463 2.907 0 1.66-1.056 2.907-2.463 2.907s-2.462-1.246-2.462-2.907c-.352-1.661 1.055-2.907 2.462-2.907zm-85.83 212.207c1.407 0 2.463 1.246 2.463 2.907s-1.056 2.907-2.463 2.907-2.462-1.246-2.462-2.907 1.055-2.907 2.462-2.907zm52.062-120.431c1.407 0 2.462 1.246 2.462 2.907s-1.055 2.907-2.462 2.907c-1.407 0-2.462-1.246-2.462-2.907s1.055-2.907 2.462-2.907zm-64.724-9.136c1.36 0 2.462-1.301 2.462-2.907 0-1.605-1.102-2.907-2.462-2.907s-2.462 1.302-2.462 2.907c0 1.606 1.102 2.907 2.462 2.907zm63.318 29.485c1.407 0 2.462 1.246 2.462 2.907s-1.055 2.907-2.462 2.907c-1.407 0-2.463-1.246-2.463-2.907s1.056-2.907 2.463-2.907zm33.417-72.258c1.407 0 2.462 1.245 2.462 2.906 0 1.662-1.055 2.907-2.462 2.907-1.407 0-2.463-1.245-2.463-2.907-.351-1.66 1.056-2.907 2.463-2.907zM8.793 186.875c1.36 0 2.463-1.302 2.463-2.907s-1.103-2.907-2.463-2.907-2.462 1.302-2.462 2.907 1.102 2.907 2.462 2.907zm141.76-35.298c1.407 0 2.462 1.245 2.462 2.907 0 1.661-1.055 2.907-2.462 2.907-1.407 0-2.462-1.246-2.462-2.907 0-1.662 1.055-2.907 2.462-2.907zm28.141 131.643c1.407 0 2.462 1.246 2.462 2.907s-1.055 2.907-2.462 2.907c-1.407 0-2.463-1.246-2.463-2.907s1.056-2.907 2.463-2.907zm-53.468-45.681c1.407 0 2.462 1.246 2.462 2.907s-1.055 2.907-2.462 2.907c-1.407 0-2.462-1.246-2.462-2.907s1.055-2.907 2.462-2.907zm62.613-12.042c1.407 0 2.463 1.245 2.463 2.907 0 1.661-1.056 2.906-2.463 2.906s-2.462-1.245-2.462-2.906c0-1.662 1.055-2.907 2.462-2.907zm-65.779-54.403c1.407 0 2.462 1.246 2.462 2.907s-1.055 2.907-2.462 2.907c-1.407 0-2.462-1.246-2.462-2.907s1.055-2.907 2.462-2.907zm-82.663-83.47c1.407 0 2.462 1.246 2.462 2.907s-1.055 2.907-2.462 2.907c-1.407 0-2.462-1.246-2.462-2.907-.352-1.661 1.055-2.907 2.462-2.907zM111.86 0c1.407 0 2.462 1.246 2.462 2.907s-1.055 2.907-2.462 2.907c-1.407 0-2.463-1.246-2.463-2.907C109.046 1.246 110.453 0 111.86 0zM61.557 77.657c1.407 0 2.462 1.246 2.462 2.907 0 1.66-1.055 2.907-2.462 2.907-1.407 0-2.462-1.246-2.462-2.907s1.055-2.907 2.462-2.907zM51.71 200.995c1.406 0 2.462 1.245 2.462 2.907 0 1.661-1.056 2.906-2.463 2.906s-2.462-1.245-2.462-2.906c0-1.662 1.055-2.907 2.462-2.907zm156.883-36.545c1.407 0 2.462 1.246 2.462 2.907s-1.055 2.907-2.462 2.907c-1.407 0-2.462-1.246-2.462-2.907s1.055-2.907 2.462-2.907zM97.79 71.843c1.406 0 2.462 1.246 2.462 2.907s-1.055 2.907-2.463 2.907c-1.407 0-2.462-1.246-2.462-2.907-.352-1.246 1.055-2.907 2.462-2.907zm84.773 79.734c1.407 0 2.462 1.245 2.462 2.907 0 1.661-1.055 2.907-2.462 2.907-1.407 0-2.462-1.246-2.462-2.907-.352-1.662 1.055-2.907 2.462-2.907zM57.689 102.989c1.407 0 2.462 1.246 2.462 2.907s-1.055 2.907-2.462 2.907c-1.407 0-2.462-1.246-2.462-2.907s1.055-2.907 2.462-2.907zm34.471 51.91c1.408 0 2.463 1.246 2.463 2.907s-1.055 2.907-2.462 2.907c-1.407 0-2.463-1.246-2.463-2.907s1.056-2.907 2.463-2.907zm55.93-85.547c1.407 0 2.463 1.245 2.463 2.906 0 1.662-1.056 2.907-2.463 2.907s-2.462-1.245-2.462-2.907c0-1.245 1.055-2.906 2.462-2.906zm101.658 36.129c1.407 0 2.463 1.246 2.463 2.907s-1.056 2.907-2.463 2.907-2.462-1.246-2.462-2.907c-.352-1.246 1.055-2.907 2.462-2.907zm-53.466-63.538c1.407 0 2.462 1.246 2.462 2.907s-1.055 2.907-2.462 2.907c-1.407 0-2.463-1.246-2.463-2.907 0-1.66 1.056-2.907 2.463-2.907zM17.939 129.567c1.407 0 2.462 1.246 2.462 2.907s-1.055 2.907-2.462 2.907c-1.407 0-2.462-1.246-2.462-2.907 0-1.246 1.055-2.907 2.462-2.907zm205.077-33.222c1.407 0 2.462 1.246 2.462 2.907s-1.055 2.907-2.462 2.907c-1.407 0-2.462-1.246-2.462-2.907s1.055-2.907 2.462-2.907zm27.437 63.537c1.407 0 2.462 1.246 2.462 2.907s-1.055 2.907-2.462 2.907c-1.407 0-2.463-1.246-2.463-2.907s1.056-2.907 2.463-2.907zm-206.835-4.153c1.408 0 2.463 1.246 2.463 2.907 0 1.662-1.055 2.907-2.463 2.907-1.407 0-2.462-1.245-2.462-2.907-.352-1.245 1.056-2.907 2.462-2.907zm128.393 144.933c1.407 0 2.462 1.245 2.462 2.907 0 1.661-1.055 2.907-2.462 2.907-1.407 0-2.462-1.246-2.462-2.907-.352-1.662 1.055-2.907 2.462-2.907zm33.417-235.879c1.407 0 2.462 1.246 2.462 2.907s-1.055 2.907-2.462 2.907c-1.407 0-2.462-1.246-2.462-2.907s1.055-2.907 2.462-2.907zm-72.463 242.108c1.407 0 2.463 1.245 2.463 2.907 0 1.661-1.056 2.906-2.463 2.906s-2.462-1.245-2.462-2.906c0-1.246 1.055-2.907 2.462-2.907zm64.723-94.684c1.36 0 2.462-1.301 2.462-2.906 0-1.606-1.102-2.907-2.462-2.907s-2.462 1.301-2.462 2.907c0 1.605 1.102 2.906 2.462 2.906zm71.76-27.408c1.407 0 2.462 1.246 2.462 2.907s-1.055 2.907-2.462 2.907c-1.407 0-2.463-1.246-2.463-2.907 0-1.246 1.056-2.907 2.463-2.907zM126.985 71.428c1.407 0 2.462 1.246 2.462 2.907 0 1.66-1.055 2.907-2.462 2.907-1.407 0-2.463-1.246-2.463-2.907s1.056-2.907 2.463-2.907zm-72.814 52.325c1.407 0 2.463 1.246 2.463 2.907s-1.056 2.907-2.463 2.907-2.462-1.246-2.462-2.907c0-1.246 1.055-2.907 2.462-2.907zm67.537-11.628c1.407 0 2.463 1.246 2.463 2.907 0 1.662-1.056 2.907-2.463 2.907s-2.462-1.245-2.462-2.907c0-1.245 1.055-2.907 2.462-2.907zm92.866 120.016c1.407 0 2.462 1.245 2.462 2.907 0 1.661-1.055 2.907-2.462 2.907-1.407 0-2.463-1.246-2.463-2.907-.351-1.662 1.056-2.907 2.463-2.907zM72.814 16.196c1.407 0 2.462 1.246 2.462 2.907 0 1.66-1.055 2.907-2.462 2.907-1.407 0-2.462-1.246-2.462-2.907-.352-1.246 1.055-2.907 2.462-2.907zM29.548 192.274c1.407 0 2.463 1.246 2.463 2.907s-1.056 2.907-2.463 2.907-2.462-1.246-2.462-2.907c0-1.246 1.055-2.907 2.462-2.907zm130.854-34.883c1.407 0 2.462 1.245 2.462 2.907 0 1.661-1.055 2.907-2.462 2.907-1.407 0-2.463-1.246-2.463-2.907 0-1.662 1.056-2.907 2.463-2.907zm75.628-96.345c1.407 0 2.462 1.246 2.462 2.907s-1.055 2.907-2.462 2.907c-1.407 0-2.463-1.246-2.463-2.907s1.056-2.907 2.463-2.907zm-21.809 183.553c1.407 0 2.462 1.246 2.462 2.907s-1.055 2.907-2.462 2.907c-1.407 0-2.462-1.246-2.462-2.907-.352-1.661.703-2.907 2.462-2.907zM23.92 170.264c1.406 0 2.462 1.246 2.462 2.907s-1.056 2.907-2.463 2.907-2.462-1.246-2.462-2.907 1.055-2.907 2.462-2.907zm82.311 83.471c1.407 0 2.462 1.246 2.462 2.907s-1.055 2.907-2.462 2.907c-1.407 0-2.462-1.246-2.462-2.907-.352-1.246 1.055-2.907 2.462-2.907zm114.674 27.824c1.407 0 2.462 1.246 2.462 2.907s-1.055 2.907-2.462 2.907c-1.407 0-2.463-1.246-2.463-2.907s1.056-2.907 2.463-2.907zM125.226 45.266c1.407 0 2.462 1.245 2.462 2.907 0 1.66-1.055 2.907-2.462 2.907-1.407 0-2.462-1.246-2.462-2.907-.352-1.662 1.055-2.907 2.462-2.907zm30.955 249.166c1.407 0 2.462 1.246 2.462 2.907s-1.055 2.907-2.462 2.907c-1.407 0-2.462-1.246-2.462-2.907 0-1.246 1.055-2.907 2.462-2.907zm77.387-43.189c1.407 0 2.462 1.246 2.462 2.907s-1.055 2.907-2.462 2.907c-1.407 0-2.463-1.246-2.463-2.907-.351-1.661 1.056-2.907 2.463-2.907zM5.98 152.822c1.407 0 2.462 1.246 2.462 2.907s-1.055 2.907-2.462 2.907c-1.407 0-2.462-1.246-2.462-2.907-.352-1.246 1.055-2.907 2.462-2.907zm186.433 21.18c1.407 0 2.462 1.246 2.462 2.907s-1.055 2.907-2.462 2.907c-1.408 0-2.463-1.246-2.463-2.907s1.055-2.907 2.463-2.907zM86.532 53.156c1.407 0 2.462 1.246 2.462 2.907 0 1.66-1.055 2.907-2.462 2.907-1.407 0-2.463-1.246-2.463-2.907-.351-1.661 1.056-2.907 2.463-2.907zm27.087-38.206c1.407 0 2.462 1.246 2.462 2.907s-1.055 2.907-2.462 2.907c-1.407 0-2.463-1.246-2.463-2.907-.352-1.661 1.056-2.907 2.463-2.907zm132.612 114.201c1.407 0 2.462 1.246 2.462 2.907s-1.055 2.907-2.462 2.907c-1.407 0-2.462-1.246-2.462-2.907s1.055-2.907 2.462-2.907zM50.654 232.971c1.407 0 2.462 1.246 2.462 2.907s-1.055 2.907-2.462 2.907c-1.407 0-2.463-1.246-2.463-2.907-.351-1.246 1.056-2.907 2.463-2.907zm177.286-59.8c1.407 0 2.462 1.246 2.462 2.907s-1.055 2.907-2.462 2.907c-1.407 0-2.462-1.246-2.462-2.907-.352-1.661 1.055-2.907 2.462-2.907zm-118.895 16.611c1.407 0 2.463 1.246 2.463 2.907s-1.056 2.907-2.463 2.907-2.462-1.246-2.462-2.907c-.352-1.661 1.055-2.907 2.462-2.907zm133.668-5.398c1.407 0 2.463 1.246 2.463 2.907s-1.056 2.907-2.463 2.907-2.462-1.246-2.462-2.907 1.055-2.907 2.462-2.907zM70 247.921c1.407 0 2.463 1.246 2.463 2.907s-1.056 2.907-2.463 2.907-2.462-1.246-2.462-2.907c0-1.246 1.055-2.907 2.462-2.907zM172.361 58.97c1.407 0 2.462 1.245 2.462 2.906s-1.055 2.907-2.462 2.907c-1.407 0-2.463-1.246-2.463-2.907 0-1.66 1.056-2.907 2.463-2.907zM42.563 213.038c1.407 0 2.462 1.246 2.462 2.907s-1.055 2.907-2.462 2.907c-1.407 0-2.462-1.246-2.462-2.907-.352-1.661 1.055-2.907 2.462-2.907zm76.684 82.225c1.407 0 2.462 1.246 2.462 2.907s-1.055 2.907-2.462 2.907c-1.408 0-2.463-1.246-2.463-2.907s1.055-2.907 2.463-2.907zm35.527-178.57c1.407 0 2.462 1.246 2.462 2.907s-1.055 2.907-2.462 2.907c-1.407 0-2.462-1.246-2.462-2.907s1.055-2.907 2.462-2.907zm74.572 35.714c1.407 0 2.462 1.246 2.462 2.907s-1.055 2.907-2.462 2.907c-1.407 0-2.462-1.246-2.462-2.907-.352-1.246 1.055-2.907 2.462-2.907zm-6.33-110.464c1.407 0 2.462 1.246 2.462 2.907s-1.055 2.907-2.462 2.907c-1.407 0-2.462-1.246-2.462-2.907 0-1.66 1.055-2.907 2.462-2.907zM68.594 58.97c1.407 0 2.462 1.245 2.462 2.906s-1.055 2.907-2.462 2.907c-1.407 0-2.462-1.246-2.462-2.907-.352-1.246 1.055-2.907 2.462-2.907zm10.904 29.07c1.406 0 2.462 1.245 2.462 2.906s-1.055 2.907-2.462 2.907c-1.408 0-2.463-1.246-2.463-2.907-.352-1.661 1.055-2.907 2.463-2.907zM2.462 122.092c1.407 0 2.463 1.246 2.463 2.907s-1.056 2.907-2.463 2.907S0 126.66 0 124.999s1.055-2.907 2.462-2.907zm166.031 9.551c1.407 0 2.462 1.246 2.462 2.907s-1.055 2.907-2.462 2.907c-1.407 0-2.463-1.246-2.463-2.907-.352-1.661 1.056-2.907 2.463-2.907zm-1.759-40.697c1.407 0 2.462 1.246 2.462 2.907 0 1.66-1.055 2.907-2.462 2.907-1.407 0-2.463-1.246-2.463-2.907s1.056-2.907 2.463-2.907zM93.216 273.668c1.407 0 2.463 1.246 2.463 2.907s-1.056 2.907-2.463 2.907-2.462-1.246-2.462-2.907c-.352-1.661 1.055-2.907 2.462-2.907zM38.694 139.949c1.407 0 2.462 1.246 2.462 2.907s-1.055 2.907-2.462 2.907c-1.407 0-2.463-1.246-2.463-2.907s1.056-2.907 2.463-2.907zm152.311 127.49c1.407 0 2.463 1.246 2.463 2.907s-1.056 2.907-2.463 2.907-2.462-1.246-2.462-2.907c0-1.246 1.055-2.907 2.462-2.907zm-49.246-151.161c1.407 0 2.462 1.246 2.462 2.907s-1.055 2.907-2.462 2.907c-1.407 0-2.462-1.246-2.462-2.907s1.055-2.907 2.462-2.907zM180.805 1.246c1.407 0 2.462 1.246 2.462 2.907s-1.055 2.907-2.462 2.907c-1.407 0-2.462-1.246-2.462-2.907-.352-1.661 1.055-2.907 2.462-2.907zm5.275 107.142c1.408 0 2.463 1.246 2.463 2.907s-1.055 2.907-2.463 2.907c-1.407 0-2.462-1.246-2.462-2.907 0-1.246 1.055-2.907 2.462-2.907zM76.332 274.914c1.407 0 2.462 1.246 2.462 2.907s-1.055 2.907-2.462 2.907c-1.408 0-2.463-1.246-2.463-2.907s1.055-2.907 2.463-2.907zm61.558 11.213c1.407 0 2.462 1.246 2.462 2.907s-1.055 2.907-2.462 2.907c-1.407 0-2.462-1.246-2.462-2.907s1.055-2.907 2.462-2.907zM71.055 151.992c1.407 0 2.462 1.246 2.462 2.907s-1.055 2.907-2.462 2.907c-1.407 0-2.462-1.246-2.462-2.907-.352-1.246 1.055-2.907 2.462-2.907zm141.407-41.528c1.407 0 2.463 1.246 2.463 2.907s-1.056 2.907-2.463 2.907-2.462-1.246-2.462-2.907c-.352-1.661 1.055-2.907 2.462-2.907zm-31.306 205.978c1.407 0 2.462 1.246 2.462 2.907s-1.055 2.907-2.462 2.907c-1.407 0-2.463-1.246-2.463-2.907s1.056-2.907 2.463-2.907zm46.432-189.367c1.407 0 2.463 1.246 2.463 2.907s-1.056 2.907-2.463 2.907-2.462-1.246-2.462-2.907 1.055-2.907 2.462-2.907zm-49.247 76.826c1.407 0 2.463 1.246 2.463 2.907s-1.056 2.907-2.463 2.907-2.462-1.246-2.462-2.907c-.352-1.661 1.055-2.907 2.462-2.907zM42.914 172.756c1.407 0 2.463 1.246 2.463 2.907s-1.056 2.907-2.463 2.907-2.462-1.246-2.462-2.907c0-1.246 1.055-2.907 2.462-2.907zm22.161-.831c1.407 0 2.462 1.246 2.462 2.907s-1.055 2.907-2.462 2.907c-1.407 0-2.463-1.246-2.463-2.907s1.056-2.907 2.463-2.907zM51.708 55.648c1.407 0 2.463 1.245 2.463 2.906s-1.056 2.907-2.463 2.907-2.462-1.245-2.462-2.907c-.352-1.66 1.055-2.907 2.462-2.907zm41.508 172.755c1.407 0 2.463 1.246 2.463 2.907s-1.056 2.907-2.463 2.907-2.462-1.246-2.462-2.907c0-1.246 1.055-2.907 2.462-2.907zm17.94-169.849c1.407 0 2.462 1.246 2.462 2.907s-1.055 2.907-2.462 2.907c-1.407 0-2.463-1.246-2.463-2.907-.351-1.661 1.056-2.907 2.463-2.907zm77.386 187.706c1.407 0 2.463 1.246 2.463 2.907s-1.056 2.907-2.463 2.907-2.462-1.246-2.462-2.907c-.352-1.661 1.055-2.907 2.462-2.907zm43.268-43.604c1.407 0 2.462 1.246 2.462 2.907s-1.055 2.907-2.462 2.907c-1.407 0-2.462-1.246-2.462-2.907s1.055-2.907 2.462-2.907zm-102.011 66.86c1.407 0 2.463 1.245 2.463 2.907 0 1.661-1.056 2.907-2.463 2.907s-2.462-1.246-2.462-2.907c-.352-1.662 1.055-2.907 2.462-2.907zm96.734-9.137c1.407 0 2.462 1.246 2.462 2.907s-1.055 2.907-2.462 2.907c-1.407 0-2.463-1.246-2.463-2.907-.351-1.661 1.056-2.907 2.463-2.907zm-91.106-95.929c1.407 0 2.462 1.246 2.462 2.907s-1.055 2.907-2.462 2.907c-1.407 0-2.462-1.246-2.462-2.907 0-1.246 1.055-2.907 2.462-2.907zm27.79 55.233c1.407 0 2.462 1.245 2.462 2.907 0 1.661-1.055 2.907-2.462 2.907-1.407 0-2.462-1.246-2.462-2.907 0-1.246 1.055-2.907 2.462-2.907zm-38.344-17.858c1.407 0 2.463 1.246 2.463 2.907s-1.056 2.907-2.463 2.907-2.462-1.246-2.462-2.907 1.055-2.907 2.462-2.907zm2.816 20.764c1.407 0 2.462 1.246 2.462 2.907s-1.055 2.907-2.462 2.907c-1.407 0-2.462-1.246-2.462-2.907-.352-1.661 1.055-2.907 2.462-2.907zm-71.406 51.91c1.407 0 2.462 1.246 2.462 2.907s-1.055 2.907-2.462 2.907c-1.407 0-2.463-1.246-2.463-2.907-.352-1.661 1.056-2.907 2.463-2.907zm59.094-128.321c1.407 0 2.463 1.246 2.463 2.907s-1.056 2.907-2.463 2.907-2.462-1.246-2.462-2.907 1.055-2.907 2.462-2.907zm-4.924 170.264c1.407 0 2.462 1.246 2.462 2.907s-1.055 2.907-2.462 2.907c-1.408 0-2.463-1.246-2.463-2.907-.352-1.661 1.055-2.907 2.463-2.907zM137.89 42.359c1.36 0 2.462-1.302 2.462-2.907 0-1.606-1.102-2.907-2.462-2.907s-2.462 1.301-2.462 2.907c0 1.605 1.102 2.907 2.462 2.907zm-5.276-36.96c1.407 0 2.462 1.246 2.462 2.907s-1.055 2.907-2.462 2.907c-1.407 0-2.463-1.246-2.463-2.907 0-1.246 1.056-2.907 2.463-2.907zm137.185 210.546c1.407 0 2.463 1.246 2.463 2.907s-1.056 2.907-2.463 2.907-2.462-1.246-2.462-2.907 1.055-2.907 2.462-2.907zm-244.119.415c1.406 0 2.461 1.246 2.461 2.907s-1.055 2.907-2.462 2.907c-1.407 0-2.462-1.246-2.462-2.907s1.055-2.907 2.462-2.907zm58.39-42.358c1.408 0 2.463 1.246 2.463 2.907s-1.055 2.907-2.462 2.907c-1.407 0-2.463-1.246-2.463-2.907s1.056-2.907 2.463-2.907zm-62.261-22.841c1.407 0 2.462 1.246 2.462 2.907s-1.055 2.907-2.462 2.907c-1.407 0-2.462-1.246-2.462-2.907s1.055-2.907 2.462-2.907zm213.519-69.767c1.407 0 2.462 1.246 2.462 2.907 0 1.662-1.055 2.907-2.462 2.907-1.407 0-2.463-1.245-2.463-2.906 0-1.662 1.056-2.908 2.463-2.908zM89.7 13.289c1.407 0 2.462 1.245 2.462 2.906 0 1.662-1.055 2.907-2.462 2.907-1.407 0-2.463-1.245-2.463-2.907-.352-1.66 1.056-2.906 2.463-2.906zm90.753 17.442c1.407 0 2.462 1.246 2.462 2.907s-1.055 2.907-2.462 2.907c-1.407 0-2.463-1.246-2.463-2.907s1.056-2.907 2.463-2.907zm-98.141 217.19c1.407 0 2.462 1.246 2.462 2.907s-1.055 2.907-2.462 2.907c-1.407 0-2.462-1.246-2.462-2.907s1.055-2.907 2.462-2.907zm81.257-50.664c1.407 0 2.462 1.246 2.462 2.907s-1.055 2.907-2.462 2.907c-1.407 0-2.463-1.246-2.463-2.907-.351-1.661 1.056-2.907 2.463-2.907zm-7.036-143.686c1.407 0 2.462 1.246 2.462 2.907s-1.055 2.907-2.462 2.907c-1.407 0-2.463-1.246-2.463-2.907 0-1.66 1.056-2.907 2.463-2.907zm25.326 138.287c1.407 0 2.462 1.246 2.462 2.907s-1.055 2.907-2.462 2.907c-1.407 0-2.463-1.246-2.463-2.907s1.056-2.907 2.463-2.907zM56.985 34.883c1.407 0 2.462 1.246 2.462 2.907s-1.055 2.907-2.462 2.907c-1.407 0-2.462-1.246-2.462-2.907 0-1.66 1.055-2.907 2.462-2.907zm-26.382 74.751c1.407 0 2.462 1.246 2.462 2.907s-1.055 2.907-2.462 2.907c-1.407 0-2.462-1.246-2.462-2.907s1.055-2.907 2.462-2.907zm2.814-41.528c1.407 0 2.463 1.245 2.463 2.906 0 1.662-1.056 2.907-2.463 2.907s-2.462-1.245-2.462-2.907c0-1.66 1.055-2.906 2.462-2.906zm162.161 70.597c1.407 0 2.462 1.246 2.462 2.907s-1.055 2.907-2.462 2.907c-1.407 0-2.463-1.246-2.463-2.907 0-1.246 1.056-2.907 2.463-2.907zm41.157 134.55c1.407 0 2.462 1.246 2.462 2.907s-1.055 2.907-2.462 2.907c-1.407 0-2.463-1.246-2.463-2.907 0-1.246 1.056-2.907 2.463-2.907zM42.914 49.418c1.36 0 2.463-1.301 2.463-2.907 0-1.605-1.103-2.907-2.463-2.907s-2.462 1.302-2.462 2.907c0 1.606 1.103 2.907 2.462 2.907zm58.04 83.056c1.408 0 2.463 1.245 2.463 2.907 0 1.661-1.055 2.907-2.463 2.907-1.406 0-2.462-1.246-2.462-2.907-.352-1.246 1.055-2.907 2.462-2.907zm102.011 150.331c1.407 0 2.463 1.246 2.463 2.907s-1.056 2.907-2.463 2.907-2.462-1.246-2.462-2.907c-.352-1.661.703-2.907 2.462-2.907zM145.98 21.594c1.407 0 2.462 1.246 2.462 2.907s-1.055 2.907-2.462 2.907c-1.407 0-2.462-1.246-2.462-2.907 0-1.66 1.055-2.907 2.462-2.907zm-60.502 96.345c1.407 0 2.462 1.246 2.462 2.907s-1.055 2.907-2.462 2.907c-1.407 0-2.462-1.246-2.462-2.907 0-1.246 1.055-2.907 2.462-2.907zm-8.092 81.81c1.407 0 2.463 1.245 2.463 2.906 0 1.662-1.056 2.907-2.463 2.907s-2.462-1.245-2.462-2.907c0-1.245 1.055-2.906 2.462-2.906zm98.493 60.215c1.407 0 2.463 1.246 2.463 2.907s-1.056 2.907-2.463 2.907-2.462-1.246-2.462-2.907 1.055-2.907 2.462-2.907zM20.754 84.717c1.407 0 2.463 1.246 2.463 2.907 0 1.66-1.056 2.907-2.463 2.907s-2.462-1.246-2.462-2.907 1.055-2.907 2.462-2.907zm112.211 51.079c1.407 0 2.463 1.246 2.463 2.907s-1.056 2.907-2.463 2.907-2.462-1.246-2.462-2.907 1.055-2.907 2.462-2.907zm-53.116 83.056c1.407 0 2.462 1.245 2.462 2.907 0 1.661-1.055 2.906-2.462 2.906-1.407 0-2.462-1.245-2.462-2.906-.352-1.246 1.055-2.907 2.462-2.907zM215.628 26.578c1.407 0 2.463 1.246 2.463 2.907s-1.056 2.907-2.463 2.907-2.462-1.246-2.462-2.907c0-1.246 1.055-2.907 2.462-2.907zM14.774 102.574c1.407 0 2.462 1.246 2.462 2.907s-1.055 2.907-2.462 2.907c-1.407 0-2.462-1.246-2.462-2.907 0-1.246 1.055-2.907 2.462-2.907zm81.96 97.59c1.407 0 2.462 1.246 2.462 2.907s-1.055 2.907-2.462 2.907c-1.407 0-2.462-1.246-2.462-2.907s1.055-2.907 2.462-2.907zm50.302 33.638c1.407 0 2.462 1.246 2.462 2.907s-1.055 2.907-2.462 2.907c-1.407 0-2.463-1.246-2.463-2.907s1.056-2.907 2.463-2.907zm105.527 15.365c1.407 0 2.462 1.246 2.462 2.907s-1.055 2.907-2.462 2.907c-1.407 0-2.462-1.246-2.462-2.907s1.055-2.907 2.462-2.907zM150.906 0c1.407 0 2.462 1.246 2.462 2.907s-1.055 2.907-2.462 2.907c-1.407 0-2.463-1.246-2.463-2.907S149.499 0 150.906 0zm110.099 88.455c1.407 0 2.463 1.245 2.463 2.907 0 1.66-1.056 2.907-2.463 2.907s-2.462-1.246-2.462-2.907c-.352-1.662 1.055-2.907 2.462-2.907zm8.443 110.048c1.407 0 2.462 1.246 2.462 2.907s-1.055 2.907-2.462 2.907c-1.407 0-2.463-1.246-2.463-2.907 0-1.245 1.056-2.907 2.463-2.907zM26.733 238.37c1.407 0 2.462 1.245 2.462 2.907 0 1.661-1.055 2.906-2.462 2.906-1.407 0-2.463-1.245-2.463-2.906 0-1.246 1.056-2.907 2.463-2.907zm122.061-53.986c1.407 0 2.463 1.246 2.463 2.907s-1.056 2.907-2.463 2.907-2.462-1.246-2.462-2.907 1.055-2.907 2.462-2.907zm127.688-56.894c1.407 0 2.462 1.246 2.462 2.907s-1.055 2.907-2.462 2.907c-1.407 0-2.462-1.246-2.462-2.907 0-1.246 1.055-2.907 2.462-2.907zm-24.975 76.827c1.407 0 2.463 1.246 2.463 2.907s-1.056 2.907-2.463 2.907-2.462-1.246-2.462-2.907 1.055-2.907 2.462-2.907zm-1.759 29.069c1.407 0 2.463 1.246 2.463 2.907s-1.056 2.907-2.463 2.907-2.462-1.246-2.462-2.907c-.352-1.661 1.055-2.907 2.462-2.907zM223.367 73.92c1.407 0 2.462 1.246 2.462 2.907s-1.055 2.907-2.462 2.907c-1.407 0-2.463-1.246-2.463-2.907s1.056-2.907 2.463-2.907zm-78.442 134.965c1.407 0 2.463 1.246 2.463 2.907s-1.056 2.907-2.463 2.907-2.462-1.246-2.462-2.907 1.055-2.907 2.462-2.907z"/></g><defs><clipPath id="clip0"><path fill="#fff" d="M0 0h280v322.671H0z"/></clipPath></defs></svg>