<svg width="35" height="35" fill="none" xmlns="http://www.w3.org/2000/svg"><g clip-path="url(#clip0)"><path d="M15.14.45C7.489 1.302 1.275 7.376.269 15.01c-1.426 10.815 7.416 20.017 18.126 19.204 3.94-.3 7.628-2.06 10.518-4.755l.248-.231a.707.707 0 00.035-.999l-.965-1.034a.707.707 0 00-.999-.035l-.517.482c-3.214 2.997-7.626 4.345-12.077 3.587C8.33 30.155 3.48 24.8 2.988 18.42 2.335 9.982 9.141 2.93 17.497 3.174c7.704.224 13.715 6.799 13.715 14.507v1.035a2.83 2.83 0 01-3.109 2.813c-1.468-.143-2.545-1.463-2.545-2.939v-6.235a.707.707 0 00-.706-.707h-1.414a.703.703 0 00-.637.412 7.746 7.746 0 00-5.723-2.532c-4.287 0-7.774 3.488-7.774 7.774 0 4.287 3.487 7.774 7.774 7.774a7.77 7.77 0 006.475-3.48c1.05 1.753 3 2.91 5.22 2.76 3.001-.2 5.266-2.832 5.266-5.84v-1.214C34.04 7.311 25.356-.69 15.14.45zm1.939 21.8a4.953 4.953 0 01-4.947-4.948 4.953 4.953 0 014.947-4.947 4.953 4.953 0 014.947 4.947 4.953 4.953 0 01-4.947 4.947z" fill="#F5D061"/></g><defs><clipPath id="clip0"><path fill="#fff" transform="translate(.117 .34)" d="M0 0h33.923v33.923H0z"/></clipPath></defs></svg>