<svg width="16" height="15" xmlns="http://www.w3.org/2000/svg"><path d="M7.92 4.763a2.37 2.37 0 00-2.364 2.364A2.37 2.37 0 007.92 9.49a2.37 2.37 0 002.364-2.364A2.37 2.37 0 007.92 4.763zm7.09 2.364c0-.98.01-1.95-.045-2.926-.055-1.136-.314-2.143-1.144-2.973C12.989.396 11.983.14 10.848.084 9.87.03 8.9.038 7.922.038c-.979 0-1.949-.009-2.926.046C3.86.14 2.854.398 2.024 1.228 1.192 2.06.934 3.065.88 4.201.825 5.18.834 6.15.834 7.127c0 .977-.01 1.949.046 2.926.055 1.135.314 2.142 1.144 2.972.831.832 1.837 1.09 2.972 1.144.979.055 1.949.046 2.926.046.98 0 1.95.01 2.926-.046 1.135-.055 2.143-.314 2.973-1.144.832-.831 1.089-1.837 1.144-2.972.056-.977.046-1.947.046-2.926zm-7.09 3.637a3.632 3.632 0 01-3.637-3.637A3.632 3.632 0 017.92 3.489a3.632 3.632 0 013.638 3.638 3.632 3.632 0 01-3.638 3.637zm3.787-6.574a.848.848 0 110-1.7.849.849 0 110 1.7z"/></svg>