<svg width="35" height="35" fill="none" xmlns="http://www.w3.org/2000/svg"><path d="M34.024 27.02c.072.55-.096 1.03-.503 1.436l-4.776 4.74c-.216.24-.497.444-.844.611a3.487 3.487 0 01-1.023.323 3.49 3.49 0 00-.216.018 4.87 4.87 0 01-.467.018c-.455 0-1.19-.077-2.208-.233-1.018-.156-2.263-.539-3.735-1.15-1.473-.61-3.142-1.526-5.01-2.747-1.867-1.22-3.854-2.896-5.961-5.027-1.676-1.652-3.065-3.232-4.166-4.74-1.101-1.509-1.987-2.903-2.658-4.184-.67-1.281-1.173-2.442-1.508-3.484C.614 11.56.387 10.662.267 9.908S.099 8.56.123 8.13c.024-.43.036-.67.036-.718A3.49 3.49 0 01.482 6.39c.168-.348.371-.629.61-.844L5.87.768c.335-.335.718-.502 1.15-.502.31 0 .586.09.825.269.24.18.443.401.61.664l3.843 7.29c.216.383.276.802.18 1.257-.096.455-.3.838-.61 1.15l-1.76 1.76a.6.6 0 00-.126.233.887.887 0 00-.054.269c.096.503.311 1.077.646 1.724.288.574.73 1.275 1.33 2.1.598.826 1.448 1.778 2.549 2.855 1.077 1.102 2.035 1.958 2.873 2.568.838.61 1.538 1.06 2.1 1.347.563.287.994.46 1.294.52l.448.09a.858.858 0 00.234-.053.6.6 0 00.233-.126l2.047-2.083a2.2 2.2 0 011.509-.575c.407 0 .73.072.97.216h.035l6.931 4.094c.503.311.802.706.898 1.185z" fill="#F5D061"/></svg>