<svg width="35" height="35" fill="none" xmlns="http://www.w3.org/2000/svg"><path d="M29.072 22.12a16.895 16.895 0 00-6.445-4.043 9.802 9.802 0 004.258-8.08c0-5.408-4.4-9.807-9.806-9.807-5.407 0-9.806 4.4-9.806 9.806a9.801 9.801 0 004.258 8.081 16.895 16.895 0 00-6.446 4.043A16.85 16.85 0 00.117 34.113h2.65c0-7.89 6.42-14.31 14.312-14.31 7.89 0 14.31 6.42 14.31 14.31h2.651c0-4.53-1.764-8.79-4.968-11.993zM17.08 17.152a7.164 7.164 0 01-7.156-7.156c0-3.945 3.21-7.155 7.156-7.155 3.945 0 7.155 3.21 7.155 7.155 0 3.946-3.21 7.156-7.155 7.156z" fill="#F5D061"/></svg>