<svg width="19" height="19" xmlns="http://www.w3.org/2000/svg"><path d="M18.223 6.2c.121-.415 0-.718-.575-.718h-1.905c-.485 0-.706.263-.828.55 0 0-.968 2.421-2.34 3.99-.443.457-.646.601-.887.601-.12 0-.296-.144-.296-.558V6.199c0-.496-.14-.717-.544-.717H7.855a.464.464 0 00-.485.449c0 .47.687.578.757 1.903v2.873c0 .629-.11.744-.354.744-.645 0-2.215-2.43-3.147-5.21-.182-.54-.365-.758-.851-.758H1.87c-.545 0-.653.262-.653.55 0 .519.645 3.082 3.006 6.472 1.574 2.316 3.79 3.57 5.808 3.57 1.21 0 1.359-.278 1.359-.759v-1.75c0-.557.115-.669.498-.669.282 0 .766.146 1.896 1.261 1.291 1.323 1.505 1.917 2.23 1.917h1.904c.543 0 .815-.279.659-.829-.171-.547-.788-1.344-1.606-2.287-.445-.537-1.11-1.116-1.312-1.405-.282-.373-.2-.538 0-.869.001.001 2.321-3.347 2.563-4.486z"/></svg>