<svg width="47" height="23" fill="none" xmlns="http://www.w3.org/2000/svg"><path d="M23.285 10.46l-.064-1.594.064 1.595zM1.203 7.229A1.582 1.582 0 00.611 9.4l7.17 12.536a1.615 1.615 0 002.186.614 1.582 1.582 0 00.592-2.171L4.186 9.235l11.111-6.23A1.582 1.582 0 0015.89.833a1.615 1.615 0 00-2.186-.614l-12.5 7.009zm44.09-4.917a242.279 242.279 0 01-1.078-1.192l-.012.011a13.2 13.2 0 01-.327.273c-.24.196-.607.482-1.09.83a34.57 34.57 0 01-4.24 2.59c-3.68 1.911-8.946 3.858-15.325 4.043l.128 3.19c6.98-.202 12.718-2.33 16.702-4.398a37.723 37.723 0 004.628-2.83c.537-.387.95-.71 1.235-.94a16.527 16.527 0 00.418-.351l.026-.023.009-.007.002-.003.002-.001-1.078-1.192zM23.22 8.866c-6.58.19-11.812-.263-15.383-.76a58.286 58.286 0 01-4.072-.704 32.34 32.34 0 01-1.349-.317h.001L2 8.62a281.803 281.803 0 00-.418 1.535h.001l.003.001.007.002.023.007a11.255 11.255 0 00.38.098c.26.064.64.154 1.133.259.988.21 2.434.483 4.3.743 3.731.52 9.143.986 15.92.79l-.128-3.19z" fill="#F5D061"/></svg>