<svg width="108" height="53" fill="none" xmlns="http://www.w3.org/2000/svg"><path d="M53.389 24.39l.149 3.712-.15-3.713zM1.996 16.863C.21 17.866-.407 20.128.618 21.92l16.687 29.175c1.024 1.79 3.302 2.43 5.087 1.429 1.785-1.001 2.402-3.264 1.378-5.054L8.937 21.535l25.86-14.5c1.786-1 2.403-3.263 1.379-5.053s-3.302-2.43-5.087-1.43L1.996 16.865zM104.607 5.422c-2.51-2.772-2.509-2.773-2.509-2.774h.002l.001-.002-.003.003-.028.024-.141.122c-.132.113-.339.287-.619.514a54.773 54.773 0 01-2.537 1.93c-2.251 1.621-5.588 3.81-9.866 6.03-8.566 4.447-20.822 8.978-35.667 9.408l.298 7.425c16.246-.471 29.598-5.424 38.869-10.236 4.64-2.409 8.279-4.793 10.773-6.588a62.468 62.468 0 002.873-2.188 38.363 38.363 0 001.034-.869l.019-.017.007-.006.003-.002c.001-.001.002-.002-2.509-2.774zM53.24 20.677c-15.317.443-27.492-.613-35.804-1.77-4.155-.579-7.345-1.182-9.477-1.637a75.103 75.103 0 01-2.394-.547 37.192 37.192 0 01-.74-.19l-.004-.002h.002c.001.001.002.001-.973 3.575a653.288 653.288 0 00-.973 3.574l.003.001.006.002a.857.857 0 00.071.02l.189.05c.162.043.394.103.696.178.604.15 1.487.358 2.636.602 2.298.49 5.664 1.126 10.006 1.73 8.685 1.21 21.28 2.295 37.054 1.838l-.298-7.424z" fill="#F5D061"/></svg>