<svg width="294" height="226" fill="none" xmlns="http://www.w3.org/2000/svg"><path d="M176.945 225.553h87.754c16.132 0 29.252-12.613 29.252-28.124V98.993c0-3.73-1.541-7.306-4.284-9.943-2.743-2.638-6.463-4.12-10.342-4.12h-44.974c.307-7.058 2.514-13.919 6.406-19.911 7.459-11.124 21.397-18.703 41.435-22.556l11.759-2.264V.557h-14.626c-40.703 0-71.754 10.842-92.273 32.23-27.599 28.8-24.82 65.784-24.689 67.345l-.043 41.048v70.311c0 3.73 1.54 7.307 4.283 9.944 2.743 2.637 6.463 4.118 10.342 4.118zM24.84 32.786C45.36 11.398 76.41.556 117.115.556h14.626v39.641l-11.759 2.264c-20.038 3.853-33.976 11.433-41.435 22.556-3.892 5.992-6.1 12.854-6.406 19.912h44.974c3.879 0 7.599 1.482 10.342 4.119 2.743 2.637 4.284 6.214 4.284 9.943v98.436c0 15.511-13.12 28.124-29.252 28.124H14.734c-3.879 0-7.599-1.481-10.342-4.118C1.65 218.796.11 215.219.11 211.489v-70.311l.043-41.048c-.131-1.56-2.91-38.544 24.689-67.344z" fill="#F5D061"/></svg>