<svg width="141" height="108" fill="none" xmlns="http://www.w3.org/2000/svg"><path d="M84.81 107.385h41.684c7.663 0 13.895-5.991 13.895-13.36V47.268c0-1.772-.732-3.47-2.035-4.724a7.09 7.09 0 00-4.912-1.956h-21.364a18.87 18.87 0 013.043-9.459c3.544-5.283 10.165-8.884 19.683-10.714l5.585-1.076V.508h-6.947c-19.335 0-34.085 5.15-43.832 15.31-13.11 13.68-11.79 31.248-11.727 31.99l-.021 19.498v33.4c0 1.771.732 3.47 2.035 4.723a7.09 7.09 0 004.912 1.956zM12.556 15.818C22.304 5.658 37.053.508 56.389.508h6.948v18.83l-5.586 1.075c-9.518 1.83-16.14 5.43-19.682 10.715a18.86 18.86 0 00-3.043 9.458h21.363a7.09 7.09 0 014.913 1.957 6.552 6.552 0 012.035 4.723v46.759c0 7.368-6.232 13.36-13.895 13.36H7.756a7.09 7.09 0 01-4.913-1.957 6.553 6.553 0 01-2.035-4.723v-33.4L.83 47.808c-.062-.741-1.382-18.31 11.727-31.99z" fill="#F5D061"/></svg>