<svg width="213" height="205" fill="none" xmlns="http://www.w3.org/2000/svg"><g clip-path="url(#clip0)" fill="#E8E9ED"><path d="M213 1.316C213 .658 212.343 0 211.687 0c-.657 0-1.314.658-1.314 1.316s.657 1.317 1.314 1.317c.875.22 1.313-.44 1.313-1.317zm0 15.578c0-.659-.657-1.317-1.313-1.317-.657 0-1.314.658-1.314 1.317 0 .658.657 1.316 1.314 1.316.875 0 1.313-.658 1.313-1.316zm0 15.577c0-.658-.657-1.316-1.313-1.316-.657 0-1.314.658-1.314 1.316s.657 1.317 1.314 1.317c.875 0 1.313-.659 1.313-1.317zm0 15.359c0-.66-.657-1.317-1.313-1.317-.657 0-1.314.658-1.314 1.316s.657 1.316 1.314 1.316c.875.22 1.313-.438 1.313-1.316zm0 15.576c0-.658-.657-1.316-1.313-1.316-.657 0-1.314.658-1.314 1.316s.657 1.317 1.314 1.317c.875 0 1.313-.44 1.313-1.317zm0 15.578c0-.659-.657-1.317-1.313-1.317-.657 0-1.314.658-1.314 1.317 0 .658.657 1.316 1.314 1.316.875 0 1.313-.658 1.313-1.316zm0 15.358c0-.659-.657-1.317-1.313-1.317-.657 0-1.314.658-1.314 1.317 0 .658.657 1.316 1.314 1.316.875.22 1.313-.439 1.313-1.316zm0 15.577c0-.658-.657-1.316-1.313-1.316-.657 0-1.314.658-1.314 1.316s.657 1.316 1.314 1.316c.875 0 1.313-.438 1.313-1.316zm0 15.577c0-.658-.657-1.316-1.313-1.316-.657 0-1.314.658-1.314 1.316 0 .659.657 1.317 1.314 1.317.875 0 1.313-.658 1.313-1.317zm0 15.577c0-.658-.657-1.316-1.313-1.316-.657 0-1.314.658-1.314 1.316 0 .659.657 1.317 1.314 1.317.875 0 1.313-.658 1.313-1.317zm0 15.359c0-.659-.657-1.317-1.313-1.317-.657 0-1.314.658-1.314 1.317 0 .658.657 1.316 1.314 1.316.875 0 1.313-.439 1.313-1.316zm0 15.577c0-.658-.657-1.316-1.313-1.316-.657 0-1.314.658-1.314 1.316s.657 1.317 1.314 1.317c.875 0 1.313-.659 1.313-1.317zm0 15.577c0-.658-.657-1.316-1.313-1.316-.657 0-1.314.658-1.314 1.316s.657 1.316 1.314 1.316c.875 0 1.313-.658 1.313-1.316zm-2.627 15.358c0 .658.657 1.316 1.314 1.316.656 0 1.313-.658 1.313-1.316s-.657-1.317-1.313-1.317c-.657 0-1.314.659-1.314 1.317zM197.674 1.316c0-.658-.657-1.316-1.313-1.316-.657 0-1.314.658-1.314 1.316s.657 1.317 1.314 1.317c.656.22 1.313-.44 1.313-1.317zm0 15.578c0-.659-.657-1.317-1.313-1.317-.657 0-1.314.658-1.314 1.317 0 .658.657 1.316 1.314 1.316.656 0 1.313-.658 1.313-1.316zm0 15.577c0-.658-.657-1.316-1.313-1.316-.657 0-1.314.658-1.314 1.316s.657 1.317 1.314 1.317c.656 0 1.313-.659 1.313-1.317zm0 15.359c0-.66-.657-1.317-1.313-1.317-.657 0-1.314.658-1.314 1.316s.657 1.316 1.314 1.316c.656.22 1.313-.438 1.313-1.316zm0 15.576c0-.658-.657-1.316-1.313-1.316-.657 0-1.314.658-1.314 1.316s.657 1.317 1.314 1.317c.656 0 1.313-.44 1.313-1.317zm0 15.578c0-.659-.657-1.317-1.313-1.317-.657 0-1.314.658-1.314 1.317 0 .658.657 1.316 1.314 1.316.656 0 1.313-.658 1.313-1.316zm0 15.358c0-.659-.657-1.317-1.313-1.317-.657 0-1.314.658-1.314 1.317 0 .658.657 1.316 1.314 1.316.656.22 1.313-.439 1.313-1.316zm0 15.577c0-.658-.657-1.316-1.313-1.316-.657 0-1.314.658-1.314 1.316s.657 1.316 1.314 1.316c.656 0 1.313-.438 1.313-1.316zm0 15.577c0-.658-.657-1.316-1.313-1.316-.657 0-1.314.658-1.314 1.316 0 .659.657 1.317 1.314 1.317.656 0 1.313-.658 1.313-1.317zm0 15.577c0-.658-.657-1.316-1.313-1.316-.657 0-1.314.658-1.314 1.316 0 .659.657 1.317 1.314 1.317.656 0 1.313-.658 1.313-1.317zm0 15.359c0-.659-.657-1.317-1.313-1.317-.657 0-1.314.658-1.314 1.317 0 .658.657 1.316 1.314 1.316.656 0 1.313-.439 1.313-1.316zm0 15.577c0-.658-.657-1.316-1.313-1.316-.657 0-1.314.658-1.314 1.316s.657 1.317 1.314 1.317c.656 0 1.313-.659 1.313-1.317zm0 15.577c0-.658-.657-1.316-1.313-1.316-.657 0-1.314.658-1.314 1.316s.657 1.316 1.314 1.316c.656 0 1.313-.658 1.313-1.316zm0 15.358c0-.658-.657-1.317-1.313-1.317-.657 0-1.314.659-1.314 1.317 0 .658.657 1.316 1.314 1.316.656.22 1.313-.439 1.313-1.316zM182.129 1.316c0-.658-.657-1.316-1.313-1.316-.657 0-1.314.658-1.314 1.316s.657 1.317 1.314 1.317c.656.22 1.313-.44 1.313-1.317zm0 15.578c0-.659-.657-1.317-1.313-1.317-.657 0-1.314.658-1.314 1.317 0 .658.657 1.316 1.314 1.316.656 0 1.313-.658 1.313-1.316zm0 15.577c0-.658-.657-1.316-1.313-1.316-.657 0-1.314.658-1.314 1.316s.657 1.317 1.314 1.317c.656 0 1.313-.659 1.313-1.317zm0 15.359c0-.66-.657-1.317-1.313-1.317-.657 0-1.314.658-1.314 1.316s.657 1.316 1.314 1.316c.656.22 1.313-.438 1.313-1.316zm0 15.576c0-.658-.657-1.316-1.313-1.316-.657 0-1.314.658-1.314 1.316s.657 1.317 1.314 1.317c.656 0 1.313-.44 1.313-1.317zm0 15.578c0-.659-.657-1.317-1.313-1.317-.657 0-1.314.658-1.314 1.317 0 .658.657 1.316 1.314 1.316.656 0 1.313-.658 1.313-1.316zm0 15.358c0-.659-.657-1.317-1.313-1.317-.657 0-1.314.658-1.314 1.317 0 .658.657 1.316 1.314 1.316.656.22 1.313-.439 1.313-1.316zm0 15.577c0-.658-.657-1.316-1.313-1.316-.657 0-1.314.658-1.314 1.316s.657 1.316 1.314 1.316c.656 0 1.313-.438 1.313-1.316zm0 15.577c0-.658-.657-1.316-1.313-1.316-.657 0-1.314.658-1.314 1.316 0 .659.657 1.317 1.314 1.317.656 0 1.313-.658 1.313-1.317zm0 15.577c0-.658-.657-1.316-1.313-1.316-.657 0-1.314.658-1.314 1.316 0 .659.657 1.317 1.314 1.317.656 0 1.313-.658 1.313-1.317zm0 15.359c0-.659-.657-1.317-1.313-1.317-.657 0-1.314.658-1.314 1.317 0 .658.657 1.316 1.314 1.316.656 0 1.313-.439 1.313-1.316zm0 15.577c0-.658-.657-1.316-1.313-1.316-.657 0-1.314.658-1.314 1.316s.657 1.317 1.314 1.317c.656 0 1.313-.659 1.313-1.317zm0 15.577c0-.658-.657-1.316-1.313-1.316-.657 0-1.314.658-1.314 1.316s.657 1.316 1.314 1.316c.656 0 1.313-.658 1.313-1.316zm0 15.358c0-.658-.657-1.317-1.313-1.317-.657 0-1.314.659-1.314 1.317 0 .658.657 1.316 1.314 1.316.656.22 1.313-.439 1.313-1.316zM166.584 1.316c0-.658-.656-1.316-1.313-1.316-.657 0-1.314.658-1.314 1.316s.657 1.317 1.314 1.317c.657.22 1.313-.44 1.313-1.317zm0 15.578c0-.659-.656-1.317-1.313-1.317-.657 0-1.314.658-1.314 1.317 0 .658.657 1.316 1.314 1.316s1.313-.658 1.313-1.316zm0 15.577c0-.658-.656-1.316-1.313-1.316-.657 0-1.314.658-1.314 1.316s.657 1.317 1.314 1.317 1.313-.659 1.313-1.317zm0 15.359c0-.66-.656-1.317-1.313-1.317-.657 0-1.314.658-1.314 1.316s.657 1.316 1.314 1.316c.657.22 1.313-.438 1.313-1.316zm0 15.576c0-.658-.656-1.316-1.313-1.316-.657 0-1.314.658-1.314 1.316s.657 1.317 1.314 1.317 1.313-.44 1.313-1.317zm0 15.578c0-.659-.656-1.317-1.313-1.317-.657 0-1.314.658-1.314 1.317 0 .658.657 1.316 1.314 1.316s1.313-.658 1.313-1.316zm0 15.358c0-.659-.656-1.317-1.313-1.317-.657 0-1.314.658-1.314 1.317 0 .658.657 1.316 1.314 1.316.657.22 1.313-.439 1.313-1.316zm0 15.577c0-.658-.656-1.316-1.313-1.316-.657 0-1.314.658-1.314 1.316s.657 1.316 1.314 1.316 1.313-.438 1.313-1.316zm0 15.577c0-.658-.656-1.316-1.313-1.316-.657 0-1.314.658-1.314 1.316 0 .659.657 1.317 1.314 1.317s1.313-.658 1.313-1.317zm0 15.577c0-.658-.656-1.316-1.313-1.316-.657 0-1.314.658-1.314 1.316 0 .659.657 1.317 1.314 1.317s1.313-.658 1.313-1.317zm0 15.359c0-.659-.656-1.317-1.313-1.317-.657 0-1.314.658-1.314 1.317 0 .658.657 1.316 1.314 1.316s1.313-.439 1.313-1.316zm0 15.577c0-.658-.656-1.316-1.313-1.316-.657 0-1.314.658-1.314 1.316s.657 1.317 1.314 1.317 1.313-.659 1.313-1.317zm0 15.577c0-.658-.656-1.316-1.313-1.316-.657 0-1.314.658-1.314 1.316s.657 1.316 1.314 1.316 1.313-.658 1.313-1.316zm0 15.358c0-.658-.656-1.317-1.313-1.317-.657 0-1.314.659-1.314 1.317 0 .658.657 1.316 1.314 1.316.657.22 1.313-.439 1.313-1.316zM151.258 1.316c0-.658-.657-1.316-1.313-1.316-.657 0-1.314.658-1.314 1.316s.657 1.317 1.314 1.317c.656.22 1.313-.44 1.313-1.317zm0 15.578c0-.659-.657-1.317-1.313-1.317-.657 0-1.314.658-1.314 1.317 0 .658.657 1.316 1.314 1.316.656 0 1.313-.658 1.313-1.316zm0 15.577c0-.658-.657-1.316-1.313-1.316-.657 0-1.314.658-1.314 1.316s.657 1.317 1.314 1.317c.656 0 1.313-.659 1.313-1.317zm0 15.359c0-.66-.657-1.317-1.313-1.317-.657 0-1.314.658-1.314 1.316s.657 1.316 1.314 1.316c.656.22 1.313-.438 1.313-1.316zm0 15.576c0-.658-.657-1.316-1.313-1.316-.657 0-1.314.658-1.314 1.316s.657 1.317 1.314 1.317c.656 0 1.313-.44 1.313-1.317zm0 15.578c0-.659-.657-1.317-1.313-1.317-.657 0-1.314.658-1.314 1.317 0 .658.657 1.316 1.314 1.316.656 0 1.313-.658 1.313-1.316zm0 15.358c0-.659-.657-1.317-1.313-1.317-.657 0-1.314.658-1.314 1.317 0 .658.657 1.316 1.314 1.316.656.22 1.313-.439 1.313-1.316zm0 15.577c0-.658-.657-1.316-1.313-1.316-.657 0-1.314.658-1.314 1.316s.657 1.316 1.314 1.316c.656 0 1.313-.438 1.313-1.316zm0 15.577c0-.658-.657-1.316-1.313-1.316-.657 0-1.314.658-1.314 1.316 0 .659.657 1.317 1.314 1.317.656 0 1.313-.658 1.313-1.317zm0 15.577c0-.658-.657-1.316-1.313-1.316-.657 0-1.314.658-1.314 1.316 0 .659.657 1.317 1.314 1.317.656 0 1.313-.658 1.313-1.317zm0 15.359c0-.659-.657-1.317-1.313-1.317-.657 0-1.314.658-1.314 1.317 0 .658.657 1.316 1.314 1.316.656 0 1.313-.439 1.313-1.316zm0 15.577c0-.658-.657-1.316-1.313-1.316-.657 0-1.314.658-1.314 1.316s.657 1.317 1.314 1.317c.656 0 1.313-.659 1.313-1.317zm0 15.577c0-.658-.657-1.316-1.313-1.316-.657 0-1.314.658-1.314 1.316s.657 1.316 1.314 1.316c.656 0 1.313-.658 1.313-1.316zm0 15.358c0-.658-.657-1.317-1.313-1.317-.657 0-1.314.659-1.314 1.317 0 .658.657 1.316 1.314 1.316.656.22 1.313-.439 1.313-1.316zM135.713 1.316c0-.658-.657-1.316-1.313-1.316-.657 0-1.314.658-1.314 1.316s.657 1.317 1.314 1.317c.656.22 1.313-.44 1.313-1.317zm0 15.578c0-.659-.657-1.317-1.313-1.317-.657 0-1.314.658-1.314 1.317 0 .658.657 1.316 1.314 1.316.656 0 1.313-.658 1.313-1.316zm0 15.577c0-.658-.657-1.316-1.313-1.316-.657 0-1.314.658-1.314 1.316s.657 1.317 1.314 1.317c.656 0 1.313-.659 1.313-1.317zm0 15.359c0-.66-.657-1.317-1.313-1.317-.657 0-1.314.658-1.314 1.316s.657 1.316 1.314 1.316c.656.22 1.313-.438 1.313-1.316zm0 15.576c0-.658-.657-1.316-1.313-1.316-.657 0-1.314.658-1.314 1.316s.657 1.317 1.314 1.317c.656 0 1.313-.44 1.313-1.317zm0 15.578c0-.659-.657-1.317-1.313-1.317-.657 0-1.314.658-1.314 1.317 0 .658.657 1.316 1.314 1.316.656 0 1.313-.658 1.313-1.316zm0 15.358c0-.659-.657-1.317-1.313-1.317-.657 0-1.314.658-1.314 1.317 0 .658.657 1.316 1.314 1.316.656.22 1.313-.439 1.313-1.316zm0 15.577c0-.658-.657-1.316-1.313-1.316-.657 0-1.314.658-1.314 1.316s.657 1.316 1.314 1.316c.656 0 1.313-.438 1.313-1.316zm0 15.577c0-.658-.657-1.316-1.313-1.316-.657 0-1.314.658-1.314 1.316 0 .659.657 1.317 1.314 1.317.656 0 1.313-.658 1.313-1.317zm0 15.577c0-.658-.657-1.316-1.313-1.316-.657 0-1.314.658-1.314 1.316 0 .659.657 1.317 1.314 1.317.656 0 1.313-.658 1.313-1.317zm0 15.359c0-.659-.657-1.317-1.313-1.317-.657 0-1.314.658-1.314 1.317 0 .658.657 1.316 1.314 1.316.656 0 1.313-.439 1.313-1.316zm0 15.577c0-.658-.657-1.316-1.313-1.316-.657 0-1.314.658-1.314 1.316s.657 1.317 1.314 1.317c.656 0 1.313-.659 1.313-1.317zm0 15.577c0-.658-.657-1.316-1.313-1.316-.657 0-1.314.658-1.314 1.316s.657 1.316 1.314 1.316c.656 0 1.313-.658 1.313-1.316zm0 15.358c0-.658-.657-1.317-1.313-1.317-.657 0-1.314.659-1.314 1.317 0 .658.657 1.316 1.314 1.316.656.22 1.313-.439 1.313-1.316zM120.169 1.316c0-.658-.657-1.316-1.313-1.316-.657 0-1.314.658-1.314 1.316s.657 1.317 1.314 1.317c.656.22 1.313-.44 1.313-1.317zm0 15.578c0-.659-.657-1.317-1.313-1.317-.657 0-1.314.658-1.314 1.317 0 .658.657 1.316 1.314 1.316.656 0 1.313-.658 1.313-1.316zm0 15.577c0-.658-.657-1.316-1.313-1.316-.657 0-1.314.658-1.314 1.316s.657 1.317 1.314 1.317c.656 0 1.313-.659 1.313-1.317zm0 15.359c0-.66-.657-1.317-1.313-1.317-.657 0-1.314.658-1.314 1.316s.657 1.316 1.314 1.316c.656.22 1.313-.438 1.313-1.316zm0 15.576c0-.658-.657-1.316-1.313-1.316-.657 0-1.314.658-1.314 1.316s.657 1.317 1.314 1.317c.656 0 1.313-.44 1.313-1.317zm0 15.578c0-.659-.657-1.317-1.313-1.317-.657 0-1.314.658-1.314 1.317 0 .658.657 1.316 1.314 1.316.656 0 1.313-.658 1.313-1.316zm0 15.358c0-.659-.657-1.317-1.313-1.317-.657 0-1.314.658-1.314 1.317 0 .658.657 1.316 1.314 1.316.656.22 1.313-.439 1.313-1.316zm0 15.577c0-.658-.657-1.316-1.313-1.316-.657 0-1.314.658-1.314 1.316s.657 1.316 1.314 1.316c.656 0 1.313-.438 1.313-1.316zm0 15.577c0-.658-.657-1.316-1.313-1.316-.657 0-1.314.658-1.314 1.316 0 .659.657 1.317 1.314 1.317.656 0 1.313-.658 1.313-1.317zm0 15.577c0-.658-.657-1.316-1.313-1.316-.657 0-1.314.658-1.314 1.316 0 .659.657 1.317 1.314 1.317.656 0 1.313-.658 1.313-1.317zm0 15.359c0-.659-.657-1.317-1.313-1.317-.657 0-1.314.658-1.314 1.317 0 .658.657 1.316 1.314 1.316.656 0 1.313-.439 1.313-1.316zm0 15.577c0-.658-.657-1.316-1.313-1.316-.657 0-1.314.658-1.314 1.316s.657 1.317 1.314 1.317c.656 0 1.313-.659 1.313-1.317zm0 15.577c0-.658-.657-1.316-1.313-1.316-.657 0-1.314.658-1.314 1.316s.657 1.316 1.314 1.316c.656 0 1.313-.658 1.313-1.316zm0 15.358c0-.658-.657-1.317-1.313-1.317-.657 0-1.314.659-1.314 1.317 0 .658.657 1.316 1.314 1.316.656.22 1.313-.439 1.313-1.316zM104.843 1.316c0-.658-.657-1.316-1.314-1.316-.656 0-1.313.658-1.313 1.316s.657 1.317 1.313 1.317c.657.22 1.314-.44 1.314-1.317zm0 15.578c0-.659-.657-1.317-1.314-1.317-.656 0-1.313.658-1.313 1.317 0 .658.657 1.316 1.313 1.316.657 0 1.314-.658 1.314-1.316zm0 15.577c0-.658-.657-1.316-1.314-1.316-.656 0-1.313.658-1.313 1.316s.657 1.317 1.313 1.317c.657 0 1.314-.659 1.314-1.317zm0 15.359c0-.66-.657-1.317-1.314-1.317-.656 0-1.313.658-1.313 1.316s.657 1.316 1.313 1.316c.657.22 1.314-.438 1.314-1.316zm0 15.576c0-.658-.657-1.316-1.314-1.316-.656 0-1.313.658-1.313 1.316s.657 1.317 1.313 1.317c.657 0 1.314-.44 1.314-1.317zm0 15.578c0-.659-.657-1.317-1.314-1.317-.656 0-1.313.658-1.313 1.317 0 .658.657 1.316 1.313 1.316.657 0 1.314-.658 1.314-1.316zm0 15.358c0-.659-.657-1.317-1.314-1.317-.656 0-1.313.658-1.313 1.317 0 .658.657 1.316 1.313 1.316.657.22 1.314-.439 1.314-1.316zm0 15.577c0-.658-.657-1.316-1.314-1.316-.656 0-1.313.658-1.313 1.316s.657 1.316 1.313 1.316c.657 0 1.314-.438 1.314-1.316zm0 15.577c0-.658-.657-1.316-1.314-1.316-.656 0-1.313.658-1.313 1.316 0 .659.657 1.317 1.313 1.317.657 0 1.314-.658 1.314-1.317zm0 15.577c0-.658-.657-1.316-1.314-1.316-.656 0-1.313.658-1.313 1.316 0 .659.657 1.317 1.313 1.317.657 0 1.314-.658 1.314-1.317zm-1.531 16.675c.725 0 1.313-.589 1.313-1.316a1.315 1.315 0 10-2.627 0c0 .727.588 1.316 1.314 1.316zm1.531 14.261c0-.658-.657-1.316-1.314-1.316-.656 0-1.313.658-1.313 1.316s.657 1.317 1.313 1.317c.657 0 1.314-.659 1.314-1.317zm0 15.577c0-.658-.657-1.316-1.314-1.316-.656 0-1.313.658-1.313 1.316s.657 1.316 1.313 1.316c.657 0 1.314-.658 1.314-1.316zm0 15.358c0-.658-.657-1.317-1.314-1.317-.656 0-1.313.659-1.313 1.317 0 .658.657 1.316 1.313 1.316.657.22 1.314-.439 1.314-1.316zM89.3 1.316C89.3.658 88.641 0 87.985 0c-.657 0-1.314.658-1.314 1.316s.657 1.317 1.314 1.317c.656.22 1.313-.44 1.313-1.317zm0 15.578c0-.659-.658-1.317-1.314-1.317-.657 0-1.314.658-1.314 1.317 0 .658.657 1.316 1.314 1.316.656 0 1.313-.658 1.313-1.316zm0 15.577c0-.658-.658-1.316-1.314-1.316-.657 0-1.314.658-1.314 1.316s.657 1.317 1.314 1.317c.656 0 1.313-.659 1.313-1.317zm0 15.359c0-.66-.658-1.317-1.314-1.317-.657 0-1.314.658-1.314 1.316s.657 1.316 1.314 1.316c.656.22 1.313-.438 1.313-1.316zm0 15.576c0-.658-.658-1.316-1.314-1.316-.657 0-1.314.658-1.314 1.316s.657 1.317 1.314 1.317c.656 0 1.313-.44 1.313-1.317zm0 15.578c0-.659-.658-1.317-1.314-1.317-.657 0-1.314.658-1.314 1.317 0 .658.657 1.316 1.314 1.316.656 0 1.313-.658 1.313-1.316zm0 15.358c0-.659-.658-1.317-1.314-1.317-.657 0-1.314.658-1.314 1.317 0 .658.657 1.316 1.314 1.316.656.22 1.313-.439 1.313-1.316zm0 15.577c0-.658-.658-1.316-1.314-1.316-.657 0-1.314.658-1.314 1.316s.657 1.316 1.314 1.316c.656 0 1.313-.438 1.313-1.316zm0 15.577c0-.658-.658-1.316-1.314-1.316-.657 0-1.314.658-1.314 1.316 0 .659.657 1.317 1.314 1.317.656 0 1.313-.658 1.313-1.317zm0 15.577c0-.658-.658-1.316-1.314-1.316-.657 0-1.314.658-1.314 1.316 0 .659.657 1.317 1.314 1.317.656 0 1.313-.658 1.313-1.317zm0 15.359c0-.659-.658-1.317-1.314-1.317-.657 0-1.314.658-1.314 1.317 0 .658.657 1.316 1.314 1.316.656 0 1.313-.439 1.313-1.316zm0 15.577c0-.658-.658-1.316-1.314-1.316-.657 0-1.314.658-1.314 1.316s.657 1.317 1.314 1.317c.656 0 1.313-.659 1.313-1.317zm0 15.577c0-.658-.658-1.316-1.314-1.316-.657 0-1.314.658-1.314 1.316s.657 1.316 1.314 1.316c.656 0 1.313-.658 1.313-1.316zm0 15.358c0-.658-.658-1.317-1.314-1.317-.657 0-1.314.659-1.314 1.317 0 .658.657 1.316 1.314 1.316.656.22 1.313-.439 1.313-1.316zM73.754 1.316C73.754.658 73.097 0 72.441 0c-.657 0-1.314.658-1.314 1.316s.657 1.317 1.314 1.317c.656.22 1.313-.44 1.313-1.317zm0 15.578c0-.659-.657-1.317-1.313-1.317-.657 0-1.314.658-1.314 1.317 0 .658.657 1.316 1.314 1.316.656 0 1.313-.658 1.313-1.316zm0 15.577c0-.658-.657-1.316-1.313-1.316-.657 0-1.314.658-1.314 1.316s.657 1.317 1.314 1.317c.656 0 1.313-.659 1.313-1.317zm0 15.359c0-.66-.657-1.317-1.313-1.317-.657 0-1.314.658-1.314 1.316s.657 1.316 1.314 1.316c.656.22 1.313-.438 1.313-1.316zm0 15.576c0-.658-.657-1.316-1.313-1.316-.657 0-1.314.658-1.314 1.316s.657 1.317 1.314 1.317c.656 0 1.313-.44 1.313-1.317zm0 15.578c0-.659-.657-1.317-1.313-1.317-.657 0-1.314.658-1.314 1.317 0 .658.657 1.316 1.314 1.316.656 0 1.313-.658 1.313-1.316zm0 15.358c0-.659-.657-1.317-1.313-1.317-.657 0-1.314.658-1.314 1.317 0 .658.657 1.316 1.314 1.316.656.22 1.313-.439 1.313-1.316zm0 15.577c0-.658-.657-1.316-1.313-1.316-.657 0-1.314.658-1.314 1.316s.657 1.316 1.314 1.316c.656 0 1.313-.438 1.313-1.316zm0 15.577c0-.658-.657-1.316-1.313-1.316-.657 0-1.314.658-1.314 1.316 0 .659.657 1.317 1.314 1.317.656 0 1.313-.658 1.313-1.317zm0 15.577c0-.658-.657-1.316-1.313-1.316-.657 0-1.314.658-1.314 1.316 0 .659.657 1.317 1.314 1.317.656 0 1.313-.658 1.313-1.317zm0 15.359c0-.659-.657-1.317-1.313-1.317-.657 0-1.314.658-1.314 1.317 0 .658.657 1.316 1.314 1.316.656 0 1.313-.439 1.313-1.316zm0 15.577c0-.658-.657-1.316-1.313-1.316-.657 0-1.314.658-1.314 1.316s.657 1.317 1.314 1.317c.656 0 1.313-.659 1.313-1.317zm0 15.577c0-.658-.657-1.316-1.313-1.316-.657 0-1.314.658-1.314 1.316s.657 1.316 1.314 1.316c.656 0 1.313-.658 1.313-1.316zm0 15.358c0-.658-.657-1.317-1.313-1.317-.657 0-1.314.659-1.314 1.317 0 .658.657 1.316 1.314 1.316.656.22 1.313-.439 1.313-1.316zM58.21 1.316C58.21.658 57.552 0 56.895 0s-1.314.658-1.314 1.316.657 1.317 1.314 1.317 1.313-.44 1.313-1.317zm0 15.578c0-.659-.657-1.317-1.314-1.317s-1.314.658-1.314 1.317c0 .658.657 1.316 1.314 1.316s1.313-.658 1.313-1.316zm0 15.577c0-.658-.657-1.316-1.314-1.316s-1.314.658-1.314 1.316.657 1.317 1.314 1.317 1.313-.659 1.313-1.317zm0 15.359c0-.66-.657-1.317-1.314-1.317s-1.314.658-1.314 1.316.657 1.316 1.314 1.316 1.313-.438 1.313-1.316zm0 15.576c0-.658-.657-1.316-1.314-1.316s-1.314.658-1.314 1.316.657 1.317 1.314 1.317 1.313-.44 1.313-1.317zm0 15.578c0-.659-.657-1.317-1.314-1.317s-1.314.658-1.314 1.317c0 .658.657 1.316 1.314 1.316.875 0 1.313-.658 1.313-1.316zm0 15.358c0-.659-.657-1.317-1.314-1.317s-1.314.658-1.314 1.317c0 .658.657 1.316 1.314 1.316.875.22 1.313-.439 1.313-1.316zm0 15.577c0-.658-.657-1.316-1.314-1.316s-1.314.658-1.314 1.316.657 1.316 1.314 1.316c.875 0 1.313-.438 1.313-1.316zm0 15.577c0-.658-.657-1.316-1.314-1.316s-1.314.658-1.314 1.316c0 .659.657 1.317 1.314 1.317.875 0 1.313-.658 1.313-1.317zm0 15.577c0-.658-.657-1.316-1.314-1.316s-1.314.658-1.314 1.316c0 .659.657 1.317 1.314 1.317.875 0 1.313-.658 1.313-1.317zm0 15.359c0-.659-.657-1.317-1.314-1.317s-1.314.658-1.314 1.317c0 .658.657 1.316 1.314 1.316.875 0 1.313-.439 1.313-1.316zm0 15.577c0-.658-.657-1.316-1.314-1.316s-1.314.658-1.314 1.316.657 1.317 1.314 1.317c.875 0 1.313-.659 1.313-1.317zm0 15.577c0-.658-.657-1.316-1.314-1.316s-1.314.658-1.314 1.316.657 1.316 1.314 1.316c.875 0 1.313-.658 1.313-1.316zm0 15.358c0-.658-.657-1.317-1.314-1.317s-1.314.659-1.314 1.317c0 .658.657 1.316 1.314 1.316.875.22 1.313-.439 1.313-1.316zM42.883 1.316C42.883.658 42.226 0 41.57 0c-.656 0-1.313.658-1.313 1.316s.657 1.317 1.313 1.317c.657.22 1.314-.44 1.314-1.317zm0 15.578c0-.659-.657-1.317-1.314-1.317-.656 0-1.313.658-1.313 1.317 0 .658.657 1.316 1.313 1.316.657 0 1.314-.658 1.314-1.316zm0 15.577c0-.658-.657-1.316-1.314-1.316-.656 0-1.313.658-1.313 1.316s.657 1.317 1.313 1.317c.657 0 1.314-.659 1.314-1.317zm0 15.359c0-.66-.657-1.317-1.314-1.317-.656 0-1.313.658-1.313 1.316s.657 1.316 1.313 1.316c.657.22 1.314-.438 1.314-1.316zm0 15.576c0-.658-.657-1.316-1.314-1.316-.656 0-1.313.658-1.313 1.316s.657 1.317 1.313 1.317c.657 0 1.314-.44 1.314-1.317zm0 15.578c0-.659-.657-1.317-1.314-1.317-.656 0-1.313.658-1.313 1.317 0 .658.657 1.316 1.313 1.316.657 0 1.314-.658 1.314-1.316zm0 15.358c0-.659-.657-1.317-1.314-1.317-.656 0-1.313.658-1.313 1.317 0 .658.657 1.316 1.313 1.316.657.22 1.314-.439 1.314-1.316zm0 15.577c0-.658-.657-1.316-1.314-1.316-.656 0-1.313.658-1.313 1.316s.657 1.316 1.313 1.316c.657 0 1.314-.438 1.314-1.316zm0 15.577c0-.658-.657-1.316-1.314-1.316-.656 0-1.313.658-1.313 1.316 0 .659.657 1.317 1.313 1.317.657 0 1.314-.658 1.314-1.317zm0 15.577c0-.658-.657-1.316-1.314-1.316-.656 0-1.313.658-1.313 1.316 0 .659.657 1.317 1.313 1.317.657 0 1.314-.658 1.314-1.317zm0 15.359c0-.659-.657-1.317-1.314-1.317-.656 0-1.313.658-1.313 1.317 0 .658.657 1.316 1.313 1.316.657 0 1.314-.439 1.314-1.316zm0 15.577c0-.658-.657-1.316-1.314-1.316-.656 0-1.313.658-1.313 1.316s.657 1.317 1.313 1.317c.657 0 1.314-.659 1.314-1.317zm0 15.577c0-.658-.657-1.316-1.314-1.316-.656 0-1.313.658-1.313 1.316s.657 1.316 1.313 1.316c.657 0 1.314-.658 1.314-1.316zm0 15.358c0-.658-.657-1.317-1.314-1.317-.656 0-1.313.659-1.313 1.317 0 .658.657 1.316 1.313 1.316.657.22 1.314-.439 1.314-1.316zM27.338 1.316C27.338.658 26.681 0 26.025 0c-.657 0-1.314.658-1.314 1.316s.657 1.317 1.314 1.317c.656.22 1.313-.44 1.313-1.317zm0 15.578c0-.659-.657-1.317-1.313-1.317-.657 0-1.314.658-1.314 1.317 0 .658.657 1.316 1.314 1.316.656 0 1.313-.658 1.313-1.316zm0 15.577c0-.658-.657-1.316-1.313-1.316-.657 0-1.314.658-1.314 1.316s.657 1.317 1.314 1.317c.656 0 1.313-.659 1.313-1.317zm0 15.359c0-.66-.657-1.317-1.313-1.317-.657 0-1.314.658-1.314 1.316s.657 1.316 1.314 1.316c.656.22 1.313-.438 1.313-1.316zm0 15.576c0-.658-.657-1.316-1.313-1.316-.657 0-1.314.658-1.314 1.316s.657 1.317 1.314 1.317c.656 0 1.313-.44 1.313-1.317zm0 15.578c0-.659-.657-1.317-1.313-1.317-.657 0-1.314.658-1.314 1.317 0 .658.657 1.316 1.314 1.316.656 0 1.313-.658 1.313-1.316zm0 15.358c0-.659-.657-1.317-1.313-1.317-.657 0-1.314.658-1.314 1.317 0 .658.657 1.316 1.314 1.316.656.22 1.313-.439 1.313-1.316zm0 15.577c0-.658-.657-1.316-1.313-1.316-.657 0-1.314.658-1.314 1.316s.657 1.316 1.314 1.316c.656 0 1.313-.438 1.313-1.316zm0 15.577c0-.658-.657-1.316-1.313-1.316-.657 0-1.314.658-1.314 1.316 0 .659.657 1.317 1.314 1.317.656 0 1.313-.658 1.313-1.317zm0 15.577c0-.658-.657-1.316-1.313-1.316-.657 0-1.314.658-1.314 1.316 0 .659.657 1.317 1.314 1.317.656 0 1.313-.658 1.313-1.317zm0 15.359c0-.659-.657-1.317-1.313-1.317-.657 0-1.314.658-1.314 1.317 0 .658.657 1.316 1.314 1.316.656 0 1.313-.439 1.313-1.316zm0 15.577c0-.658-.657-1.316-1.313-1.316-.657 0-1.314.658-1.314 1.316s.657 1.317 1.314 1.317c.656 0 1.313-.659 1.313-1.317zm0 15.577c0-.658-.657-1.316-1.313-1.316-.657 0-1.314.658-1.314 1.316s.657 1.316 1.314 1.316c.656 0 1.313-.658 1.313-1.316zm0 15.358c0-.658-.657-1.317-1.313-1.317-.657 0-1.314.659-1.314 1.317 0 .658.657 1.316 1.314 1.316.656.22 1.313-.439 1.313-1.316zM11.794 1.316C11.794.658 11.137 0 10.481 0c-.657 0-1.314.658-1.314 1.316s.657 1.317 1.314 1.317c.875.22 1.313-.44 1.313-1.317zm0 15.578c0-.659-.657-1.317-1.313-1.317-.657 0-1.314.658-1.314 1.317 0 .658.657 1.316 1.314 1.316.875 0 1.313-.658 1.313-1.316zm0 15.577c0-.658-.657-1.316-1.313-1.316-.657 0-1.314.658-1.314 1.316s.657 1.317 1.314 1.317c.875 0 1.313-.659 1.313-1.317zm0 15.359c0-.66-.657-1.317-1.313-1.317-.657 0-1.314.658-1.314 1.316s.657 1.316 1.314 1.316c.875.22 1.313-.438 1.313-1.316zm0 15.576c0-.658-.657-1.316-1.313-1.316-.657 0-1.314.658-1.314 1.316s.657 1.317 1.314 1.317c.875 0 1.313-.44 1.313-1.317zm0 15.578c0-.659-.657-1.317-1.313-1.317-.657 0-1.314.658-1.314 1.317 0 .658.657 1.316 1.314 1.316.875 0 1.313-.658 1.313-1.316zm0 15.358c0-.659-.657-1.317-1.313-1.317-.657 0-1.314.658-1.314 1.317 0 .658.657 1.316 1.314 1.316.875.22 1.313-.439 1.313-1.316zm0 15.577c0-.658-.657-1.316-1.313-1.316-.657 0-1.314.658-1.314 1.316s.657 1.316 1.314 1.316c.875 0 1.313-.438 1.313-1.316zm0 15.577c0-.658-.657-1.316-1.313-1.316-.657 0-1.314.658-1.314 1.316 0 .659.657 1.317 1.314 1.317.875 0 1.313-.658 1.313-1.317zm0 15.577c0-.658-.657-1.316-1.313-1.316-.657 0-1.314.658-1.314 1.316 0 .659.657 1.317 1.314 1.317.875 0 1.313-.658 1.313-1.317zm0 15.359c0-.659-.657-1.317-1.313-1.317-.657 0-1.314.658-1.314 1.317 0 .658.657 1.316 1.314 1.316.875 0 1.313-.439 1.313-1.316zm0 15.577c0-.658-.657-1.316-1.313-1.316-.657 0-1.314.658-1.314 1.316s.657 1.317 1.314 1.317c.875 0 1.313-.659 1.313-1.317zm0 15.577c0-.658-.657-1.316-1.313-1.316-.657 0-1.314.658-1.314 1.316s.657 1.316 1.314 1.316c.875 0 1.313-.658 1.313-1.316zm0 15.358c0-.658-.657-1.317-1.313-1.317-.657 0-1.314.659-1.314 1.317 0 .658.657 1.316 1.314 1.316.875.22 1.313-.439 1.313-1.316z"/></g><defs><clipPath id="clip0"><path fill="#fff" transform="translate(-254)" d="M0 0h467v204.48H0z"/></clipPath></defs></svg>