<svg width="303" height="314" fill="none" xmlns="http://www.w3.org/2000/svg"><g clip-path="url(#clip0)" fill="#E8E9ED"><path d="M302.92 2.017c0-1.009-1.007-2.018-2.014-2.018s-2.013 1.01-2.013 2.018c0 1.01 1.006 2.018 2.013 2.018 1.343.337 2.014-.672 2.014-2.018zm0 23.881c0-1.01-1.007-2.018-2.014-2.018s-2.013 1.009-2.013 2.018 1.006 2.018 2.013 2.018c1.343 0 2.014-1.01 2.014-2.018zm0 23.88c0-1.009-1.007-2.018-2.014-2.018s-2.013 1.009-2.013 2.018 1.006 2.018 2.013 2.018c1.343 0 2.014-1.009 2.014-2.018zm0 23.543c0-1.009-1.007-2.018-2.014-2.018s-2.013 1.01-2.013 2.018c0 1.01 1.006 2.018 2.013 2.018 1.343.337 2.014-.672 2.014-2.018zm0 23.881c0-1.009-1.007-2.018-2.014-2.018s-2.013 1.009-2.013 2.018c0 1.01 1.006 2.018 2.013 2.018 1.343 0 2.014-.673 2.014-2.018zm0 23.881c0-1.01-1.007-2.019-2.014-2.019s-2.013 1.009-2.013 2.019c0 1.009 1.006 2.018 2.013 2.018 1.343 0 2.014-1.009 2.014-2.018zm0 23.543c0-1.009-1.007-2.018-2.014-2.018s-2.013 1.009-2.013 2.018 1.006 2.018 2.013 2.018c1.343.337 2.014-.672 2.014-2.018zm0 23.881c0-1.009-1.007-2.018-2.014-2.018s-2.013 1.009-2.013 2.018 1.006 2.018 2.013 2.018c1.343 0 2.014-.673 2.014-2.018zm0 23.88c0-1.009-1.007-2.018-2.014-2.018s-2.013 1.009-2.013 2.018 1.006 2.018 2.013 2.018c1.343 0 2.014-1.009 2.014-2.018zm0 23.88c0-1.009-1.007-2.018-2.014-2.018s-2.013 1.009-2.013 2.018 1.006 2.019 2.013 2.019c1.343 0 2.014-1.01 2.014-2.019zm0 23.545c0-1.009-1.007-2.018-2.014-2.018s-2.013 1.009-2.013 2.018 1.006 2.018 2.013 2.018c1.343 0 2.014-.673 2.014-2.018zm0 23.88c0-1.01-1.007-2.019-2.014-2.019s-2.013 1.009-2.013 2.019c0 1.009 1.006 2.018 2.013 2.018 1.343 0 2.014-1.009 2.014-2.018zm0 23.88c0-1.009-1.007-2.018-2.014-2.018s-2.013 1.009-2.013 2.018 1.006 2.018 2.013 2.018c1.343 0 2.014-1.009 2.014-2.018zm-4.027 23.544c0 1.009 1.006 2.018 2.013 2.018s2.014-1.009 2.014-2.018-1.007-2.018-2.014-2.018-2.013 1.009-2.013 2.018zM279.425 2.017c0-1.009-1.007-2.018-2.014-2.018s-2.014 1.01-2.014 2.018c0 1.01 1.007 2.018 2.014 2.018 1.007.337 2.014-.672 2.014-2.018zm0 23.881c0-1.01-1.007-2.018-2.014-2.018s-2.014 1.009-2.014 2.018 1.007 2.018 2.014 2.018 2.014-1.01 2.014-2.018zm0 23.88c0-1.009-1.007-2.018-2.014-2.018s-2.014 1.009-2.014 2.018 1.007 2.018 2.014 2.018 2.014-1.009 2.014-2.018zm0 23.543c0-1.009-1.007-2.018-2.014-2.018s-2.014 1.01-2.014 2.018c0 1.01 1.007 2.018 2.014 2.018 1.007.337 2.014-.672 2.014-2.018zm0 23.881c0-1.009-1.007-2.018-2.014-2.018s-2.014 1.009-2.014 2.018c0 1.01 1.007 2.018 2.014 2.018s2.014-.673 2.014-2.018zm0 23.881c0-1.01-1.007-2.019-2.014-2.019s-2.014 1.009-2.014 2.019c0 1.009 1.007 2.018 2.014 2.018s2.014-1.009 2.014-2.018zm0 23.543c0-1.009-1.007-2.018-2.014-2.018s-2.014 1.009-2.014 2.018 1.007 2.018 2.014 2.018c1.007.337 2.014-.672 2.014-2.018zm0 23.881c0-1.009-1.007-2.018-2.014-2.018s-2.014 1.009-2.014 2.018 1.007 2.018 2.014 2.018 2.014-.673 2.014-2.018zm0 23.88c0-1.009-1.007-2.018-2.014-2.018s-2.014 1.009-2.014 2.018 1.007 2.018 2.014 2.018 2.014-1.009 2.014-2.018zm0 23.88c0-1.009-1.007-2.018-2.014-2.018s-2.014 1.009-2.014 2.018 1.007 2.019 2.014 2.019 2.014-1.01 2.014-2.019zm0 23.545c0-1.009-1.007-2.018-2.014-2.018s-2.014 1.009-2.014 2.018 1.007 2.018 2.014 2.018 2.014-.673 2.014-2.018zm0 23.88c0-1.01-1.007-2.019-2.014-2.019s-2.014 1.009-2.014 2.019c0 1.009 1.007 2.018 2.014 2.018s2.014-1.009 2.014-2.018zm0 23.88c0-1.009-1.007-2.018-2.014-2.018s-2.014 1.009-2.014 2.018 1.007 2.018 2.014 2.018 2.014-1.009 2.014-2.018zm0 23.544c0-1.009-1.007-2.018-2.014-2.018s-2.014 1.009-2.014 2.018 1.007 2.018 2.014 2.018c1.007.336 2.014-.673 2.014-2.018zM255.595 2.017c0-1.009-1.007-2.018-2.014-2.018s-2.014 1.01-2.014 2.018c0 1.01 1.007 2.018 2.014 2.018 1.007.337 2.014-.672 2.014-2.018zm0 23.881c0-1.01-1.007-2.018-2.014-2.018s-2.014 1.009-2.014 2.018 1.007 2.018 2.014 2.018 2.014-1.01 2.014-2.018zm0 23.88c0-1.009-1.007-2.018-2.014-2.018s-2.014 1.009-2.014 2.018 1.007 2.018 2.014 2.018 2.014-1.009 2.014-2.018zm0 23.543c0-1.009-1.007-2.018-2.014-2.018s-2.014 1.01-2.014 2.018c0 1.01 1.007 2.018 2.014 2.018 1.007.337 2.014-.672 2.014-2.018zm0 23.881c0-1.009-1.007-2.018-2.014-2.018s-2.014 1.009-2.014 2.018c0 1.01 1.007 2.018 2.014 2.018s2.014-.673 2.014-2.018zm0 23.881c0-1.01-1.007-2.019-2.014-2.019s-2.014 1.009-2.014 2.019c0 1.009 1.007 2.018 2.014 2.018s2.014-1.009 2.014-2.018zm0 23.543c0-1.009-1.007-2.018-2.014-2.018s-2.014 1.009-2.014 2.018 1.007 2.018 2.014 2.018c1.007.337 2.014-.672 2.014-2.018zm0 23.881c0-1.009-1.007-2.018-2.014-2.018s-2.014 1.009-2.014 2.018 1.007 2.018 2.014 2.018 2.014-.673 2.014-2.018zm0 23.88c0-1.009-1.007-2.018-2.014-2.018s-2.014 1.009-2.014 2.018 1.007 2.018 2.014 2.018 2.014-1.009 2.014-2.018zm0 23.88c0-1.009-1.007-2.018-2.014-2.018s-2.014 1.009-2.014 2.018 1.007 2.019 2.014 2.019 2.014-1.01 2.014-2.019zm0 23.545c0-1.009-1.007-2.018-2.014-2.018s-2.014 1.009-2.014 2.018 1.007 2.018 2.014 2.018 2.014-.673 2.014-2.018zm0 23.88c0-1.01-1.007-2.019-2.014-2.019s-2.014 1.009-2.014 2.019c0 1.009 1.007 2.018 2.014 2.018s2.014-1.009 2.014-2.018zm0 23.88c0-1.009-1.007-2.018-2.014-2.018s-2.014 1.009-2.014 2.018 1.007 2.018 2.014 2.018 2.014-1.009 2.014-2.018zm0 23.544c0-1.009-1.007-2.018-2.014-2.018s-2.014 1.009-2.014 2.018 1.007 2.018 2.014 2.018c1.007.336 2.014-.673 2.014-2.018zM231.764 2.017c0-1.009-1.007-2.018-2.014-2.018s-2.014 1.01-2.014 2.018c0 1.01 1.007 2.018 2.014 2.018 1.007.337 2.014-.672 2.014-2.018zm0 23.881c0-1.01-1.007-2.018-2.014-2.018s-2.014 1.009-2.014 2.018 1.007 2.018 2.014 2.018 2.014-1.01 2.014-2.018zm0 23.88c0-1.009-1.007-2.018-2.014-2.018s-2.014 1.009-2.014 2.018 1.007 2.018 2.014 2.018 2.014-1.009 2.014-2.018zm0 23.543c0-1.009-1.007-2.018-2.014-2.018s-2.014 1.01-2.014 2.018c0 1.01 1.007 2.018 2.014 2.018 1.007.337 2.014-.672 2.014-2.018zm0 23.881c0-1.009-1.007-2.018-2.014-2.018s-2.014 1.009-2.014 2.018c0 1.01 1.007 2.018 2.014 2.018s2.014-.673 2.014-2.018zm0 23.881c0-1.01-1.007-2.019-2.014-2.019s-2.014 1.009-2.014 2.019c0 1.009 1.007 2.018 2.014 2.018s2.014-1.009 2.014-2.018zm0 23.543c0-1.009-1.007-2.018-2.014-2.018s-2.014 1.009-2.014 2.018 1.007 2.018 2.014 2.018c1.007.337 2.014-.672 2.014-2.018zm0 23.881c0-1.009-1.007-2.018-2.014-2.018s-2.014 1.009-2.014 2.018 1.007 2.018 2.014 2.018 2.014-.673 2.014-2.018zm0 23.88c0-1.009-1.007-2.018-2.014-2.018s-2.014 1.009-2.014 2.018 1.007 2.018 2.014 2.018 2.014-1.009 2.014-2.018zm0 23.88c0-1.009-1.007-2.018-2.014-2.018s-2.014 1.009-2.014 2.018 1.007 2.019 2.014 2.019 2.014-1.01 2.014-2.019zm0 23.545c0-1.009-1.007-2.018-2.014-2.018s-2.014 1.009-2.014 2.018 1.007 2.018 2.014 2.018 2.014-.673 2.014-2.018zm0 23.88c0-1.01-1.007-2.019-2.014-2.019s-2.014 1.009-2.014 2.019c0 1.009 1.007 2.018 2.014 2.018s2.014-1.009 2.014-2.018zm0 23.88c0-1.009-1.007-2.018-2.014-2.018s-2.014 1.009-2.014 2.018 1.007 2.018 2.014 2.018 2.014-1.009 2.014-2.018zm0 23.544c0-1.009-1.007-2.018-2.014-2.018s-2.014 1.009-2.014 2.018 1.007 2.018 2.014 2.018c1.007.336 2.014-.673 2.014-2.018zM208.27 2.017c0-1.009-1.007-2.018-2.014-2.018s-2.014 1.01-2.014 2.018c0 1.01 1.007 2.018 2.014 2.018 1.007.337 2.014-.672 2.014-2.018zm0 23.881c0-1.01-1.007-2.018-2.014-2.018s-2.014 1.009-2.014 2.018 1.007 2.018 2.014 2.018 2.014-1.01 2.014-2.018zm0 23.88c0-1.009-1.007-2.018-2.014-2.018s-2.014 1.009-2.014 2.018 1.007 2.018 2.014 2.018 2.014-1.009 2.014-2.018zm0 23.543c0-1.009-1.007-2.018-2.014-2.018s-2.014 1.01-2.014 2.018c0 1.01 1.007 2.018 2.014 2.018 1.007.337 2.014-.672 2.014-2.018zm0 23.881c0-1.009-1.007-2.018-2.014-2.018s-2.014 1.009-2.014 2.018c0 1.01 1.007 2.018 2.014 2.018s2.014-.673 2.014-2.018zm0 23.881c0-1.01-1.007-2.019-2.014-2.019s-2.014 1.009-2.014 2.019c0 1.009 1.007 2.018 2.014 2.018s2.014-1.009 2.014-2.018zm0 23.543c0-1.009-1.007-2.018-2.014-2.018s-2.014 1.009-2.014 2.018 1.007 2.018 2.014 2.018c1.007.337 2.014-.672 2.014-2.018zm0 23.881c0-1.009-1.007-2.018-2.014-2.018s-2.014 1.009-2.014 2.018 1.007 2.018 2.014 2.018 2.014-.673 2.014-2.018zm0 23.88c0-1.009-1.007-2.018-2.014-2.018s-2.014 1.009-2.014 2.018 1.007 2.018 2.014 2.018 2.014-1.009 2.014-2.018zm0 23.88c0-1.009-1.007-2.018-2.014-2.018s-2.014 1.009-2.014 2.018 1.007 2.019 2.014 2.019 2.014-1.01 2.014-2.019zm0 23.545c0-1.009-1.007-2.018-2.014-2.018s-2.014 1.009-2.014 2.018 1.007 2.018 2.014 2.018 2.014-.673 2.014-2.018zm0 23.88c0-1.01-1.007-2.019-2.014-2.019s-2.014 1.009-2.014 2.019c0 1.009 1.007 2.018 2.014 2.018s2.014-1.009 2.014-2.018zm0 23.88c0-1.009-1.007-2.018-2.014-2.018s-2.014 1.009-2.014 2.018 1.007 2.018 2.014 2.018 2.014-1.009 2.014-2.018zm0 23.544c0-1.009-1.007-2.018-2.014-2.018s-2.014 1.009-2.014 2.018 1.007 2.018 2.014 2.018c1.007.336 2.014-.673 2.014-2.018zM184.439 2.017c0-1.009-1.007-2.018-2.014-2.018s-2.014 1.01-2.014 2.018c0 1.01 1.007 2.018 2.014 2.018 1.007.337 2.014-.672 2.014-2.018zm0 23.881c0-1.01-1.007-2.018-2.014-2.018s-2.014 1.009-2.014 2.018 1.007 2.018 2.014 2.018 2.014-1.01 2.014-2.018zm0 23.88c0-1.009-1.007-2.018-2.014-2.018s-2.014 1.009-2.014 2.018 1.007 2.018 2.014 2.018 2.014-1.009 2.014-2.018zm0 23.543c0-1.009-1.007-2.018-2.014-2.018s-2.014 1.01-2.014 2.018c0 1.01 1.007 2.018 2.014 2.018 1.007.337 2.014-.672 2.014-2.018zm0 23.881c0-1.009-1.007-2.018-2.014-2.018s-2.014 1.009-2.014 2.018c0 1.01 1.007 2.018 2.014 2.018s2.014-.673 2.014-2.018zm0 23.881c0-1.01-1.007-2.019-2.014-2.019s-2.014 1.009-2.014 2.019c0 1.009 1.007 2.018 2.014 2.018s2.014-1.009 2.014-2.018zm0 23.543c0-1.009-1.007-2.018-2.014-2.018s-2.014 1.009-2.014 2.018 1.007 2.018 2.014 2.018c1.007.337 2.014-.672 2.014-2.018zm0 23.881c0-1.009-1.007-2.018-2.014-2.018s-2.014 1.009-2.014 2.018 1.007 2.018 2.014 2.018 2.014-.673 2.014-2.018zm0 23.88c0-1.009-1.007-2.018-2.014-2.018s-2.014 1.009-2.014 2.018 1.007 2.018 2.014 2.018 2.014-1.009 2.014-2.018zm0 23.88c0-1.009-1.007-2.018-2.014-2.018s-2.014 1.009-2.014 2.018 1.007 2.019 2.014 2.019 2.014-1.01 2.014-2.019zm0 23.545c0-1.009-1.007-2.018-2.014-2.018s-2.014 1.009-2.014 2.018 1.007 2.018 2.014 2.018 2.014-.673 2.014-2.018zm0 23.88c0-1.01-1.007-2.019-2.014-2.019s-2.014 1.009-2.014 2.019c0 1.009 1.007 2.018 2.014 2.018s2.014-1.009 2.014-2.018zm0 23.88c0-1.009-1.007-2.018-2.014-2.018s-2.014 1.009-2.014 2.018 1.007 2.018 2.014 2.018 2.014-1.009 2.014-2.018zm0 23.544c0-1.009-1.007-2.018-2.014-2.018s-2.014 1.009-2.014 2.018 1.007 2.018 2.014 2.018c1.007.336 2.014-.673 2.014-2.018zM160.609 2.017c0-1.009-1.007-2.018-2.014-2.018s-2.014 1.01-2.014 2.018c0 1.01 1.007 2.018 2.014 2.018 1.007.337 2.014-.672 2.014-2.018zm0 23.881c0-1.01-1.007-2.018-2.014-2.018s-2.014 1.009-2.014 2.018 1.007 2.018 2.014 2.018 2.014-1.01 2.014-2.018zm0 23.88c0-1.009-1.007-2.018-2.014-2.018s-2.014 1.009-2.014 2.018 1.007 2.018 2.014 2.018 2.014-1.009 2.014-2.018zm0 23.543c0-1.009-1.007-2.018-2.014-2.018s-2.014 1.01-2.014 2.018c0 1.01 1.007 2.018 2.014 2.018 1.007.337 2.014-.672 2.014-2.018zm0 23.881c0-1.009-1.007-2.018-2.014-2.018s-2.014 1.009-2.014 2.018c0 1.01 1.007 2.018 2.014 2.018s2.014-.673 2.014-2.018zm0 23.881c0-1.01-1.007-2.019-2.014-2.019s-2.014 1.009-2.014 2.019c0 1.009 1.007 2.018 2.014 2.018s2.014-1.009 2.014-2.018zm0 23.543c0-1.009-1.007-2.018-2.014-2.018s-2.014 1.009-2.014 2.018 1.007 2.018 2.014 2.018c1.007.337 2.014-.672 2.014-2.018zm0 23.881c0-1.009-1.007-2.018-2.014-2.018s-2.014 1.009-2.014 2.018 1.007 2.018 2.014 2.018 2.014-.673 2.014-2.018zm0 23.88c0-1.009-1.007-2.018-2.014-2.018s-2.014 1.009-2.014 2.018 1.007 2.018 2.014 2.018 2.014-1.009 2.014-2.018zm0 23.88c0-1.009-1.007-2.018-2.014-2.018s-2.014 1.009-2.014 2.018 1.007 2.019 2.014 2.019 2.014-1.01 2.014-2.019zm0 23.545c0-1.009-1.007-2.018-2.014-2.018s-2.014 1.009-2.014 2.018 1.007 2.018 2.014 2.018 2.014-.673 2.014-2.018zm0 23.88c0-1.01-1.007-2.019-2.014-2.019s-2.014 1.009-2.014 2.019c0 1.009 1.007 2.018 2.014 2.018s2.014-1.009 2.014-2.018zm0 23.88c0-1.009-1.007-2.018-2.014-2.018s-2.014 1.009-2.014 2.018 1.007 2.018 2.014 2.018 2.014-1.009 2.014-2.018zm0 23.544c0-1.009-1.007-2.018-2.014-2.018s-2.014 1.009-2.014 2.018 1.007 2.018 2.014 2.018c1.007.336 2.014-.673 2.014-2.018zM137.115 2.017c0-1.009-1.007-2.018-2.014-2.018s-2.014 1.01-2.014 2.018c0 1.01 1.007 2.018 2.014 2.018 1.007.337 2.014-.672 2.014-2.018zm0 23.881c0-1.01-1.007-2.018-2.014-2.018s-2.014 1.009-2.014 2.018 1.007 2.018 2.014 2.018 2.014-1.01 2.014-2.018zm0 23.88c0-1.009-1.007-2.018-2.014-2.018s-2.014 1.009-2.014 2.018 1.007 2.018 2.014 2.018 2.014-1.009 2.014-2.018zm0 23.543c0-1.009-1.007-2.018-2.014-2.018s-2.014 1.01-2.014 2.018c0 1.01 1.007 2.018 2.014 2.018 1.007.337 2.014-.672 2.014-2.018zm0 23.881c0-1.009-1.007-2.018-2.014-2.018s-2.014 1.009-2.014 2.018c0 1.01 1.007 2.018 2.014 2.018s2.014-.673 2.014-2.018zm0 23.881c0-1.01-1.007-2.019-2.014-2.019s-2.014 1.009-2.014 2.019c0 1.009 1.007 2.018 2.014 2.018s2.014-1.009 2.014-2.018zm0 23.543c0-1.009-1.007-2.018-2.014-2.018s-2.014 1.009-2.014 2.018 1.007 2.018 2.014 2.018c1.007.337 2.014-.672 2.014-2.018zm0 23.881c0-1.009-1.007-2.018-2.014-2.018s-2.014 1.009-2.014 2.018 1.007 2.018 2.014 2.018 2.014-.673 2.014-2.018zm0 23.88c0-1.009-1.007-2.018-2.014-2.018s-2.014 1.009-2.014 2.018 1.007 2.018 2.014 2.018 2.014-1.009 2.014-2.018zm0 23.88c0-1.009-1.007-2.018-2.014-2.018s-2.014 1.009-2.014 2.018 1.007 2.019 2.014 2.019 2.014-1.01 2.014-2.019zm-2.35 25.563a2.017 2.017 0 002.014-2.018 2.016 2.016 0 00-2.014-2.018 2.016 2.016 0 00-2.014 2.018c0 1.114.902 2.018 2.014 2.018zm2.35 21.862c0-1.01-1.007-2.019-2.014-2.019s-2.014 1.009-2.014 2.019c0 1.009 1.007 2.018 2.014 2.018s2.014-1.009 2.014-2.018zm0 23.88c0-1.009-1.007-2.018-2.014-2.018s-2.014 1.009-2.014 2.018 1.007 2.018 2.014 2.018 2.014-1.009 2.014-2.018zm0 23.544c0-1.009-1.007-2.018-2.014-2.018s-2.014 1.009-2.014 2.018 1.007 2.018 2.014 2.018c1.007.336 2.014-.673 2.014-2.018zM113.284 2.017c0-1.009-1.007-2.018-2.014-2.018s-2.014 1.01-2.014 2.018c0 1.01 1.007 2.018 2.014 2.018 1.007.337 2.014-.672 2.014-2.018zm0 23.881c0-1.01-1.007-2.018-2.014-2.018s-2.014 1.009-2.014 2.018 1.007 2.018 2.014 2.018 2.014-1.01 2.014-2.018zm0 23.88c0-1.009-1.007-2.018-2.014-2.018s-2.014 1.009-2.014 2.018 1.007 2.018 2.014 2.018 2.014-1.009 2.014-2.018zm0 23.543c0-1.009-1.007-2.018-2.014-2.018s-2.014 1.01-2.014 2.018c0 1.01 1.007 2.018 2.014 2.018 1.007.337 2.014-.672 2.014-2.018zm0 23.881c0-1.009-1.007-2.018-2.014-2.018s-2.014 1.009-2.014 2.018c0 1.01 1.007 2.018 2.014 2.018s2.014-.673 2.014-2.018zm0 23.881c0-1.01-1.007-2.019-2.014-2.019s-2.014 1.009-2.014 2.019c0 1.009 1.007 2.018 2.014 2.018s2.014-1.009 2.014-2.018zm0 23.543c0-1.009-1.007-2.018-2.014-2.018s-2.014 1.009-2.014 2.018 1.007 2.018 2.014 2.018c1.007.337 2.014-.672 2.014-2.018zm0 23.881c0-1.009-1.007-2.018-2.014-2.018s-2.014 1.009-2.014 2.018 1.007 2.018 2.014 2.018 2.014-.673 2.014-2.018zm0 23.88c0-1.009-1.007-2.018-2.014-2.018s-2.014 1.009-2.014 2.018 1.007 2.018 2.014 2.018 2.014-1.009 2.014-2.018zm0 23.88c0-1.009-1.007-2.018-2.014-2.018s-2.014 1.009-2.014 2.018 1.007 2.019 2.014 2.019 2.014-1.01 2.014-2.019zm0 23.545c0-1.009-1.007-2.018-2.014-2.018s-2.014 1.009-2.014 2.018 1.007 2.018 2.014 2.018 2.014-.673 2.014-2.018zm0 23.88c0-1.01-1.007-2.019-2.014-2.019s-2.014 1.009-2.014 2.019c0 1.009 1.007 2.018 2.014 2.018s2.014-1.009 2.014-2.018zm0 23.88c0-1.009-1.007-2.018-2.014-2.018s-2.014 1.009-2.014 2.018 1.007 2.018 2.014 2.018 2.014-1.009 2.014-2.018zm0 23.544c0-1.009-1.007-2.018-2.014-2.018s-2.014 1.009-2.014 2.018 1.007 2.018 2.014 2.018c1.007.336 2.014-.673 2.014-2.018zM89.453 2.017C89.453 1.008 88.447 0 87.44 0s-2.014 1.01-2.014 2.018c0 1.01 1.007 2.018 2.014 2.018 1.007.337 2.013-.672 2.013-2.018zm0 23.881c0-1.01-1.006-2.018-2.013-2.018s-2.014 1.009-2.014 2.018 1.007 2.018 2.014 2.018 2.013-1.01 2.013-2.018zm0 23.88c0-1.009-1.006-2.018-2.013-2.018s-2.014 1.009-2.014 2.018 1.007 2.018 2.014 2.018 2.013-1.009 2.013-2.018zm0 23.543c0-1.009-1.006-2.018-2.013-2.018s-2.014 1.01-2.014 2.018c0 1.01 1.007 2.018 2.014 2.018 1.007.337 2.013-.672 2.013-2.018zm0 23.881c0-1.009-1.006-2.018-2.013-2.018s-2.014 1.009-2.014 2.018c0 1.01 1.007 2.018 2.014 2.018s2.013-.673 2.013-2.018zm0 23.881c0-1.01-1.006-2.019-2.013-2.019s-2.014 1.009-2.014 2.019c0 1.009 1.007 2.018 2.014 2.018s2.013-1.009 2.013-2.018zm0 23.543c0-1.009-1.006-2.018-2.013-2.018s-2.014 1.009-2.014 2.018 1.007 2.018 2.014 2.018c1.007.337 2.013-.672 2.013-2.018zm0 23.881c0-1.009-1.006-2.018-2.013-2.018s-2.014 1.009-2.014 2.018 1.007 2.018 2.014 2.018 2.013-.673 2.013-2.018zm0 23.88c0-1.009-1.006-2.018-2.013-2.018s-2.014 1.009-2.014 2.018 1.007 2.018 2.014 2.018 2.013-1.009 2.013-2.018zm0 23.88c0-1.009-1.006-2.018-2.013-2.018s-2.014 1.009-2.014 2.018 1.007 2.019 2.014 2.019 2.013-1.01 2.013-2.019zm0 23.545c0-1.009-1.006-2.018-2.013-2.018s-2.014 1.009-2.014 2.018 1.007 2.018 2.014 2.018 2.013-.673 2.013-2.018zm0 23.88c0-1.01-1.006-2.019-2.013-2.019s-2.014 1.009-2.014 2.019c0 1.009 1.007 2.018 2.014 2.018s2.013-1.009 2.013-2.018zm0 23.88c0-1.009-1.006-2.018-2.013-2.018s-2.014 1.009-2.014 2.018 1.007 2.018 2.014 2.018 2.013-1.009 2.013-2.018zm0 23.544c0-1.009-1.006-2.018-2.013-2.018s-2.014 1.009-2.014 2.018 1.007 2.018 2.014 2.018c1.007.336 2.013-.673 2.013-2.018zM65.622 2.017C65.622 1.008 64.615 0 63.61 0c-1.007 0-2.014 1.01-2.014 2.018 0 1.01 1.007 2.018 2.014 2.018 1.006 0 2.013-.672 2.013-2.018zm0 23.881c0-1.01-1.007-2.018-2.013-2.018-1.007 0-2.014 1.009-2.014 2.018s1.007 2.018 2.014 2.018c1.006 0 2.013-1.01 2.013-2.018zm0 23.88c0-1.009-1.007-2.018-2.013-2.018-1.007 0-2.014 1.009-2.014 2.018s1.007 2.018 2.014 2.018c1.006 0 2.013-1.009 2.013-2.018zm0 23.543c0-1.009-1.007-2.018-2.013-2.018-1.007 0-2.014 1.01-2.014 2.018 0 1.01 1.007 2.018 2.014 2.018 1.006 0 2.013-.672 2.013-2.018zm0 23.882c0-1.01-1.007-2.019-2.013-2.019-1.007 0-2.014 1.01-2.014 2.019 0 1.009 1.007 2.018 2.014 2.018 1.006 0 2.013-.673 2.013-2.018zm0 23.88c0-1.01-1.007-2.019-2.013-2.019-1.007 0-2.014 1.009-2.014 2.019 0 1.009 1.007 2.018 2.014 2.018 1.342 0 2.013-1.009 2.013-2.018zm0 23.543c0-1.009-1.007-2.018-2.013-2.018-1.007 0-2.014 1.009-2.014 2.018s1.007 2.018 2.014 2.018c1.342.337 2.013-.672 2.013-2.018zm0 23.881c0-1.009-1.007-2.018-2.013-2.018-1.007 0-2.014 1.009-2.014 2.018s1.007 2.018 2.014 2.018c1.342 0 2.013-.673 2.013-2.018zm0 23.88c0-1.009-1.007-2.018-2.013-2.018-1.007 0-2.014 1.009-2.014 2.018s1.007 2.018 2.014 2.018c1.342 0 2.013-1.009 2.013-2.018zm0 23.88c0-1.009-1.007-2.018-2.013-2.018-1.007 0-2.014 1.009-2.014 2.018s1.007 2.019 2.014 2.019c1.342 0 2.013-1.01 2.013-2.019zm0 23.545c0-1.009-1.007-2.018-2.013-2.018-1.007 0-2.014 1.009-2.014 2.018s1.007 2.018 2.014 2.018c1.342 0 2.013-.673 2.013-2.018zm0 23.88c0-1.01-1.007-2.019-2.013-2.019-1.007 0-2.014 1.009-2.014 2.019 0 1.009 1.007 2.018 2.014 2.018 1.342 0 2.013-1.009 2.013-2.018zm0 23.88c0-1.009-1.007-2.018-2.013-2.018-1.007 0-2.014 1.009-2.014 2.018s1.007 2.018 2.014 2.018c1.342 0 2.013-1.009 2.013-2.018zm0 23.544c0-1.009-1.007-2.018-2.013-2.018-1.007 0-2.014 1.009-2.014 2.018s1.007 2.018 2.014 2.018c1.342.336 2.013-.673 2.013-2.018zM42.127 2.017C42.127 1.008 41.12 0 40.113 0S38.1 1.01 38.1 2.017c0 1.01 1.006 2.018 2.014 2.018 1.006.337 2.013-.672 2.013-2.018zm0 23.881c0-1.01-1.007-2.018-2.014-2.018S38.1 24.889 38.1 25.898s1.006 2.018 2.014 2.018c1.006 0 2.013-1.01 2.013-2.018zm0 23.88c0-1.009-1.007-2.018-2.014-2.018S38.1 48.769 38.1 49.778s1.006 2.018 2.014 2.018c1.006 0 2.013-1.009 2.013-2.018zm0 23.543c0-1.009-1.007-2.018-2.014-2.018s-2.013 1.01-2.013 2.018c0 1.01 1.006 2.018 2.014 2.018 1.006.337 2.013-.672 2.013-2.018zm0 23.882c0-1.01-1.007-2.019-2.014-2.019s-2.013 1.01-2.013 2.019c0 1.009 1.006 2.018 2.014 2.018 1.006 0 2.013-.673 2.013-2.018zm0 23.88c0-1.01-1.007-2.019-2.014-2.019s-2.013 1.009-2.013 2.019c0 1.009 1.006 2.018 2.014 2.018 1.006 0 2.013-1.009 2.013-2.018zm0 23.543c0-1.009-1.007-2.018-2.014-2.018s-2.013 1.009-2.013 2.018 1.006 2.018 2.014 2.018c1.006.337 2.013-.672 2.013-2.018zm0 23.881c0-1.009-1.007-2.018-2.014-2.018s-2.013 1.009-2.013 2.018 1.006 2.018 2.014 2.018c1.006 0 2.013-.673 2.013-2.018zm0 23.88c0-1.009-1.007-2.018-2.014-2.018s-2.013 1.009-2.013 2.018 1.006 2.018 2.014 2.018c1.006 0 2.013-1.009 2.013-2.018zm0 23.88c0-1.009-1.007-2.018-2.014-2.018s-2.013 1.009-2.013 2.018 1.006 2.019 2.014 2.019c1.006 0 2.013-1.01 2.013-2.019zm0 23.545c0-1.009-1.007-2.018-2.014-2.018s-2.013 1.009-2.013 2.018 1.006 2.018 2.014 2.018c1.006 0 2.013-.673 2.013-2.018zm0 23.88c0-1.01-1.007-2.019-2.014-2.019s-2.013 1.009-2.013 2.019c0 1.009 1.006 2.018 2.014 2.018 1.006 0 2.013-1.009 2.013-2.018zm0 23.88c0-1.009-1.007-2.018-2.014-2.018s-2.013 1.009-2.013 2.018 1.006 2.018 2.014 2.018c1.006 0 2.013-1.009 2.013-2.018zm0 23.544c0-1.009-1.007-2.018-2.014-2.018s-2.013 1.009-2.013 2.018 1.006 2.018 2.014 2.018c1.006.336 2.013-.673 2.013-2.018zM18.297 2.017C18.297 1.008 17.29 0 16.283 0S14.27 1.01 14.27 2.017c0 1.01 1.007 2.018 2.014 2.018 1.007.337 2.014-.672 2.014-2.018zm0 23.881c0-1.01-1.007-2.018-2.014-2.018s-2.014 1.009-2.014 2.018 1.007 2.018 2.014 2.018 2.014-1.01 2.014-2.018zm0 23.88c0-1.009-1.007-2.018-2.014-2.018s-2.014 1.009-2.014 2.018 1.007 2.018 2.014 2.018 2.014-1.009 2.014-2.018zm0 23.543c0-1.009-1.007-2.018-2.014-2.018s-2.014 1.01-2.014 2.018c0 1.01 1.007 2.018 2.014 2.018 1.007.337 2.014-.672 2.014-2.018zm0 23.882c0-1.01-1.007-2.019-2.014-2.019s-2.014 1.01-2.014 2.019c0 1.009 1.007 2.018 2.014 2.018s2.014-.673 2.014-2.018zm0 23.88c0-1.01-1.007-2.019-2.014-2.019s-2.014 1.009-2.014 2.019c0 1.009 1.007 2.018 2.014 2.018s2.014-1.009 2.014-2.018zm0 23.543c0-1.009-1.007-2.018-2.014-2.018s-2.014 1.009-2.014 2.018 1.007 2.018 2.014 2.018c1.007.337 2.014-.672 2.014-2.018zm0 23.881c0-1.009-1.007-2.018-2.014-2.018s-2.014 1.009-2.014 2.018 1.007 2.018 2.014 2.018 2.014-.673 2.014-2.018zm0 23.88c0-1.009-1.007-2.018-2.014-2.018s-2.014 1.009-2.014 2.018 1.007 2.018 2.014 2.018 2.014-1.009 2.014-2.018zm0 23.88c0-1.009-1.007-2.018-2.014-2.018s-2.014 1.009-2.014 2.018 1.007 2.019 2.014 2.019 2.014-1.01 2.014-2.019zm0 23.545c0-1.009-1.007-2.018-2.014-2.018s-2.014 1.009-2.014 2.018 1.007 2.018 2.014 2.018 2.014-.673 2.014-2.018zm0 23.88c0-1.01-1.007-2.019-2.014-2.019s-2.014 1.009-2.014 2.019c0 1.009 1.007 2.018 2.014 2.018s2.014-1.009 2.014-2.018zm0 23.88c0-1.009-1.007-2.018-2.014-2.018s-2.014 1.009-2.014 2.018 1.007 2.018 2.014 2.018 2.014-1.009 2.014-2.018zm0 23.544c0-1.009-1.007-2.018-2.014-2.018s-2.014 1.009-2.014 2.018 1.007 2.018 2.014 2.018c1.007.336 2.014-.673 2.014-2.018z"/></g><defs><clipPath id="clip0"><path fill="#fff" transform="translate(-413)" d="M0 0h715.92v313.471H0z"/></clipPath></defs></svg>