<svg width="158" height="216" fill="none" xmlns="http://www.w3.org/2000/svg"><g clip-path="url(#clip0)" fill="#E8E9ED"><path d="M79.212 166.108c.93 0 1.627.827 1.627 1.93s-.698 1.93-1.627 1.93c-.93 0-1.627-.827-1.627-1.93s.697-1.93 1.627-1.93zM67.36 60.517c.929 0 1.626.827 1.626 1.93s-.697 1.93-1.627 1.93-1.627-.827-1.627-1.93.698-1.93 1.627-1.93zm80.647 32.257c.929 0 1.627.827 1.627 1.93 0 1.102-.698 1.93-1.627 1.93-.93 0-1.627-.828-1.627-1.93 0-1.103.697-1.93 1.627-1.93zM43.887 203.603c.93 0 1.627.827 1.627 1.929 0 1.103-.698 1.93-1.627 1.93-.93 0-1.627-.827-1.627-1.93-.233-1.102.697-1.929 1.627-1.929zm70.884-58.447c.93 0 1.627.827 1.627 1.929 0 1.103-.697 1.93-1.627 1.93-.929 0-1.626-.827-1.626-1.93 0-1.102.697-1.929 1.626-1.929zM99.2 59.415c.93 0 1.627.827 1.627 1.93 0 1.102-.697 1.93-1.627 1.93s-1.627-.828-1.627-1.93c-.232-1.103.698-1.93 1.627-1.93zM26.455 20.266c.93 0 1.627.827 1.627 1.93 0 1.102-.697 1.93-1.627 1.93s-1.627-.828-1.627-1.93c-.232-1.103.697-1.93 1.627-1.93zm56.94-9.925c.93 0 1.627.827 1.627 1.93s-.697 1.93-1.627 1.93-1.626-.827-1.626-1.93.697-1.93 1.626-1.93zm-40.671 94.012c.898 0 1.626-.864 1.626-1.93 0-1.066-.728-1.93-1.626-1.93-.899 0-1.627.864-1.627 1.93 0 1.066.728 1.93 1.627 1.93zm107.375-33.635c.929 0 1.626.827 1.626 1.93s-.697 1.93-1.626 1.93c-.93 0-1.627-.827-1.627-1.93s.697-1.93 1.627-1.93zM95.714 42.873c.93 0 1.627.827 1.627 1.93 0 1.102-.698 1.93-1.627 1.93-.93 0-1.627-.828-1.627-1.93 0-1.103.697-1.93 1.627-1.93zM45.048 25.78c.93 0 1.627.827 1.627 1.93 0 1.102-.698 1.93-1.627 1.93-.93 0-1.627-.828-1.627-1.93-.233-.827.697-1.93 1.627-1.93zm.232 40.803c.93 0 1.627.827 1.627 1.93 0 1.102-.697 1.93-1.627 1.93s-1.627-.828-1.627-1.93c-.232-.828.697-1.93 1.627-1.93zm23.939 105.866c.93 0 1.627.827 1.627 1.93s-.698 1.93-1.627 1.93c-.93 0-1.627-.827-1.627-1.93-.233-1.103.697-1.93 1.627-1.93zm86.922-66.167c.929 0 1.626.828 1.626 1.93 0 1.103-.697 1.93-1.626 1.93-.93 0-1.627-.827-1.627-1.93 0-.827.697-1.93 1.627-1.93zM32.73 204.705c.93 0 1.626.827 1.626 1.93s-.697 1.93-1.627 1.93-1.627-.827-1.627-1.93c-.232-1.103.698-1.93 1.627-1.93zm81.344-112.207c.93 0 1.627.827 1.627 1.93s-.697 1.93-1.627 1.93c-.929 0-1.627-.828-1.627-1.93 0-1.103.698-1.93 1.627-1.93zm-34.862 93.46c.93 0 1.627.827 1.627 1.93s-.698 1.93-1.627 1.93c-.93 0-1.627-.827-1.627-1.93-.232-1.103.697-1.93 1.627-1.93zm28.354-19.574c.93 0 1.627.827 1.627 1.93 0 1.102-.697 1.93-1.627 1.93-.929 0-1.627-.828-1.627-1.93 0-1.103.698-1.93 1.627-1.93zm-102.029 7.72c.93 0 1.627.827 1.627 1.929 0 1.103-.697 1.93-1.627 1.93s-1.627-.827-1.627-1.93c0-1.102.697-1.929 1.627-1.929zm11.853 21.503c.93 0 1.627.827 1.627 1.93s-.697 1.93-1.626 1.93c-.93 0-1.627-.827-1.627-1.93s.697-1.93 1.627-1.93zM101.757 11.72c.929 0 1.627.827 1.627 1.93 0 1.102-.698 1.93-1.627 1.93-.93 0-1.627-.828-1.627-1.93-.233-1.103.697-1.93 1.627-1.93zm-56.71 140.879c.93 0 1.627.827 1.627 1.93s-.698 1.93-1.627 1.93c-.93 0-1.627-.827-1.627-1.93s.697-1.93 1.627-1.93zm34.398-79.951c.93 0 1.627.827 1.627 1.93 0 1.102-.697 1.93-1.627 1.93s-1.627-.828-1.627-1.93c0-1.103.698-1.93 1.627-1.93zm-42.763-6.065c.898 0 1.626-.864 1.626-1.93 0-1.066-.728-1.93-1.626-1.93-.899 0-1.627.864-1.627 1.93 0 1.066.728 1.93 1.627 1.93zm41.834 19.574c.93 0 1.626.827 1.626 1.93 0 1.102-.697 1.93-1.626 1.93-.93 0-1.627-.828-1.627-1.93 0-1.103.697-1.93 1.627-1.93zm22.079-47.971c.929 0 1.627.827 1.627 1.93s-.698 1.93-1.627 1.93c-.93 0-1.627-.827-1.627-1.93-.233-1.103.697-1.93 1.627-1.93zm-28.122 63.41c.93 0 1.627.827 1.627 1.93 0 1.102-.698 1.929-1.627 1.929-.93 0-1.627-.827-1.627-1.929 0-1.103.697-1.93 1.627-1.93zm18.592 87.395c.93 0 1.627.827 1.627 1.93 0 1.102-.697 1.929-1.627 1.929s-1.626-.827-1.626-1.929c0-1.103.697-1.93 1.626-1.93zm-35.327-30.327c.93 0 1.627.827 1.627 1.93s-.697 1.93-1.627 1.93-1.627-.827-1.627-1.93.698-1.93 1.627-1.93zm41.37-7.995c.93 0 1.627.828 1.627 1.93 0 1.103-.697 1.93-1.627 1.93s-1.627-.827-1.627-1.93c0-1.102.698-1.93 1.627-1.93zm-43.462-36.116c.93 0 1.627.827 1.627 1.93s-.697 1.93-1.627 1.93-1.627-.827-1.627-1.93.698-1.93 1.627-1.93zM-.97 59.139c.93 0 1.627.827 1.627 1.93 0 1.102-.697 1.93-1.627 1.93s-1.627-.828-1.627-1.93c-.232-1.103.698-1.93 1.627-1.93zM46.907.967c.93 0 1.627.827 1.627 1.93s-.697 1.93-1.627 1.93S45.28 4 45.28 2.897c-.232-1.103.697-1.93 1.627-1.93zM13.672 52.522c.93 0 1.627.827 1.627 1.93s-.697 1.93-1.627 1.93-1.627-.827-1.627-1.93.697-1.93 1.627-1.93zm-6.507 81.881c.93 0 1.627.827 1.627 1.93s-.697 1.93-1.627 1.93-1.627-.827-1.627-1.93.697-1.93 1.627-1.93zm103.655-24.261c.93 0 1.627.827 1.627 1.93s-.697 1.93-1.627 1.93c-.929 0-1.627-.827-1.627-1.93s.698-1.93 1.627-1.93zM37.611 48.663c.93 0 1.627.827 1.627 1.93 0 1.102-.697 1.93-1.627 1.93s-1.627-.828-1.627-1.93c-.232-.828.698-1.93 1.627-1.93zm56.011 52.933c.93 0 1.627.827 1.627 1.93 0 1.102-.697 1.929-1.627 1.929s-1.627-.827-1.627-1.929c-.232-1.103.697-1.93 1.627-1.93zM11.116 69.34c.93 0 1.627.827 1.627 1.93 0 1.102-.697 1.93-1.627 1.93s-1.627-.828-1.627-1.93c0-1.103.697-1.93 1.627-1.93zm22.776 34.461c.93 0 1.626.827 1.626 1.93s-.697 1.93-1.627 1.93-1.626-.827-1.626-1.93.697-1.93 1.627-1.93zm36.954-56.793c.93 0 1.626.827 1.626 1.93s-.697 1.93-1.626 1.93c-.93 0-1.627-.827-1.627-1.93 0-.827.697-1.93 1.627-1.93zm67.167 23.986c.929 0 1.626.827 1.626 1.93 0 1.102-.697 1.93-1.626 1.93-.93 0-1.627-.828-1.627-1.93-.233-.827.697-1.93 1.627-1.93zm-35.327-42.181c.93 0 1.627.827 1.627 1.93 0 1.102-.697 1.93-1.627 1.93-.929 0-1.626-.828-1.626-1.93 0-1.103.697-1.93 1.626-1.93zm17.664 36.115c.929 0 1.626.827 1.626 1.93s-.697 1.93-1.626 1.93c-.93 0-1.627-.827-1.627-1.93s.697-1.93 1.627-1.93zm18.127 42.182c.93 0 1.627.827 1.627 1.929 0 1.103-.697 1.93-1.627 1.93-.929 0-1.626-.827-1.626-1.93 0-1.102.697-1.929 1.626-1.929zM1.82 104.353c.929 0 1.626.827 1.626 1.93 0 1.102-.697 1.93-1.627 1.93s-1.627-.828-1.627-1.93c-.232-.827.698-1.93 1.627-1.93zm84.83 96.217c.93 0 1.627.827 1.627 1.93s-.697 1.93-1.627 1.93-1.627-.827-1.627-1.93c-.232-1.103.698-1.93 1.627-1.93zm22.079-156.594c.93 0 1.627.827 1.627 1.93 0 1.102-.697 1.93-1.627 1.93-.929 0-1.626-.828-1.626-1.93 0-1.103.697-1.93 1.626-1.93zM60.852 204.705c.93 0 1.627.827 1.627 1.93s-.697 1.93-1.627 1.93-1.626-.827-1.626-1.93c0-.827.697-1.93 1.627-1.93zm42.763-62.858c.899 0 1.627-.864 1.627-1.93 0-1.066-.728-1.93-1.627-1.93-.898 0-1.627.864-1.627 1.93 0 1.066.729 1.93 1.627 1.93zm47.413-18.196c.93 0 1.627.827 1.627 1.93s-.697 1.93-1.627 1.93c-.929 0-1.627-.827-1.627-1.93 0-.827.698-1.93 1.627-1.93zM56.9 48.387c.93 0 1.627.827 1.627 1.93 0 1.102-.697 1.93-1.627 1.93s-1.627-.828-1.627-1.93c0-1.103.698-1.93 1.627-1.93zM8.792 83.124c.93 0 1.627.827 1.627 1.93s-.697 1.93-1.627 1.93-1.627-.827-1.627-1.93c0-.827.697-1.93 1.627-1.93zm44.622-7.719c.93 0 1.627.827 1.627 1.93 0 1.102-.697 1.93-1.627 1.93s-1.627-.828-1.627-1.93c0-.827.697-1.93 1.627-1.93zm61.357 79.675c.93 0 1.627.827 1.627 1.93s-.697 1.93-1.627 1.93c-.929 0-1.626-.827-1.626-1.93-.233-1.103.697-1.93 1.626-1.93zM21.11 11.72c.929 0 1.626.827 1.626 1.93 0 1.102-.697 1.93-1.627 1.93s-1.627-.828-1.627-1.93c-.232-.828.698-1.93 1.627-1.93zm57.87 93.736c.93 0 1.626.827 1.626 1.929 0 1.103-.697 1.93-1.627 1.93s-1.626-.827-1.626-1.93c0-1.102.697-1.929 1.626-1.929zm49.968-63.962c.93 0 1.627.828 1.627 1.93 0 1.103-.697 1.93-1.627 1.93-.929 0-1.627-.827-1.627-1.93 0-1.102.698-1.93 1.627-1.93zm-14.409 121.857c.929 0 1.627.827 1.627 1.93s-.698 1.93-1.627 1.93c-.93 0-1.627-.827-1.627-1.93-.233-1.103.465-1.93 1.627-1.93zm-71.351 6.066c.93 0 1.627.827 1.627 1.929 0 1.103-.697 1.93-1.627 1.93s-1.627-.827-1.627-1.93c-.232-.827.698-1.929 1.627-1.929zm75.767 18.471c.93 0 1.627.827 1.627 1.93s-.697 1.93-1.627 1.93-1.627-.827-1.627-1.93.697-1.93 1.627-1.93zM55.738 31.018c.93 0 1.627.827 1.627 1.93s-.697 1.93-1.627 1.93-1.627-.827-1.627-1.93c-.232-1.103.698-1.93 1.627-1.93zm20.453 165.417c.93 0 1.627.827 1.627 1.929 0 1.103-.697 1.93-1.627 1.93s-1.627-.827-1.627-1.93c0-.827.698-1.929 1.627-1.929zm51.13-28.673c.93 0 1.627.827 1.627 1.93s-.697 1.93-1.627 1.93c-.929 0-1.627-.827-1.627-1.93-.232-1.103.698-1.93 1.627-1.93zm-27.191-51.279c.929 0 1.627.827 1.627 1.93s-.698 1.93-1.627 1.93c-.93 0-1.627-.827-1.627-1.93s.697-1.93 1.627-1.93zM30.173 36.256c.93 0 1.627.827 1.627 1.93s-.698 1.93-1.627 1.93c-.93 0-1.627-.827-1.627-1.93-.232-1.103.697-1.93 1.627-1.93zM48.07 10.892c.929 0 1.626.827 1.626 1.93s-.697 1.93-1.627 1.93-1.627-.827-1.627-1.93c-.232-1.103.698-1.93 1.627-1.93zm87.618 75.816c.93 0 1.627.827 1.627 1.93s-.697 1.93-1.627 1.93c-.929 0-1.626-.827-1.626-1.93s.697-1.93 1.626-1.93zM6.468 155.632c.93 0 1.627.827 1.627 1.93 0 1.102-.698 1.93-1.627 1.93-.93 0-1.627-.828-1.627-1.93-.233-.827.697-1.93 1.627-1.93zm117.135-39.7c.93 0 1.627.827 1.627 1.93 0 1.102-.697 1.929-1.627 1.929-.929 0-1.626-.827-1.626-1.929-.233-1.103.697-1.93 1.626-1.93zm-78.555 11.027c.93 0 1.627.828 1.627 1.93 0 1.103-.698 1.93-1.627 1.93-.93 0-1.627-.827-1.627-1.93-.233-1.102.697-1.93 1.627-1.93zm88.316-3.583c.93 0 1.627.827 1.627 1.93 0 1.102-.697 1.929-1.627 1.929-.929 0-1.627-.827-1.627-1.929 0-1.103.698-1.93 1.627-1.93zM19.25 165.557c.93 0 1.627.827 1.627 1.93 0 1.102-.697 1.929-1.627 1.929s-1.627-.827-1.627-1.929c0-.828.697-1.93 1.627-1.93zM86.88 40.116c.93 0 1.628.827 1.628 1.93 0 1.102-.698 1.93-1.627 1.93-.93 0-1.627-.828-1.627-1.93 0-1.103.697-1.93 1.627-1.93zM1.122 142.398c.93 0 1.627.828 1.627 1.93 0 1.103-.697 1.93-1.627 1.93s-1.627-.827-1.627-1.93c-.232-1.102.697-1.93 1.627-1.93zm50.666 54.588c.93 0 1.627.827 1.627 1.93 0 1.102-.697 1.93-1.627 1.93s-1.627-.828-1.627-1.93c0-1.103.697-1.93 1.627-1.93zM75.262 78.437c.93 0 1.626.827 1.626 1.93s-.697 1.93-1.626 1.93c-.93 0-1.627-.827-1.627-1.93s.697-1.93 1.627-1.93zm49.27 23.71c.93 0 1.627.827 1.627 1.93s-.697 1.93-1.627 1.93-1.627-.827-1.627-1.93c-.232-.827.697-1.93 1.627-1.93zm-4.182-73.334c.929 0 1.626.827 1.626 1.93 0 1.102-.697 1.93-1.626 1.93-.93 0-1.627-.828-1.627-1.93 0-1.103.697-1.93 1.627-1.93zM18.321 40.116c.93 0 1.627.827 1.627 1.93 0 1.102-.697 1.93-1.627 1.93s-1.627-.828-1.627-1.93c-.232-.828.698-1.93 1.627-1.93zm7.204 19.299c.93 0 1.627.827 1.627 1.93 0 1.102-.697 1.93-1.627 1.93s-1.627-.828-1.627-1.93c-.232-1.103.698-1.93 1.627-1.93zm58.8 28.947c.93 0 1.627.827 1.627 1.93s-.697 1.93-1.627 1.93-1.627-.827-1.627-1.93c-.232-1.103.698-1.93 1.627-1.93zm-1.162-27.018c.93 0 1.627.828 1.627 1.93 0 1.103-.697 1.93-1.627 1.93s-1.627-.827-1.627-1.93c0-1.102.697-1.93 1.627-1.93zM34.589 182.65c.93 0 1.627.827 1.627 1.93 0 1.102-.698 1.93-1.627 1.93-.93 0-1.627-.828-1.627-1.93-.233-1.103.697-1.93 1.627-1.93zM-1.435 93.876c.93 0 1.627.827 1.627 1.93s-.697 1.93-1.627 1.93-1.627-.827-1.627-1.93.698-1.93 1.627-1.93zM99.2 178.514c.93 0 1.627.827 1.627 1.93s-.697 1.93-1.627 1.93-1.627-.827-1.627-1.93c0-.827.698-1.93 1.627-1.93zM66.662 78.162c.93 0 1.627.827 1.627 1.93 0 1.102-.697 1.93-1.627 1.93s-1.627-.828-1.627-1.93c0-1.103.697-1.93 1.627-1.93zM92.46 1.794c.93 0 1.628.828 1.628 1.93 0 1.103-.697 1.93-1.627 1.93s-1.627-.827-1.627-1.93c-.232-1.102.697-1.93 1.627-1.93zm3.486 71.13c.93 0 1.627.827 1.627 1.93 0 1.102-.697 1.93-1.627 1.93s-1.627-.828-1.627-1.93c0-.828.698-1.93 1.627-1.93zM23.433 183.477c.93 0 1.627.827 1.627 1.93 0 1.102-.697 1.93-1.627 1.93s-1.626-.828-1.626-1.93c0-1.103.697-1.93 1.627-1.93zm40.673 7.444c.93 0 1.627.827 1.627 1.929 0 1.103-.697 1.93-1.627 1.93s-1.626-.827-1.626-1.93c0-1.102.697-1.929 1.626-1.929zm-44.159-89.05c.93 0 1.627.827 1.627 1.93s-.697 1.93-1.627 1.93-1.627-.827-1.627-1.93c-.232-.827.697-1.93 1.627-1.93zm93.43-27.569c.93 0 1.627.827 1.627 1.93s-.697 1.93-1.627 1.93-1.627-.827-1.627-1.93c-.232-1.103.697-1.93 1.627-1.93zM92.692 211.046c.93 0 1.627.827 1.627 1.93s-.697 1.93-1.627 1.93-1.627-.827-1.627-1.93.698-1.93 1.627-1.93zM123.371 85.33c.93 0 1.627.827 1.627 1.93 0 1.102-.697 1.93-1.627 1.93s-1.627-.828-1.627-1.93c0-1.103.697-1.93 1.627-1.93zm-32.538 51.003c.93 0 1.627.827 1.627 1.93s-.697 1.93-1.627 1.93-1.627-.827-1.627-1.93c-.232-1.103.697-1.93 1.627-1.93zM1.354 115.656c.93 0 1.627.827 1.627 1.93s-.697 1.93-1.627 1.93-1.626-.827-1.626-1.93c0-.827.697-1.93 1.626-1.93zm14.642-.551c.93 0 1.627.827 1.627 1.93 0 1.102-.697 1.929-1.627 1.929s-1.627-.827-1.627-1.929c0-1.103.697-1.93 1.627-1.93zM7.165 37.91c.93 0 1.627.828 1.627 1.93 0 1.103-.697 1.93-1.627 1.93s-1.627-.827-1.627-1.93c-.232-1.103.697-1.93 1.627-1.93zM34.59 152.599c.93 0 1.627.827 1.627 1.93s-.698 1.93-1.627 1.93c-.93 0-1.627-.827-1.627-1.93 0-.827.697-1.93 1.627-1.93zM46.442 39.84c.93 0 1.627.827 1.627 1.93s-.697 1.93-1.627 1.93-1.627-.827-1.627-1.93c-.232-1.103.698-1.93 1.627-1.93zm51.13 124.614c.93 0 1.627.827 1.627 1.93s-.697 1.93-1.627 1.93-1.627-.827-1.627-1.93c-.232-1.103.698-1.93 1.627-1.93zm28.588-28.948c.93 0 1.627.827 1.627 1.93s-.697 1.93-1.627 1.93-1.627-.827-1.627-1.93.697-1.93 1.627-1.93zm-67.4 44.387c.93 0 1.628.827 1.628 1.93 0 1.102-.698 1.93-1.627 1.93-.93 0-1.627-.828-1.627-1.93-.233-1.103.697-1.93 1.627-1.93zm63.914-6.066c.929 0 1.627.827 1.627 1.93s-.698 1.93-1.627 1.93c-.93 0-1.627-.827-1.627-1.93-.233-1.103.697-1.93 1.627-1.93zm-60.196-63.685c.93 0 1.627.827 1.627 1.93s-.697 1.93-1.627 1.93-1.626-.827-1.626-1.93c0-.827.697-1.93 1.626-1.93zM80.84 146.81c.93 0 1.627.827 1.627 1.929 0 1.103-.698 1.93-1.627 1.93-.93 0-1.627-.827-1.627-1.93 0-.827.697-1.929 1.627-1.929zm-25.334-11.855c.93 0 1.627.827 1.627 1.929 0 1.103-.698 1.93-1.627 1.93-.93 0-1.627-.827-1.627-1.93 0-1.102.697-1.929 1.627-1.929zm1.86 13.784c.93 0 1.627.827 1.627 1.93s-.697 1.93-1.627 1.93-1.627-.827-1.627-1.93c-.232-1.103.698-1.93 1.627-1.93zm-47.18 34.462c.93 0 1.627.827 1.627 1.93s-.697 1.93-1.627 1.93-1.626-.827-1.626-1.93c-.233-1.103.697-1.93 1.626-1.93zm39.045-85.19c.93 0 1.627.828 1.627 1.93 0 1.103-.697 1.93-1.627 1.93s-1.627-.827-1.627-1.93c0-1.102.698-1.93 1.627-1.93zm-3.254 113.035c.93 0 1.627.827 1.627 1.93s-.697 1.93-1.627 1.93-1.626-.827-1.626-1.93c-.233-1.103.697-1.93 1.627-1.93zM64.106 29.088c.899 0 1.627-.864 1.627-1.93 0-1.066-.728-1.93-1.627-1.93-.898 0-1.626.864-1.626 1.93 0 1.066.728 1.93 1.626 1.93zM60.62 4.552c.93 0 1.627.827 1.627 1.93 0 1.102-.697 1.93-1.627 1.93s-1.627-.828-1.627-1.93c0-.827.697-1.93 1.627-1.93zm90.641 139.776c.929 0 1.627.827 1.627 1.93s-.698 1.93-1.627 1.93c-.93 0-1.627-.827-1.627-1.93s.697-1.93 1.627-1.93zM28.547 116.483c.93 0 1.627.827 1.627 1.93s-.697 1.93-1.627 1.93-1.627-.827-1.627-1.93.697-1.93 1.627-1.93zm99.937-61.48c.93 0 1.627.828 1.627 1.93 0 1.103-.697 1.93-1.627 1.93-.929 0-1.627-.827-1.627-1.93 0-1.102.698-1.93 1.627-1.93zM32.266 9.79c.93 0 1.626.827 1.626 1.93 0 1.102-.697 1.93-1.626 1.93-.93 0-1.627-.828-1.627-1.93-.233-1.103.697-1.93 1.627-1.93zm59.962 11.579c.93 0 1.626.827 1.626 1.93 0 1.102-.697 1.93-1.626 1.93-.93 0-1.627-.828-1.627-1.93 0-1.103.697-1.93 1.627-1.93zM27.385 165.557c.93 0 1.627.827 1.627 1.93 0 1.102-.698 1.929-1.627 1.929-.93 0-1.627-.827-1.627-1.929 0-1.103.697-1.93 1.627-1.93zm53.687-33.635c.93 0 1.627.827 1.627 1.93s-.697 1.93-1.627 1.93-1.627-.827-1.627-1.93c-.232-1.103.698-1.93 1.627-1.93zm-4.648-95.39c.93 0 1.627.827 1.627 1.93s-.698 1.93-1.627 1.93c-.93 0-1.627-.827-1.627-1.93s.697-1.93 1.627-1.93zm16.733 91.806c.93 0 1.627.827 1.627 1.93s-.697 1.93-1.627 1.93-1.627-.827-1.627-1.93.698-1.93 1.627-1.93zM10.65 24.126c.93 0 1.627.827 1.627 1.93 0 1.102-.697 1.93-1.627 1.93s-1.627-.828-1.627-1.93c0-1.103.698-1.93 1.627-1.93zm91.571 68.924c.929 0 1.627.826 1.627 1.93 0 1.102-.698 1.929-1.627 1.929-.93 0-1.627-.827-1.627-1.93 0-.827.697-1.93 1.627-1.93zm27.193 89.324c.93 0 1.627.827 1.627 1.93s-.697 1.93-1.627 1.93-1.627-.827-1.627-1.93c0-.827.697-1.93 1.627-1.93zM1.354 33.775c.899 0 1.627-.864 1.627-1.93 0-1.066-.728-1.93-1.627-1.93-.898 0-1.626.864-1.626 1.93 0 1.066.728 1.93 1.626 1.93zm38.348 55.139c.93 0 1.627.827 1.627 1.93 0 1.102-.697 1.93-1.627 1.93s-1.627-.828-1.627-1.93c-.232-.828.697-1.93 1.627-1.93zm67.4 99.801c.93 0 1.627.827 1.627 1.93s-.697 1.93-1.627 1.93-1.627-.827-1.627-1.93c-.232-1.103.465-1.93 1.627-1.93zM69.451 15.303c.93 0 1.627.828 1.627 1.93 0 1.103-.697 1.93-1.627 1.93s-1.627-.827-1.627-1.93c0-1.102.698-1.93 1.627-1.93zM29.477 79.265c.93 0 1.626.827 1.626 1.93 0 1.102-.697 1.93-1.627 1.93s-1.626-.828-1.626-1.93c0-.828.697-1.93 1.627-1.93zm-5.347 54.311c.93 0 1.627.827 1.627 1.93s-.698 1.93-1.627 1.93c-.93 0-1.627-.827-1.627-1.93 0-.827.697-1.93 1.627-1.93zm65.076 39.976c.93 0 1.627.827 1.627 1.93s-.697 1.93-1.627 1.93-1.627-.827-1.627-1.93.697-1.93 1.627-1.93zM60.852 91.12c.93 0 1.627.826 1.627 1.929 0 1.103-.697 1.93-1.627 1.93s-1.626-.827-1.626-1.93.697-1.93 1.627-1.93zm-35.094 55.138c.93 0 1.627.827 1.627 1.93s-.698 1.93-1.627 1.93c-.93 0-1.627-.827-1.627-1.93-.233-.827.697-1.93 1.627-1.93zm89.711-127.646c.929 0 1.627.827 1.627 1.93 0 1.102-.698 1.93-1.627 1.93-.93 0-1.627-.828-1.627-1.93 0-.827.697-1.93 1.627-1.93zm-78.556 115.24c.93 0 1.627.827 1.627 1.93 0 1.102-.697 1.93-1.627 1.93s-1.627-.828-1.627-1.93c0-1.103.697-1.93 1.627-1.93zm33.235 22.331c.93 0 1.627.827 1.627 1.93s-.697 1.93-1.627 1.93-1.626-.827-1.626-1.93.697-1.93 1.626-1.93zm69.724 10.201c.93 0 1.627.827 1.627 1.93 0 1.102-.697 1.93-1.627 1.93s-1.627-.828-1.627-1.93c0-1.103.697-1.93 1.627-1.93zM72.706.967c.93 0 1.627.827 1.627 1.93s-.697 1.93-1.627 1.93-1.627-.827-1.627-1.93.697-1.93 1.627-1.93zM145.45 59.69c.93 0 1.627.827 1.627 1.93s-.697 1.93-1.627 1.93-1.627-.827-1.627-1.93c-.232-1.103.697-1.93 1.627-1.93zm5.578 73.059c.93 0 1.627.827 1.627 1.93s-.697 1.93-1.627 1.93c-.929 0-1.627-.827-1.627-1.93 0-.827.698-1.93 1.627-1.93zm-79.718-9.373c.93 0 1.627.827 1.627 1.93 0 1.102-.697 1.929-1.626 1.929-.93 0-1.627-.827-1.627-1.929 0-1.103.697-1.93 1.627-1.93zm84.366-37.77c.929 0 1.627.827 1.627 1.93 0 1.102-.698 1.93-1.627 1.93-.93 0-1.627-.828-1.627-1.93 0-.828.697-1.93 1.627-1.93zm-16.501 51.003c.929 0 1.627.827 1.627 1.93s-.698 1.93-1.627 1.93c-.93 0-1.627-.827-1.627-1.93s.697-1.93 1.627-1.93zm-1.162 19.298c.929 0 1.626.827 1.626 1.93s-.697 1.93-1.626 1.93c-.93 0-1.627-.827-1.627-1.93-.233-1.103.697-1.93 1.627-1.93zM120.582 50.041c.93 0 1.627.827 1.627 1.93s-.697 1.93-1.627 1.93-1.627-.827-1.627-1.93.697-1.93 1.627-1.93zm-51.828 89.601c.93 0 1.627.827 1.627 1.929 0 1.103-.698 1.93-1.627 1.93-.93 0-1.627-.827-1.627-1.93 0-1.102.697-1.929 1.627-1.929z"/></g><defs><clipPath id="clip0"><path fill="#fff" transform="translate(-27 .967)" d="M0 0h185v214.214H0z"/></clipPath></defs></svg>