<svg width="112" height="86" fill="none" xmlns="http://www.w3.org/2000/svg"><path d="M67.354 85.807h33.406c6.142 0 11.136-4.802 11.136-10.707V37.627a5.25 5.25 0 00-1.631-3.785 5.682 5.682 0 00-3.937-1.568h-17.12a15.1 15.1 0 012.438-7.58c2.84-4.235 8.146-7.12 15.774-8.587l4.476-.862V.155h-5.568c-15.495 0-27.315 4.127-35.127 12.27-10.506 10.963-9.448 25.042-9.398 25.636l-.017 15.626v26.767c0 1.42.587 2.781 1.63 3.785a5.683 5.683 0 003.938 1.568zM9.45 12.424C17.262 4.28 29.082.154 44.577.154h5.568v15.09l-4.477.863c-7.627 1.466-12.933 4.352-15.773 8.586a15.114 15.114 0 00-2.439 7.58h17.121c1.477 0 2.893.565 3.937 1.569a5.251 5.251 0 011.631 3.785V75.1c0 5.905-4.994 10.707-11.136 10.707H5.604a5.683 5.683 0 01-3.937-1.569 5.25 5.25 0 01-1.631-3.785V53.687L.052 38.06c-.05-.594-1.108-14.673 9.398-25.636z" fill="#F5D061"/></svg>