<svg width="116" height="29" fill="none" xmlns="http://www.w3.org/2000/svg"><g clip-path="url(#clip0)" fill="#3E84D7"><path d="M41.815 0c-3.357 0-6.713 1.186-9.063 3.557-2.014 1.78-4.364 2.669-7.05 2.669-2.685 0-5.035-.89-7.049-2.669C16.303 1.186 13.283 0 9.59 0 6.233 0 2.876 1.186.526 3.557c-.671.593-.335 1.483 0 1.78.672.592 1.679.296 2.014 0 2.015-1.78 4.364-2.669 7.05-2.669 2.685 0 5.035.89 7.05 2.668 2.349 2.372 5.706 3.558 9.063 3.558 3.356 0 6.713-1.186 9.063-3.558 2.014-1.779 4.364-2.668 7.05-2.668 2.685 0 5.034.89 7.048 2.668 2.35 2.372 5.707 3.558 9.064 3.558s6.714-1.186 9.063-3.558c3.693-3.557 10.406-3.557 14.099 0 2.685 2.372 5.707 3.558 9.4 3.558 3.356 0 6.713-1.186 9.063-3.558 1.678-1.779 4.363-2.668 7.049-2.668 2.685 0 5.035.89 6.713 2.668a1.775 1.775 0 002.35 0c.336-.296.336-1.186 0-1.779C113.315 1.186 109.959 0 106.602 0s-6.714 1.186-9.064 3.557c-2.014 1.78-4.364 2.669-7.049 2.669-2.685 0-5.035-.89-7.05-2.669-4.699-4.743-13.426-4.743-18.126 0-2.014 1.78-4.364 2.669-7.05 2.669-2.685 0-5.035-.89-7.049-2.669C48.53 1.186 45.508 0 41.815 0zm-27.19 19.27c-3.357 0-6.714 1.185-9.064 3.557-2.014 1.779-4.364 2.668-7.049 2.668-2.685 0-5.035-.89-7.05-2.668-2.35-2.372-5.706-3.558-9.063-3.558s-6.713 1.186-9.063 3.558c-.671.593-.336 1.482 0 1.779.671.593 1.678.296 2.014 0 2.014-1.779 4.364-2.668 7.05-2.668 2.685 0 5.035.889 7.049 2.668 2.35 2.371 5.706 3.557 9.063 3.557s6.714-1.186 9.063-3.557c2.015-1.779 4.364-2.668 7.05-2.668 2.685 0 5.035.889 7.049 2.668 2.35 2.371 5.707 3.557 9.064 3.557 3.356 0 6.713-1.186 9.063-3.557 3.692-3.558 10.406-3.558 14.099 0 2.35 2.371 5.706 3.557 9.063 3.557s6.714-1.186 9.063-3.557c2.014-1.779 4.364-2.668 7.05-2.668 2.685 0 5.035.889 7.049 2.668.671.593 1.343.593 2.014 0 .671-.593.671-1.186 0-1.779-2.014-2.372-5.37-3.558-9.063-3.558-3.357 0-6.714 1.186-9.064 3.558-2.014 1.779-4.364 2.668-7.05 2.668-2.684 0-5.034-.89-7.048-2.668-4.7-4.743-13.428-4.743-18.127 0-2.014 1.779-4.364 2.668-7.05 2.668-2.685 0-5.035-.89-7.049-2.668-2.35-2.372-5.37-3.558-9.063-3.558z"/></g><defs><clipPath id="clip0"><path fill="#fff" transform="matrix(-1 0 0 1 116 0)" d="M0 0h143v28.163H0z"/></clipPath></defs></svg>