<svg width="177" height="68" fill="none" xmlns="http://www.w3.org/2000/svg"><g clip-path="url(#clip0)" fill="#3E84D7"><path d="M144.92 0c-7.069 0-14.138 2.824-19.087 8.472-4.242 4.236-9.19 6.354-14.845 6.354-5.656 0-10.604-2.118-14.846-6.354C91.194 2.824 84.832 0 77.055 0c-7.07 0-14.139 2.824-19.087 8.472-1.414 1.412-.707 3.53 0 4.236 1.414 1.412 3.534.706 4.241 0 4.242-4.236 9.19-6.354 14.846-6.354 5.655 0 10.604 2.118 14.845 6.354 4.949 5.649 12.018 8.473 19.088 8.473 7.069 0 14.138-2.824 19.087-8.473 4.241-4.236 9.19-6.354 14.845-6.354 5.656 0 10.604 2.118 14.846 6.354 4.948 5.649 12.017 8.473 19.087 8.473 7.069 0 14.138-2.824 19.087-8.473 7.776-8.472 21.915-8.472 29.691 0 5.655 5.649 12.018 8.473 19.794 8.473 7.069 0 14.138-2.824 19.087-8.473 3.534-4.236 9.19-6.354 14.845-6.354 5.656 0 10.604 2.118 14.139 6.354 1.414 1.412 3.535 1.412 4.948 0 .707-.706.707-2.824 0-4.236C295.496 2.824 288.427 0 281.357 0c-7.069 0-14.138 2.824-19.087 8.472-4.241 4.236-9.19 6.354-14.845 6.354-5.656 0-10.604-2.118-14.846-6.354-9.897-11.297-28.277-11.297-38.174 0-4.241 4.236-9.19 6.354-14.845 6.354-5.656 0-10.604-2.118-14.846-6.354C159.059 2.824 152.696 0 144.92 0zM87.66 45.893c-7.07 0-14.14 2.825-19.088 8.473-4.241 4.236-9.19 6.354-14.845 6.354-5.656 0-10.604-2.118-14.846-6.354-4.948-5.648-12.018-8.473-19.087-8.473-7.07 0-14.138 2.825-19.087 8.473-1.414 1.412-.707 3.53 0 4.236 1.414 1.412 3.535.706 4.242 0 4.241-4.236 9.19-6.354 14.845-6.354 5.656 0 10.604 2.118 14.846 6.354 4.948 5.649 12.017 8.473 19.087 8.473 7.069 0 14.138-2.824 19.087-8.473 4.241-4.236 9.19-6.354 14.845-6.354 5.656 0 10.604 2.118 14.846 6.354 4.948 5.649 12.018 8.473 19.087 8.473 7.069 0 14.138-2.824 19.087-8.473 7.776-8.472 21.915-8.472 29.691 0 4.948 5.649 12.018 8.473 19.087 8.473 7.069 0 14.139-2.824 19.087-8.473 4.242-4.236 9.19-6.354 14.846-6.354 5.655 0 10.604 2.118 14.845 6.354 1.414 1.412 2.828 1.412 4.242 0 1.414-1.412 1.414-2.824 0-4.236-4.242-5.648-11.311-8.473-19.087-8.473-7.07 0-14.139 2.825-19.087 8.473-4.242 4.236-9.191 6.354-14.846 6.354-5.655 0-10.604-2.118-14.845-6.354-9.897-11.297-28.278-11.297-38.175 0-4.241 4.236-9.19 6.354-14.845 6.354-5.656 0-10.604-2.118-14.846-6.354-4.948-5.648-11.31-8.473-19.087-8.473z"/></g><defs><clipPath id="clip0"><path fill="#fff" transform="matrix(-1 0 0 1 301.151 0)" d="M0 0h301.152v67.075H0z"/></clipPath></defs></svg>