<svg width="32" height="41" fill="none" xmlns="http://www.w3.org/2000/svg"><path d="M4.751 20.724C2.28 18.593.775 15.772.775 12.679.775 6.036 7.713.65 16.27.65c8.557 0 15.494 5.385 15.494 12.028 0 3.159-1.568 6.033-4.134 8.18a12.727 12.727 0 011.928 6.743c0 7.207-6.004 13.049-13.41 13.049-7.405 0-13.409-5.842-13.409-13.049 0-2.524.737-4.881 2.012-6.878zm4.365-4.234a13.622 13.622 0 017.032-1.936c2.637 0 5.096.74 7.17 2.02 1.664-1.281 2.405-2.866 2.405-3.895 0-1.972-2.72-5.987-9.453-5.987-6.734 0-9.453 4.015-9.453 5.987 0 1.007.709 2.546 2.299 3.811z" fill="#F5D061"/><path d="M4.751 20.724C2.28 18.593.775 15.772.775 12.679.775 6.036 7.713.65 16.27.65c8.557 0 15.494 5.385 15.494 12.028 0 3.159-1.568 6.033-4.134 8.18a12.727 12.727 0 011.928 6.743c0 7.207-6.004 13.049-13.41 13.049-7.405 0-13.409-5.842-13.409-13.049 0-2.524.737-4.881 2.012-6.878zm4.365-4.234a13.622 13.622 0 017.032-1.936c2.637 0 5.096.74 7.17 2.02 1.664-1.281 2.405-2.866 2.405-3.895 0-1.972-2.72-5.987-9.453-5.987-6.734 0-9.453 4.015-9.453 5.987 0 1.007.709 2.546 2.299 3.811z" stroke="#fff"/><path d="M19.532 20.232s1.567 0 3.61 2.016c1.334 1.318 1.334 3.477 1.334 3.477" stroke="#fff" stroke-width="2" stroke-linecap="round"/></svg>