<svg width="24" height="31" fill="none" xmlns="http://www.w3.org/2000/svg"><path d="M3.196 15.559C1.328 13.948.191 11.816.191 9.479c0-5.021 5.243-9.091 11.71-9.091 6.468 0 11.71 4.07 11.71 9.09 0 2.388-1.185 4.56-3.124 6.182a9.619 9.619 0 011.457 5.097c0 5.446-4.537 9.861-10.134 9.861S1.675 26.203 1.675 20.757a9.62 9.62 0 011.521-5.198zm3.299-3.2a10.295 10.295 0 015.315-1.463c1.992 0 3.85.56 5.418 1.526 1.258-.968 1.818-2.166 1.818-2.944 0-1.49-2.055-4.524-7.144-4.524-5.09 0-7.145 3.034-7.145 4.524 0 .761.536 1.925 1.738 2.88z" fill="#F5D061"/><path d="M3.196 15.559C1.328 13.948.191 11.816.191 9.479c0-5.021 5.243-9.091 11.71-9.091 6.468 0 11.71 4.07 11.71 9.09 0 2.388-1.185 4.56-3.124 6.182a9.619 9.619 0 011.457 5.097c0 5.446-4.537 9.861-10.134 9.861S1.675 26.203 1.675 20.757a9.62 9.62 0 011.521-5.198zm3.299-3.2a10.295 10.295 0 015.315-1.463c1.992 0 3.85.56 5.418 1.526 1.258-.968 1.818-2.166 1.818-2.944 0-1.49-2.055-4.524-7.144-4.524-5.09 0-7.145 3.034-7.145 4.524 0 .761.536 1.925 1.738 2.88z" stroke="#fff"/><path d="M14.366 15.187s1.185 0 2.728 1.524c1.008.995 1.008 2.627 1.008 2.627" stroke="#fff" stroke-width="1.512" stroke-linecap="round"/></svg>