<svg width="35" height="151" fill="none" xmlns="http://www.w3.org/2000/svg"><path d="M.732 78.073v-4.88c2.917-.786 5.104-2.132 6.563-4.04 1.57-1.907 2.524-3.758 2.86-5.553.337-1.907.506-4.32.506-7.236V23.716c0-8.19 1.739-14.024 5.216-17.502C19.468 2.624 24.965.828 32.37.828h2.02V7.56c-6.396 0-10.771 1.346-13.127 4.039-2.132 2.356-3.198 6.563-3.198 12.621v32.648c0 5.386-.785 9.537-2.356 12.454-1.458 2.805-4.263 4.936-8.414 6.395 7.18 2.58 10.77 9.087 10.77 19.521v30.629c0 6.956 1.066 11.612 3.198 13.968 2.244 2.58 6.62 3.87 13.126 3.87v6.732h-1.514c-7.966 0-13.688-1.907-17.166-5.722-3.365-3.702-5.048-10.434-5.048-20.195V94.902c0-1.908-.113-3.534-.337-4.88-.112-1.347-.449-2.918-1.01-4.713-.56-1.907-1.57-3.422-3.029-4.544-1.458-1.234-3.31-2.131-5.553-2.692z" fill="#F5D061"/></svg>