<svg width="28" height="123" fill="none" xmlns="http://www.w3.org/2000/svg"><path d="M.253 63.477V59.53c2.36-.636 4.129-1.724 5.309-3.267 1.27-1.543 2.042-3.04 2.314-4.492.272-1.543.408-3.494.408-5.854V19.51c0-6.625 1.407-11.344 4.22-14.157 2.904-2.904 7.35-4.356 13.34-4.356h1.633v5.445c-5.172 0-8.711 1.089-10.617 3.267-1.724 1.905-2.586 5.309-2.586 10.209v26.408c0 4.356-.636 7.713-1.906 10.073-1.18 2.269-3.449 3.993-6.806 5.173 5.808 2.087 8.712 7.35 8.712 15.79v24.774c0 5.627.862 9.393 2.586 11.298 1.815 2.088 5.354 3.131 10.617 3.131v5.445h-1.225c-6.443 0-11.07-1.542-13.884-4.628-2.723-2.995-4.084-8.44-4.084-16.335V77.09c0-1.543-.09-2.859-.272-3.948-.09-1.089-.363-2.36-.817-3.811-.454-1.543-1.27-2.768-2.45-3.676-1.18-.998-2.677-1.724-4.492-2.178z" fill="#F5D061"/></svg>