<svg width="454" height="314" fill="none" xmlns="http://www.w3.org/2000/svg"><g clip-path="url(#clip0)" fill="#E8E9ED"><path d="M453.92 2.018c0-1.009-1.007-2.018-2.014-2.018s-2.013 1.009-2.013 2.018c0 1.01 1.006 2.018 2.013 2.018 1.343.336 2.014-.673 2.014-2.018zm0 23.88c0-1.009-1.007-2.018-2.014-2.018s-2.013 1.01-2.013 2.018c0 1.01 1.006 2.018 2.013 2.018 1.343 0 2.014-1.009 2.014-2.018zm0 23.881c0-1.009-1.007-2.018-2.014-2.018s-2.013 1.009-2.013 2.018c0 1.01 1.006 2.018 2.013 2.018 1.343 0 2.014-1.009 2.014-2.018zm0 23.544c0-1.009-1.007-2.018-2.014-2.018s-2.013 1.009-2.013 2.018 1.006 2.018 2.013 2.018c1.343.336 2.014-.673 2.014-2.018zm0 23.88c0-1.009-1.007-2.018-2.014-2.018s-2.013 1.01-2.013 2.018c0 1.01 1.006 2.018 2.013 2.018 1.343 0 2.014-.672 2.014-2.018zm0 23.88c0-1.009-1.007-2.018-2.014-2.018s-2.013 1.009-2.013 2.018c0 1.01 1.006 2.019 2.013 2.019 1.343 0 2.014-1.009 2.014-2.019zm0 23.545c0-1.009-1.007-2.018-2.014-2.018s-2.013 1.009-2.013 2.018 1.006 2.018 2.013 2.018c1.343.336 2.014-.673 2.014-2.018zm0 23.88c0-1.009-1.007-2.018-2.014-2.018s-2.013 1.009-2.013 2.018 1.006 2.018 2.013 2.018c1.343 0 2.014-.673 2.014-2.018zm0 23.88c0-1.009-1.007-2.018-2.014-2.018s-2.013 1.009-2.013 2.018 1.006 2.018 2.013 2.018c1.343 0 2.014-1.009 2.014-2.018zm0 23.88c0-1.009-1.007-2.018-2.014-2.018s-2.013 1.009-2.013 2.018 1.006 2.018 2.013 2.018c1.343 0 2.014-1.009 2.014-2.018zm0 23.545c0-1.01-1.007-2.019-2.014-2.019s-2.013 1.009-2.013 2.019c0 1.009 1.006 2.018 2.013 2.018 1.343 0 2.014-.673 2.014-2.018zm0 23.88c0-1.009-1.007-2.018-2.014-2.018s-2.013 1.009-2.013 2.018 1.006 2.018 2.013 2.018c1.343 0 2.014-1.009 2.014-2.018zm0 23.88c0-1.009-1.007-2.018-2.014-2.018s-2.013 1.009-2.013 2.018 1.006 2.018 2.013 2.018c1.343 0 2.014-1.009 2.014-2.018zm-4.027 23.544c0 1.009 1.006 2.018 2.013 2.018s2.014-1.009 2.014-2.018-1.007-2.018-2.014-2.018-2.013 1.009-2.013 2.018zM430.425 2.018c0-1.009-1.007-2.018-2.014-2.018s-2.014 1.009-2.014 2.018c0 1.01 1.007 2.018 2.014 2.018 1.007.336 2.014-.673 2.014-2.018zm0 23.88c0-1.009-1.007-2.018-2.014-2.018s-2.014 1.01-2.014 2.018c0 1.01 1.007 2.018 2.014 2.018s2.014-1.009 2.014-2.018zm0 23.881c0-1.009-1.007-2.018-2.014-2.018s-2.014 1.009-2.014 2.018c0 1.01 1.007 2.018 2.014 2.018s2.014-1.009 2.014-2.018zm0 23.544c0-1.009-1.007-2.018-2.014-2.018s-2.014 1.009-2.014 2.018 1.007 2.018 2.014 2.018c1.007.336 2.014-.673 2.014-2.018zm0 23.88c0-1.009-1.007-2.018-2.014-2.018s-2.014 1.01-2.014 2.018c0 1.01 1.007 2.018 2.014 2.018s2.014-.672 2.014-2.018zm0 23.88c0-1.009-1.007-2.018-2.014-2.018s-2.014 1.009-2.014 2.018c0 1.01 1.007 2.019 2.014 2.019s2.014-1.009 2.014-2.019zm0 23.545c0-1.009-1.007-2.018-2.014-2.018s-2.014 1.009-2.014 2.018 1.007 2.018 2.014 2.018c1.007.336 2.014-.673 2.014-2.018zm0 23.88c0-1.009-1.007-2.018-2.014-2.018s-2.014 1.009-2.014 2.018 1.007 2.018 2.014 2.018 2.014-.673 2.014-2.018zm0 23.88c0-1.009-1.007-2.018-2.014-2.018s-2.014 1.009-2.014 2.018 1.007 2.018 2.014 2.018 2.014-1.009 2.014-2.018zm0 23.88c0-1.009-1.007-2.018-2.014-2.018s-2.014 1.009-2.014 2.018 1.007 2.018 2.014 2.018 2.014-1.009 2.014-2.018zm0 23.545c0-1.01-1.007-2.019-2.014-2.019s-2.014 1.009-2.014 2.019c0 1.009 1.007 2.018 2.014 2.018s2.014-.673 2.014-2.018zm0 23.88c0-1.009-1.007-2.018-2.014-2.018s-2.014 1.009-2.014 2.018 1.007 2.018 2.014 2.018 2.014-1.009 2.014-2.018zm0 23.88c0-1.009-1.007-2.018-2.014-2.018s-2.014 1.009-2.014 2.018 1.007 2.018 2.014 2.018 2.014-1.009 2.014-2.018zm0 23.544c0-1.009-1.007-2.018-2.014-2.018s-2.014 1.009-2.014 2.018 1.007 2.018 2.014 2.018c1.007.336 2.014-.673 2.014-2.018zM406.594 2.018c0-1.009-1.007-2.018-2.014-2.018s-2.014 1.009-2.014 2.018c0 1.01 1.007 2.018 2.014 2.018 1.007.336 2.014-.673 2.014-2.018zm0 23.88c0-1.009-1.007-2.018-2.014-2.018s-2.014 1.01-2.014 2.018c0 1.01 1.007 2.018 2.014 2.018s2.014-1.009 2.014-2.018zm0 23.881c0-1.009-1.007-2.018-2.014-2.018s-2.014 1.009-2.014 2.018c0 1.01 1.007 2.018 2.014 2.018s2.014-1.009 2.014-2.018zm0 23.544c0-1.009-1.007-2.018-2.014-2.018s-2.014 1.009-2.014 2.018 1.007 2.018 2.014 2.018c1.007.336 2.014-.673 2.014-2.018zm0 23.88c0-1.009-1.007-2.018-2.014-2.018s-2.014 1.01-2.014 2.018c0 1.01 1.007 2.018 2.014 2.018s2.014-.672 2.014-2.018zm0 23.88c0-1.009-1.007-2.018-2.014-2.018s-2.014 1.009-2.014 2.018c0 1.01 1.007 2.019 2.014 2.019s2.014-1.009 2.014-2.019zm0 23.545c0-1.009-1.007-2.018-2.014-2.018s-2.014 1.009-2.014 2.018 1.007 2.018 2.014 2.018c1.007.336 2.014-.673 2.014-2.018zm0 23.88c0-1.009-1.007-2.018-2.014-2.018s-2.014 1.009-2.014 2.018 1.007 2.018 2.014 2.018 2.014-.673 2.014-2.018zm0 23.88c0-1.009-1.007-2.018-2.014-2.018s-2.014 1.009-2.014 2.018 1.007 2.018 2.014 2.018 2.014-1.009 2.014-2.018zm0 23.88c0-1.009-1.007-2.018-2.014-2.018s-2.014 1.009-2.014 2.018 1.007 2.018 2.014 2.018 2.014-1.009 2.014-2.018zm0 23.545c0-1.01-1.007-2.019-2.014-2.019s-2.014 1.009-2.014 2.019c0 1.009 1.007 2.018 2.014 2.018s2.014-.673 2.014-2.018zm0 23.88c0-1.009-1.007-2.018-2.014-2.018s-2.014 1.009-2.014 2.018 1.007 2.018 2.014 2.018 2.014-1.009 2.014-2.018zm0 23.88c0-1.009-1.007-2.018-2.014-2.018s-2.014 1.009-2.014 2.018 1.007 2.018 2.014 2.018 2.014-1.009 2.014-2.018zm0 23.544c0-1.009-1.007-2.018-2.014-2.018s-2.014 1.009-2.014 2.018 1.007 2.018 2.014 2.018c1.007.336 2.014-.673 2.014-2.018zM382.764 2.018c0-1.009-1.007-2.018-2.014-2.018s-2.014 1.009-2.014 2.018c0 1.01 1.007 2.018 2.014 2.018 1.007.336 2.014-.673 2.014-2.018zm0 23.88c0-1.009-1.007-2.018-2.014-2.018s-2.014 1.01-2.014 2.018c0 1.01 1.007 2.018 2.014 2.018s2.014-1.009 2.014-2.018zm0 23.881c0-1.009-1.007-2.018-2.014-2.018s-2.014 1.009-2.014 2.018c0 1.01 1.007 2.018 2.014 2.018s2.014-1.009 2.014-2.018zm0 23.544c0-1.009-1.007-2.018-2.014-2.018s-2.014 1.009-2.014 2.018 1.007 2.018 2.014 2.018c1.007.336 2.014-.673 2.014-2.018zm0 23.88c0-1.009-1.007-2.018-2.014-2.018s-2.014 1.01-2.014 2.018c0 1.01 1.007 2.018 2.014 2.018s2.014-.672 2.014-2.018zm0 23.88c0-1.009-1.007-2.018-2.014-2.018s-2.014 1.009-2.014 2.018c0 1.01 1.007 2.019 2.014 2.019s2.014-1.009 2.014-2.019zm0 23.545c0-1.009-1.007-2.018-2.014-2.018s-2.014 1.009-2.014 2.018 1.007 2.018 2.014 2.018c1.007.336 2.014-.673 2.014-2.018zm0 23.88c0-1.009-1.007-2.018-2.014-2.018s-2.014 1.009-2.014 2.018 1.007 2.018 2.014 2.018 2.014-.673 2.014-2.018zm0 23.88c0-1.009-1.007-2.018-2.014-2.018s-2.014 1.009-2.014 2.018 1.007 2.018 2.014 2.018 2.014-1.009 2.014-2.018zm0 23.88c0-1.009-1.007-2.018-2.014-2.018s-2.014 1.009-2.014 2.018 1.007 2.018 2.014 2.018 2.014-1.009 2.014-2.018zm0 23.545c0-1.01-1.007-2.019-2.014-2.019s-2.014 1.009-2.014 2.019c0 1.009 1.007 2.018 2.014 2.018s2.014-.673 2.014-2.018zm0 23.88c0-1.009-1.007-2.018-2.014-2.018s-2.014 1.009-2.014 2.018 1.007 2.018 2.014 2.018 2.014-1.009 2.014-2.018zm0 23.88c0-1.009-1.007-2.018-2.014-2.018s-2.014 1.009-2.014 2.018 1.007 2.018 2.014 2.018 2.014-1.009 2.014-2.018zm0 23.544c0-1.009-1.007-2.018-2.014-2.018s-2.014 1.009-2.014 2.018 1.007 2.018 2.014 2.018c1.007.336 2.014-.673 2.014-2.018zM359.269 2.018c0-1.009-1.007-2.018-2.014-2.018s-2.014 1.009-2.014 2.018c0 1.01 1.007 2.018 2.014 2.018 1.007.336 2.014-.673 2.014-2.018zm0 23.88c0-1.009-1.007-2.018-2.014-2.018s-2.014 1.01-2.014 2.018c0 1.01 1.007 2.018 2.014 2.018s2.014-1.009 2.014-2.018zm0 23.881c0-1.009-1.007-2.018-2.014-2.018s-2.014 1.009-2.014 2.018c0 1.01 1.007 2.018 2.014 2.018s2.014-1.009 2.014-2.018zm0 23.544c0-1.009-1.007-2.018-2.014-2.018s-2.014 1.009-2.014 2.018 1.007 2.018 2.014 2.018c1.007.336 2.014-.673 2.014-2.018zm0 23.88c0-1.009-1.007-2.018-2.014-2.018s-2.014 1.01-2.014 2.018c0 1.01 1.007 2.018 2.014 2.018s2.014-.672 2.014-2.018zm0 23.88c0-1.009-1.007-2.018-2.014-2.018s-2.014 1.009-2.014 2.018c0 1.01 1.007 2.019 2.014 2.019s2.014-1.009 2.014-2.019zm0 23.545c0-1.009-1.007-2.018-2.014-2.018s-2.014 1.009-2.014 2.018 1.007 2.018 2.014 2.018c1.007.336 2.014-.673 2.014-2.018zm0 23.88c0-1.009-1.007-2.018-2.014-2.018s-2.014 1.009-2.014 2.018 1.007 2.018 2.014 2.018 2.014-.673 2.014-2.018zm0 23.88c0-1.009-1.007-2.018-2.014-2.018s-2.014 1.009-2.014 2.018 1.007 2.018 2.014 2.018 2.014-1.009 2.014-2.018zm0 23.88c0-1.009-1.007-2.018-2.014-2.018s-2.014 1.009-2.014 2.018 1.007 2.018 2.014 2.018 2.014-1.009 2.014-2.018zm0 23.545c0-1.01-1.007-2.019-2.014-2.019s-2.014 1.009-2.014 2.019c0 1.009 1.007 2.018 2.014 2.018s2.014-.673 2.014-2.018zm0 23.88c0-1.009-1.007-2.018-2.014-2.018s-2.014 1.009-2.014 2.018 1.007 2.018 2.014 2.018 2.014-1.009 2.014-2.018zm0 23.88c0-1.009-1.007-2.018-2.014-2.018s-2.014 1.009-2.014 2.018 1.007 2.018 2.014 2.018 2.014-1.009 2.014-2.018zm0 23.544c0-1.009-1.007-2.018-2.014-2.018s-2.014 1.009-2.014 2.018 1.007 2.018 2.014 2.018c1.007.336 2.014-.673 2.014-2.018zM335.438 2.018c0-1.009-1.007-2.018-2.014-2.018s-2.014 1.009-2.014 2.018c0 1.01 1.007 2.018 2.014 2.018 1.007.336 2.014-.673 2.014-2.018zm0 23.88c0-1.009-1.007-2.018-2.014-2.018s-2.014 1.01-2.014 2.018c0 1.01 1.007 2.018 2.014 2.018s2.014-1.009 2.014-2.018zm0 23.881c0-1.009-1.007-2.018-2.014-2.018s-2.014 1.009-2.014 2.018c0 1.01 1.007 2.018 2.014 2.018s2.014-1.009 2.014-2.018zm0 23.544c0-1.009-1.007-2.018-2.014-2.018s-2.014 1.009-2.014 2.018 1.007 2.018 2.014 2.018c1.007.336 2.014-.673 2.014-2.018zm0 23.88c0-1.009-1.007-2.018-2.014-2.018s-2.014 1.01-2.014 2.018c0 1.01 1.007 2.018 2.014 2.018s2.014-.672 2.014-2.018zm0 23.88c0-1.009-1.007-2.018-2.014-2.018s-2.014 1.009-2.014 2.018c0 1.01 1.007 2.019 2.014 2.019s2.014-1.009 2.014-2.019zm0 23.545c0-1.009-1.007-2.018-2.014-2.018s-2.014 1.009-2.014 2.018 1.007 2.018 2.014 2.018c1.007.336 2.014-.673 2.014-2.018zm0 23.88c0-1.009-1.007-2.018-2.014-2.018s-2.014 1.009-2.014 2.018 1.007 2.018 2.014 2.018 2.014-.673 2.014-2.018zm0 23.88c0-1.009-1.007-2.018-2.014-2.018s-2.014 1.009-2.014 2.018 1.007 2.018 2.014 2.018 2.014-1.009 2.014-2.018zm0 23.88c0-1.009-1.007-2.018-2.014-2.018s-2.014 1.009-2.014 2.018 1.007 2.018 2.014 2.018 2.014-1.009 2.014-2.018zm0 23.545c0-1.01-1.007-2.019-2.014-2.019s-2.014 1.009-2.014 2.019c0 1.009 1.007 2.018 2.014 2.018s2.014-.673 2.014-2.018zm0 23.88c0-1.009-1.007-2.018-2.014-2.018s-2.014 1.009-2.014 2.018 1.007 2.018 2.014 2.018 2.014-1.009 2.014-2.018zm0 23.88c0-1.009-1.007-2.018-2.014-2.018s-2.014 1.009-2.014 2.018 1.007 2.018 2.014 2.018 2.014-1.009 2.014-2.018zm0 23.544c0-1.009-1.007-2.018-2.014-2.018s-2.014 1.009-2.014 2.018 1.007 2.018 2.014 2.018c1.007.336 2.014-.673 2.014-2.018zM311.609 2.018c0-1.009-1.007-2.018-2.014-2.018s-2.014 1.009-2.014 2.018c0 1.01 1.007 2.018 2.014 2.018 1.007.336 2.014-.673 2.014-2.018zm0 23.88c0-1.009-1.007-2.018-2.014-2.018s-2.014 1.01-2.014 2.018c0 1.01 1.007 2.018 2.014 2.018s2.014-1.009 2.014-2.018zm0 23.881c0-1.009-1.007-2.018-2.014-2.018s-2.014 1.009-2.014 2.018c0 1.01 1.007 2.018 2.014 2.018s2.014-1.009 2.014-2.018zm0 23.544c0-1.009-1.007-2.018-2.014-2.018s-2.014 1.009-2.014 2.018 1.007 2.018 2.014 2.018c1.007.336 2.014-.673 2.014-2.018zm0 23.88c0-1.009-1.007-2.018-2.014-2.018s-2.014 1.01-2.014 2.018c0 1.01 1.007 2.018 2.014 2.018s2.014-.672 2.014-2.018zm0 23.88c0-1.009-1.007-2.018-2.014-2.018s-2.014 1.009-2.014 2.018c0 1.01 1.007 2.019 2.014 2.019s2.014-1.009 2.014-2.019zm0 23.545c0-1.009-1.007-2.018-2.014-2.018s-2.014 1.009-2.014 2.018 1.007 2.018 2.014 2.018c1.007.336 2.014-.673 2.014-2.018zm0 23.88c0-1.009-1.007-2.018-2.014-2.018s-2.014 1.009-2.014 2.018 1.007 2.018 2.014 2.018 2.014-.673 2.014-2.018zm0 23.88c0-1.009-1.007-2.018-2.014-2.018s-2.014 1.009-2.014 2.018 1.007 2.018 2.014 2.018 2.014-1.009 2.014-2.018zm0 23.88c0-1.009-1.007-2.018-2.014-2.018s-2.014 1.009-2.014 2.018 1.007 2.018 2.014 2.018 2.014-1.009 2.014-2.018zm0 23.545c0-1.01-1.007-2.019-2.014-2.019s-2.014 1.009-2.014 2.019c0 1.009 1.007 2.018 2.014 2.018s2.014-.673 2.014-2.018zm0 23.88c0-1.009-1.007-2.018-2.014-2.018s-2.014 1.009-2.014 2.018 1.007 2.018 2.014 2.018 2.014-1.009 2.014-2.018zm0 23.88c0-1.009-1.007-2.018-2.014-2.018s-2.014 1.009-2.014 2.018 1.007 2.018 2.014 2.018 2.014-1.009 2.014-2.018zm0 23.544c0-1.009-1.007-2.018-2.014-2.018s-2.014 1.009-2.014 2.018 1.007 2.018 2.014 2.018c1.007.336 2.014-.673 2.014-2.018zM288.114 2.018C288.114 1.01 287.107 0 286.1 0s-2.014 1.009-2.014 2.018c0 1.01 1.007 2.018 2.014 2.018 1.007.336 2.014-.673 2.014-2.018zm0 23.88c0-1.009-1.007-2.018-2.014-2.018s-2.014 1.01-2.014 2.018c0 1.01 1.007 2.018 2.014 2.018s2.014-1.009 2.014-2.018zm0 23.881c0-1.009-1.007-2.018-2.014-2.018s-2.014 1.009-2.014 2.018c0 1.01 1.007 2.018 2.014 2.018s2.014-1.009 2.014-2.018zm0 23.544c0-1.009-1.007-2.018-2.014-2.018s-2.014 1.009-2.014 2.018 1.007 2.018 2.014 2.018c1.007.336 2.014-.673 2.014-2.018zm0 23.88c0-1.009-1.007-2.018-2.014-2.018s-2.014 1.01-2.014 2.018c0 1.01 1.007 2.018 2.014 2.018s2.014-.672 2.014-2.018zm0 23.88c0-1.009-1.007-2.018-2.014-2.018s-2.014 1.009-2.014 2.018c0 1.01 1.007 2.019 2.014 2.019s2.014-1.009 2.014-2.019zm0 23.545c0-1.009-1.007-2.018-2.014-2.018s-2.014 1.009-2.014 2.018 1.007 2.018 2.014 2.018c1.007.336 2.014-.673 2.014-2.018zm0 23.88c0-1.009-1.007-2.018-2.014-2.018s-2.014 1.009-2.014 2.018 1.007 2.018 2.014 2.018 2.014-.673 2.014-2.018zm0 23.88c0-1.009-1.007-2.018-2.014-2.018s-2.014 1.009-2.014 2.018 1.007 2.018 2.014 2.018 2.014-1.009 2.014-2.018zm0 23.88c0-1.009-1.007-2.018-2.014-2.018s-2.014 1.009-2.014 2.018 1.007 2.018 2.014 2.018 2.014-1.009 2.014-2.018zm-2.349 25.563a2.017 2.017 0 002.014-2.018 2.017 2.017 0 00-2.014-2.019 2.017 2.017 0 00-2.014 2.019c0 1.114.902 2.018 2.014 2.018zm2.349 21.862c0-1.009-1.007-2.018-2.014-2.018s-2.014 1.009-2.014 2.018 1.007 2.018 2.014 2.018 2.014-1.009 2.014-2.018zm0 23.88c0-1.009-1.007-2.018-2.014-2.018s-2.014 1.009-2.014 2.018 1.007 2.018 2.014 2.018 2.014-1.009 2.014-2.018zm0 23.544c0-1.009-1.007-2.018-2.014-2.018s-2.014 1.009-2.014 2.018 1.007 2.018 2.014 2.018c1.007.336 2.014-.673 2.014-2.018zM264.284 2.018c0-1.009-1.007-2.018-2.014-2.018s-2.014 1.009-2.014 2.018c0 1.01 1.007 2.018 2.014 2.018 1.007.336 2.014-.673 2.014-2.018zm0 23.88c0-1.009-1.007-2.018-2.014-2.018s-2.014 1.01-2.014 2.018c0 1.01 1.007 2.018 2.014 2.018s2.014-1.009 2.014-2.018zm0 23.881c0-1.009-1.007-2.018-2.014-2.018s-2.014 1.009-2.014 2.018c0 1.01 1.007 2.018 2.014 2.018s2.014-1.009 2.014-2.018zm0 23.544c0-1.009-1.007-2.018-2.014-2.018s-2.014 1.009-2.014 2.018 1.007 2.018 2.014 2.018c1.007.336 2.014-.673 2.014-2.018zm0 23.88c0-1.009-1.007-2.018-2.014-2.018s-2.014 1.01-2.014 2.018c0 1.01 1.007 2.018 2.014 2.018s2.014-.672 2.014-2.018zm0 23.88c0-1.009-1.007-2.018-2.014-2.018s-2.014 1.009-2.014 2.018c0 1.01 1.007 2.019 2.014 2.019s2.014-1.009 2.014-2.019zm0 23.545c0-1.009-1.007-2.018-2.014-2.018s-2.014 1.009-2.014 2.018 1.007 2.018 2.014 2.018c1.007.336 2.014-.673 2.014-2.018zm0 23.88c0-1.009-1.007-2.018-2.014-2.018s-2.014 1.009-2.014 2.018 1.007 2.018 2.014 2.018 2.014-.673 2.014-2.018zm0 23.88c0-1.009-1.007-2.018-2.014-2.018s-2.014 1.009-2.014 2.018 1.007 2.018 2.014 2.018 2.014-1.009 2.014-2.018zm0 23.88c0-1.009-1.007-2.018-2.014-2.018s-2.014 1.009-2.014 2.018 1.007 2.018 2.014 2.018 2.014-1.009 2.014-2.018zm0 23.545c0-1.01-1.007-2.019-2.014-2.019s-2.014 1.009-2.014 2.019c0 1.009 1.007 2.018 2.014 2.018s2.014-.673 2.014-2.018zm0 23.88c0-1.009-1.007-2.018-2.014-2.018s-2.014 1.009-2.014 2.018 1.007 2.018 2.014 2.018 2.014-1.009 2.014-2.018zm0 23.88c0-1.009-1.007-2.018-2.014-2.018s-2.014 1.009-2.014 2.018 1.007 2.018 2.014 2.018 2.014-1.009 2.014-2.018zm0 23.544c0-1.009-1.007-2.018-2.014-2.018s-2.014 1.009-2.014 2.018 1.007 2.018 2.014 2.018c1.007.336 2.014-.673 2.014-2.018zM240.452 2.018c0-1.009-1.006-2.018-2.013-2.018s-2.014 1.009-2.014 2.018c0 1.01 1.007 2.018 2.014 2.018 1.007.336 2.013-.673 2.013-2.018zm0 23.88c0-1.009-1.006-2.018-2.013-2.018s-2.014 1.01-2.014 2.018c0 1.01 1.007 2.018 2.014 2.018s2.013-1.009 2.013-2.018zm0 23.881c0-1.009-1.006-2.018-2.013-2.018s-2.014 1.009-2.014 2.018c0 1.01 1.007 2.018 2.014 2.018s2.013-1.009 2.013-2.018zm0 23.544c0-1.009-1.006-2.018-2.013-2.018s-2.014 1.009-2.014 2.018 1.007 2.018 2.014 2.018c1.007.336 2.013-.673 2.013-2.018zm0 23.88c0-1.009-1.006-2.018-2.013-2.018s-2.014 1.01-2.014 2.018c0 1.01 1.007 2.018 2.014 2.018s2.013-.672 2.013-2.018zm0 23.88c0-1.009-1.006-2.018-2.013-2.018s-2.014 1.009-2.014 2.018c0 1.01 1.007 2.019 2.014 2.019s2.013-1.009 2.013-2.019zm0 23.545c0-1.009-1.006-2.018-2.013-2.018s-2.014 1.009-2.014 2.018 1.007 2.018 2.014 2.018c1.007.336 2.013-.673 2.013-2.018zm0 23.88c0-1.009-1.006-2.018-2.013-2.018s-2.014 1.009-2.014 2.018 1.007 2.018 2.014 2.018 2.013-.673 2.013-2.018zm0 23.88c0-1.009-1.006-2.018-2.013-2.018s-2.014 1.009-2.014 2.018 1.007 2.018 2.014 2.018 2.013-1.009 2.013-2.018zm0 23.88c0-1.009-1.006-2.018-2.013-2.018s-2.014 1.009-2.014 2.018 1.007 2.018 2.014 2.018 2.013-1.009 2.013-2.018zm0 23.545c0-1.01-1.006-2.019-2.013-2.019s-2.014 1.009-2.014 2.019c0 1.009 1.007 2.018 2.014 2.018s2.013-.673 2.013-2.018zm0 23.88c0-1.009-1.006-2.018-2.013-2.018s-2.014 1.009-2.014 2.018 1.007 2.018 2.014 2.018 2.013-1.009 2.013-2.018zm0 23.88c0-1.009-1.006-2.018-2.013-2.018s-2.014 1.009-2.014 2.018 1.007 2.018 2.014 2.018 2.013-1.009 2.013-2.018zm0 23.544c0-1.009-1.006-2.018-2.013-2.018s-2.014 1.009-2.014 2.018 1.007 2.018 2.014 2.018c1.007.336 2.013-.673 2.013-2.018zM216.622 2.018c0-1.009-1.007-2.018-2.013-2.018-1.007 0-2.014 1.009-2.014 2.018 0 1.01 1.007 2.018 2.014 2.018 1.006 0 2.013-.673 2.013-2.018zm0 23.88c0-1.009-1.007-2.018-2.013-2.018-1.007 0-2.014 1.01-2.014 2.018 0 1.01 1.007 2.018 2.014 2.018 1.006 0 2.013-1.009 2.013-2.018zm0 23.881c0-1.009-1.007-2.018-2.013-2.018-1.007 0-2.014 1.009-2.014 2.018 0 1.01 1.007 2.018 2.014 2.018 1.006 0 2.013-1.009 2.013-2.018zm0 23.544c0-1.009-1.007-2.018-2.013-2.018-1.007 0-2.014 1.009-2.014 2.018s1.007 2.018 2.014 2.018c1.006 0 2.013-.673 2.013-2.018zm0 23.88c0-1.009-1.007-2.018-2.013-2.018-1.007 0-2.014 1.01-2.014 2.018 0 1.01 1.007 2.018 2.014 2.018 1.006 0 2.013-.672 2.013-2.018zm0 23.88c0-1.009-1.007-2.018-2.013-2.018-1.007 0-2.014 1.009-2.014 2.018 0 1.01 1.007 2.019 2.014 2.019 1.342 0 2.013-1.009 2.013-2.019zm0 23.545c0-1.009-1.007-2.018-2.013-2.018-1.007 0-2.014 1.009-2.014 2.018s1.007 2.018 2.014 2.018c1.342.336 2.013-.673 2.013-2.018zm0 23.88c0-1.009-1.007-2.018-2.013-2.018-1.007 0-2.014 1.009-2.014 2.018s1.007 2.018 2.014 2.018c1.342 0 2.013-.673 2.013-2.018zm0 23.88c0-1.009-1.007-2.018-2.013-2.018-1.007 0-2.014 1.009-2.014 2.018s1.007 2.018 2.014 2.018c1.342 0 2.013-1.009 2.013-2.018zm0 23.88c0-1.009-1.007-2.018-2.013-2.018-1.007 0-2.014 1.009-2.014 2.018s1.007 2.018 2.014 2.018c1.342 0 2.013-1.009 2.013-2.018zm0 23.545c0-1.01-1.007-2.019-2.013-2.019-1.007 0-2.014 1.009-2.014 2.019 0 1.009 1.007 2.018 2.014 2.018 1.342 0 2.013-.673 2.013-2.018zm0 23.88c0-1.009-1.007-2.018-2.013-2.018-1.007 0-2.014 1.009-2.014 2.018s1.007 2.018 2.014 2.018c1.342 0 2.013-1.009 2.013-2.018zm0 23.88c0-1.009-1.007-2.018-2.013-2.018-1.007 0-2.014 1.009-2.014 2.018s1.007 2.018 2.014 2.018c1.342 0 2.013-1.009 2.013-2.018zm0 23.544c0-1.009-1.007-2.018-2.013-2.018-1.007 0-2.014 1.009-2.014 2.018s1.007 2.018 2.014 2.018c1.342.336 2.013-.673 2.013-2.018zM193.127 2.018c0-1.009-1.007-2.018-2.014-2.018-1.006 0-2.013 1.009-2.013 2.018 0 1.01 1.007 2.018 2.013 2.018 1.007.336 2.014-.673 2.014-2.018zm0 23.88c0-1.009-1.007-2.018-2.014-2.018-1.006 0-2.013 1.01-2.013 2.018 0 1.01 1.007 2.018 2.013 2.018 1.007 0 2.014-1.009 2.014-2.018zm0 23.881c0-1.009-1.007-2.018-2.014-2.018-1.006 0-2.013 1.009-2.013 2.018 0 1.01 1.007 2.018 2.013 2.018 1.007 0 2.014-1.009 2.014-2.018zm0 23.544c0-1.009-1.007-2.018-2.014-2.018-1.006 0-2.013 1.009-2.013 2.018s1.007 2.018 2.013 2.018c1.007.336 2.014-.673 2.014-2.018zm0 23.88c0-1.009-1.007-2.018-2.014-2.018-1.006 0-2.013 1.01-2.013 2.018 0 1.01 1.007 2.018 2.013 2.018 1.007 0 2.014-.672 2.014-2.018zm0 23.88c0-1.009-1.007-2.018-2.014-2.018-1.006 0-2.013 1.009-2.013 2.018 0 1.01 1.007 2.019 2.013 2.019 1.007 0 2.014-1.009 2.014-2.019zm0 23.545c0-1.009-1.007-2.018-2.014-2.018-1.006 0-2.013 1.009-2.013 2.018s1.007 2.018 2.013 2.018c1.007.336 2.014-.673 2.014-2.018zm0 23.88c0-1.009-1.007-2.018-2.014-2.018-1.006 0-2.013 1.009-2.013 2.018s1.007 2.018 2.013 2.018c1.007 0 2.014-.673 2.014-2.018zm0 23.88c0-1.009-1.007-2.018-2.014-2.018-1.006 0-2.013 1.009-2.013 2.018s1.007 2.018 2.013 2.018c1.007 0 2.014-1.009 2.014-2.018zm0 23.88c0-1.009-1.007-2.018-2.014-2.018-1.006 0-2.013 1.009-2.013 2.018s1.007 2.018 2.013 2.018c1.007 0 2.014-1.009 2.014-2.018zm0 23.545c0-1.01-1.007-2.019-2.014-2.019-1.006 0-2.013 1.009-2.013 2.019 0 1.009 1.007 2.018 2.013 2.018 1.007 0 2.014-.673 2.014-2.018zm0 23.88c0-1.009-1.007-2.018-2.014-2.018-1.006 0-2.013 1.009-2.013 2.018s1.007 2.018 2.013 2.018c1.007 0 2.014-1.009 2.014-2.018zm0 23.88c0-1.009-1.007-2.018-2.014-2.018-1.006 0-2.013 1.009-2.013 2.018s1.007 2.018 2.013 2.018c1.007 0 2.014-1.009 2.014-2.018zm0 23.544c0-1.009-1.007-2.018-2.014-2.018-1.006 0-2.013 1.009-2.013 2.018s1.007 2.018 2.013 2.018c1.007.336 2.014-.673 2.014-2.018zM169.296 2.018c0-1.009-1.007-2.018-2.014-2.018s-2.013 1.009-2.013 2.018c0 1.01 1.006 2.018 2.013 2.018 1.007.336 2.014-.673 2.014-2.018zm0 23.88c0-1.009-1.007-2.018-2.014-2.018s-2.013 1.01-2.013 2.018c0 1.01 1.006 2.018 2.013 2.018s2.014-1.009 2.014-2.018zm0 23.881c0-1.009-1.007-2.018-2.014-2.018s-2.013 1.009-2.013 2.018c0 1.01 1.006 2.018 2.013 2.018s2.014-1.009 2.014-2.018zm0 23.544c0-1.009-1.007-2.018-2.014-2.018s-2.013 1.009-2.013 2.018 1.006 2.018 2.013 2.018c1.007.336 2.014-.673 2.014-2.018zm0 23.88c0-1.009-1.007-2.018-2.014-2.018s-2.013 1.01-2.013 2.018c0 1.01 1.006 2.018 2.013 2.018s2.014-.672 2.014-2.018zm0 23.88c0-1.009-1.007-2.018-2.014-2.018s-2.013 1.009-2.013 2.018c0 1.01 1.006 2.019 2.013 2.019s2.014-1.009 2.014-2.019zm0 23.545c0-1.009-1.007-2.018-2.014-2.018s-2.013 1.009-2.013 2.018 1.006 2.018 2.013 2.018c1.007.336 2.014-.673 2.014-2.018zm0 23.88c0-1.009-1.007-2.018-2.014-2.018s-2.013 1.009-2.013 2.018 1.006 2.018 2.013 2.018 2.014-.673 2.014-2.018zm0 23.88c0-1.009-1.007-2.018-2.014-2.018s-2.013 1.009-2.013 2.018 1.006 2.018 2.013 2.018 2.014-1.009 2.014-2.018zm0 23.88c0-1.009-1.007-2.018-2.014-2.018s-2.013 1.009-2.013 2.018 1.006 2.018 2.013 2.018 2.014-1.009 2.014-2.018zm0 23.545c0-1.01-1.007-2.019-2.014-2.019s-2.013 1.009-2.013 2.019c0 1.009 1.006 2.018 2.013 2.018s2.014-.673 2.014-2.018zm0 23.88c0-1.009-1.007-2.018-2.014-2.018s-2.013 1.009-2.013 2.018 1.006 2.018 2.013 2.018 2.014-1.009 2.014-2.018zm0 23.88c0-1.009-1.007-2.018-2.014-2.018s-2.013 1.009-2.013 2.018 1.006 2.018 2.013 2.018 2.014-1.009 2.014-2.018zm0 23.544c0-1.009-1.007-2.018-2.014-2.018s-2.013 1.009-2.013 2.018 1.006 2.018 2.013 2.018c1.007.336 2.014-.673 2.014-2.018zM145.467 2.018c0-1.009-1.007-2.018-2.014-2.018s-2.014 1.009-2.014 2.018c0 1.01 1.007 2.018 2.014 2.018 1.343.336 2.014-.673 2.014-2.018zm0 23.88c0-1.009-1.007-2.018-2.014-2.018s-2.014 1.01-2.014 2.018c0 1.01 1.007 2.018 2.014 2.018 1.343 0 2.014-1.009 2.014-2.018zm0 23.881c0-1.009-1.007-2.018-2.014-2.018s-2.014 1.009-2.014 2.018c0 1.01 1.007 2.018 2.014 2.018 1.343 0 2.014-1.009 2.014-2.018zm0 23.544c0-1.009-1.007-2.018-2.014-2.018s-2.014 1.009-2.014 2.018 1.007 2.018 2.014 2.018c1.343.336 2.014-.673 2.014-2.018zm0 23.88c0-1.009-1.007-2.018-2.014-2.018s-2.014 1.01-2.014 2.018c0 1.01 1.007 2.018 2.014 2.018 1.343 0 2.014-.672 2.014-2.018zm0 23.88c0-1.009-1.007-2.018-2.014-2.018s-2.014 1.009-2.014 2.018c0 1.01 1.007 2.019 2.014 2.019 1.343 0 2.014-1.009 2.014-2.019zm0 23.545c0-1.009-1.007-2.018-2.014-2.018s-2.014 1.009-2.014 2.018 1.007 2.018 2.014 2.018c1.343.336 2.014-.673 2.014-2.018zm0 23.88c0-1.009-1.007-2.018-2.014-2.018s-2.014 1.009-2.014 2.018 1.007 2.018 2.014 2.018c1.343 0 2.014-.673 2.014-2.018zm0 23.88c0-1.009-1.007-2.018-2.014-2.018s-2.014 1.009-2.014 2.018 1.007 2.018 2.014 2.018c1.343 0 2.014-1.009 2.014-2.018zm0 23.88c0-1.009-1.007-2.018-2.014-2.018s-2.014 1.009-2.014 2.018 1.007 2.018 2.014 2.018c1.343 0 2.014-1.009 2.014-2.018zm0 23.545c0-1.01-1.007-2.019-2.014-2.019s-2.014 1.009-2.014 2.019c0 1.009 1.007 2.018 2.014 2.018 1.343 0 2.014-.673 2.014-2.018zm0 23.88c0-1.009-1.007-2.018-2.014-2.018s-2.014 1.009-2.014 2.018 1.007 2.018 2.014 2.018c1.343 0 2.014-1.009 2.014-2.018zm0 23.88c0-1.009-1.007-2.018-2.014-2.018s-2.014 1.009-2.014 2.018 1.007 2.018 2.014 2.018c1.343 0 2.014-1.009 2.014-2.018zm0 23.544c0-1.009-1.007-2.018-2.014-2.018s-2.014 1.009-2.014 2.018 1.007 2.018 2.014 2.018c1.343.336 2.014-.673 2.014-2.018zM121.972 2.018c0-1.009-1.007-2.018-2.014-2.018s-2.014 1.009-2.014 2.018c0 1.01 1.007 2.018 2.014 2.018 1.007.336 2.014-.673 2.014-2.018zm0 23.88c0-1.009-1.007-2.018-2.014-2.018s-2.014 1.01-2.014 2.018c0 1.01 1.007 2.018 2.014 2.018s2.014-1.009 2.014-2.018zm0 23.881c0-1.009-1.007-2.018-2.014-2.018s-2.014 1.009-2.014 2.018c0 1.01 1.007 2.018 2.014 2.018s2.014-1.009 2.014-2.018zm0 23.544c0-1.009-1.007-2.018-2.014-2.018s-2.014 1.009-2.014 2.018 1.007 2.018 2.014 2.018c1.007.336 2.014-.673 2.014-2.018zm0 23.88c0-1.009-1.007-2.018-2.014-2.018s-2.014 1.01-2.014 2.018c0 1.01 1.007 2.018 2.014 2.018s2.014-.672 2.014-2.018zm0 23.88c0-1.009-1.007-2.018-2.014-2.018s-2.014 1.009-2.014 2.018c0 1.01 1.007 2.019 2.014 2.019s2.014-1.009 2.014-2.019zm0 23.545c0-1.009-1.007-2.018-2.014-2.018s-2.014 1.009-2.014 2.018 1.007 2.018 2.014 2.018c1.007.336 2.014-.673 2.014-2.018zm0 23.88c0-1.009-1.007-2.018-2.014-2.018s-2.014 1.009-2.014 2.018 1.007 2.018 2.014 2.018 2.014-.673 2.014-2.018zm0 23.88c0-1.009-1.007-2.018-2.014-2.018s-2.014 1.009-2.014 2.018 1.007 2.018 2.014 2.018 2.014-1.009 2.014-2.018zm0 23.88c0-1.009-1.007-2.018-2.014-2.018s-2.014 1.009-2.014 2.018 1.007 2.018 2.014 2.018 2.014-1.009 2.014-2.018zm0 23.545c0-1.01-1.007-2.019-2.014-2.019s-2.014 1.009-2.014 2.019c0 1.009 1.007 2.018 2.014 2.018s2.014-.673 2.014-2.018zm0 23.88c0-1.009-1.007-2.018-2.014-2.018s-2.014 1.009-2.014 2.018 1.007 2.018 2.014 2.018 2.014-1.009 2.014-2.018zm0 23.88c0-1.009-1.007-2.018-2.014-2.018s-2.014 1.009-2.014 2.018 1.007 2.018 2.014 2.018 2.014-1.009 2.014-2.018zm0 23.544c0-1.009-1.007-2.018-2.014-2.018s-2.014 1.009-2.014 2.018 1.007 2.018 2.014 2.018c1.007.336 2.014-.673 2.014-2.018zM98.142 2.018C98.142 1.01 97.135 0 96.128 0s-2.014 1.009-2.014 2.018c0 1.01 1.007 2.018 2.014 2.018 1.007.336 2.014-.673 2.014-2.018zm0 23.88c0-1.009-1.007-2.018-2.014-2.018s-2.014 1.01-2.014 2.018c0 1.01 1.007 2.018 2.014 2.018s2.014-1.009 2.014-2.018zm0 23.881c0-1.009-1.007-2.018-2.014-2.018s-2.014 1.009-2.014 2.018c0 1.01 1.007 2.018 2.014 2.018s2.014-1.009 2.014-2.018zm0 23.544c0-1.009-1.007-2.018-2.014-2.018s-2.014 1.009-2.014 2.018 1.007 2.018 2.014 2.018c1.007.336 2.014-.673 2.014-2.018zm0 23.88c0-1.009-1.007-2.018-2.014-2.018s-2.014 1.01-2.014 2.018c0 1.01 1.007 2.018 2.014 2.018s2.014-.672 2.014-2.018zm0 23.88c0-1.009-1.007-2.018-2.014-2.018s-2.014 1.009-2.014 2.018c0 1.01 1.007 2.019 2.014 2.019s2.014-1.009 2.014-2.019zm0 23.545c0-1.009-1.007-2.018-2.014-2.018s-2.014 1.009-2.014 2.018 1.007 2.018 2.014 2.018c1.007.336 2.014-.673 2.014-2.018zm0 23.88c0-1.009-1.007-2.018-2.014-2.018s-2.014 1.009-2.014 2.018 1.007 2.018 2.014 2.018 2.014-.673 2.014-2.018zm0 23.88c0-1.009-1.007-2.018-2.014-2.018s-2.014 1.009-2.014 2.018 1.007 2.018 2.014 2.018 2.014-1.009 2.014-2.018zm0 23.88c0-1.009-1.007-2.018-2.014-2.018s-2.014 1.009-2.014 2.018 1.007 2.018 2.014 2.018 2.014-1.009 2.014-2.018zm0 23.545c0-1.01-1.007-2.019-2.014-2.019s-2.014 1.009-2.014 2.019c0 1.009 1.007 2.018 2.014 2.018s2.014-.673 2.014-2.018zm0 23.88c0-1.009-1.007-2.018-2.014-2.018s-2.014 1.009-2.014 2.018 1.007 2.018 2.014 2.018 2.014-1.009 2.014-2.018zm0 23.88c0-1.009-1.007-2.018-2.014-2.018s-2.014 1.009-2.014 2.018 1.007 2.018 2.014 2.018 2.014-1.009 2.014-2.018zm0 23.544c0-1.009-1.007-2.018-2.014-2.018s-2.014 1.009-2.014 2.018 1.007 2.018 2.014 2.018c1.007.336 2.014-.673 2.014-2.018zM74.31 2.018C74.31 1.01 73.305 0 72.298 0s-2.014 1.009-2.014 2.018c0 1.01 1.007 2.018 2.014 2.018 1.007.336 2.014-.673 2.014-2.018zm0 23.88c0-1.009-1.006-2.018-2.013-2.018s-2.014 1.01-2.014 2.018c0 1.01 1.007 2.018 2.014 2.018s2.014-1.009 2.014-2.018zm0 23.881c0-1.009-1.006-2.018-2.013-2.018s-2.014 1.009-2.014 2.018c0 1.01 1.007 2.018 2.014 2.018s2.014-1.009 2.014-2.018zm0 23.544c0-1.009-1.006-2.018-2.013-2.018s-2.014 1.009-2.014 2.018 1.007 2.018 2.014 2.018c1.007.336 2.014-.673 2.014-2.018zm0 23.88c0-1.009-1.006-2.018-2.013-2.018s-2.014 1.01-2.014 2.018c0 1.01 1.007 2.018 2.014 2.018s2.014-.672 2.014-2.018zm0 23.88c0-1.009-1.006-2.018-2.013-2.018s-2.014 1.009-2.014 2.018c0 1.01 1.007 2.019 2.014 2.019s2.014-1.009 2.014-2.019zm0 23.545c0-1.009-1.006-2.018-2.013-2.018s-2.014 1.009-2.014 2.018 1.007 2.018 2.014 2.018c1.007.336 2.014-.673 2.014-2.018zm0 23.88c0-1.009-1.006-2.018-2.013-2.018s-2.014 1.009-2.014 2.018 1.007 2.018 2.014 2.018 2.014-.673 2.014-2.018zm0 23.88c0-1.009-1.006-2.018-2.013-2.018s-2.014 1.009-2.014 2.018 1.007 2.018 2.014 2.018 2.014-1.009 2.014-2.018zm0 23.88c0-1.009-1.006-2.018-2.013-2.018s-2.014 1.009-2.014 2.018 1.007 2.018 2.014 2.018 2.014-1.009 2.014-2.018zm0 23.545c0-1.01-1.006-2.019-2.013-2.019s-2.014 1.009-2.014 2.019c0 1.009 1.007 2.018 2.014 2.018s2.014-.673 2.014-2.018zm0 23.88c0-1.009-1.006-2.018-2.013-2.018s-2.014 1.009-2.014 2.018 1.007 2.018 2.014 2.018 2.014-1.009 2.014-2.018zm0 23.88c0-1.009-1.006-2.018-2.013-2.018s-2.014 1.009-2.014 2.018 1.007 2.018 2.014 2.018 2.014-1.009 2.014-2.018zm0 23.544c0-1.009-1.006-2.018-2.013-2.018s-2.014 1.009-2.014 2.018 1.007 2.018 2.014 2.018c1.007.336 2.014-.673 2.014-2.018zM50.817 2.018C50.817 1.01 49.81 0 48.803 0s-2.014 1.009-2.014 2.018c0 1.01 1.007 2.018 2.014 2.018 1.007.336 2.014-.673 2.014-2.018zm0 23.88c0-1.009-1.007-2.018-2.014-2.018s-2.014 1.01-2.014 2.018c0 1.01 1.007 2.018 2.014 2.018s2.014-1.009 2.014-2.018zm0 23.881c0-1.009-1.007-2.018-2.014-2.018s-2.014 1.009-2.014 2.018c0 1.01 1.007 2.018 2.014 2.018s2.014-1.009 2.014-2.018zm0 23.544c0-1.009-1.007-2.018-2.014-2.018s-2.014 1.009-2.014 2.018 1.007 2.018 2.014 2.018c1.007.336 2.014-.673 2.014-2.018zm0 23.88c0-1.009-1.007-2.018-2.014-2.018s-2.014 1.01-2.014 2.018c0 1.01 1.007 2.018 2.014 2.018s2.014-.672 2.014-2.018zm0 23.88c0-1.009-1.007-2.018-2.014-2.018s-2.014 1.009-2.014 2.018c0 1.01 1.007 2.019 2.014 2.019s2.014-1.009 2.014-2.019zm0 23.545c0-1.009-1.007-2.018-2.014-2.018s-2.014 1.009-2.014 2.018 1.007 2.018 2.014 2.018c1.007.336 2.014-.673 2.014-2.018zm0 23.88c0-1.009-1.007-2.018-2.014-2.018s-2.014 1.009-2.014 2.018 1.007 2.018 2.014 2.018 2.014-.673 2.014-2.018zm0 23.88c0-1.009-1.007-2.018-2.014-2.018s-2.014 1.009-2.014 2.018 1.007 2.018 2.014 2.018 2.014-1.009 2.014-2.018zm0 23.88c0-1.009-1.007-2.018-2.014-2.018s-2.014 1.009-2.014 2.018 1.007 2.018 2.014 2.018 2.014-1.009 2.014-2.018zm0 23.545c0-1.01-1.007-2.019-2.014-2.019s-2.014 1.009-2.014 2.019c0 1.009 1.007 2.018 2.014 2.018s2.014-.673 2.014-2.018zm0 23.88c0-1.009-1.007-2.018-2.014-2.018s-2.014 1.009-2.014 2.018 1.007 2.018 2.014 2.018 2.014-1.009 2.014-2.018zm0 23.88c0-1.009-1.007-2.018-2.014-2.018s-2.014 1.009-2.014 2.018 1.007 2.018 2.014 2.018 2.014-1.009 2.014-2.018zm0 23.544c0-1.009-1.007-2.018-2.014-2.018s-2.014 1.009-2.014 2.018 1.007 2.018 2.014 2.018c1.007.336 2.014-.673 2.014-2.018zM26.986 2.018C26.986 1.01 25.979 0 24.972 0s-2.014 1.009-2.014 2.018c0 1.01 1.007 2.018 2.014 2.018 1.007.336 2.014-.673 2.014-2.018zm0 23.88c0-1.009-1.007-2.018-2.014-2.018s-2.014 1.01-2.014 2.018c0 1.01 1.007 2.018 2.014 2.018s2.014-1.009 2.014-2.018zm0 23.881c0-1.009-1.007-2.018-2.014-2.018s-2.014 1.009-2.014 2.018c0 1.01 1.007 2.018 2.014 2.018s2.014-1.009 2.014-2.018zm0 23.544c0-1.009-1.007-2.018-2.014-2.018s-2.014 1.009-2.014 2.018 1.007 2.018 2.014 2.018c1.007.336 2.014-.673 2.014-2.018zm0 23.88c0-1.009-1.007-2.018-2.014-2.018s-2.014 1.01-2.014 2.018c0 1.01 1.007 2.018 2.014 2.018s2.014-.672 2.014-2.018zm0 23.88c0-1.009-1.007-2.018-2.014-2.018s-2.014 1.009-2.014 2.018c0 1.01 1.007 2.019 2.014 2.019s2.014-1.009 2.014-2.019zm0 23.545c0-1.009-1.007-2.018-2.014-2.018s-2.014 1.009-2.014 2.018 1.007 2.018 2.014 2.018c1.007.336 2.014-.673 2.014-2.018zm0 23.88c0-1.009-1.007-2.018-2.014-2.018s-2.014 1.009-2.014 2.018 1.007 2.018 2.014 2.018 2.014-.673 2.014-2.018zm0 23.88c0-1.009-1.007-2.018-2.014-2.018s-2.014 1.009-2.014 2.018 1.007 2.018 2.014 2.018 2.014-1.009 2.014-2.018zm0 23.88c0-1.009-1.007-2.018-2.014-2.018s-2.014 1.009-2.014 2.018 1.007 2.018 2.014 2.018 2.014-1.009 2.014-2.018zm0 23.545c0-1.01-1.007-2.019-2.014-2.019s-2.014 1.009-2.014 2.019c0 1.009 1.007 2.018 2.014 2.018s2.014-.673 2.014-2.018zm0 23.88c0-1.009-1.007-2.018-2.014-2.018s-2.014 1.009-2.014 2.018 1.007 2.018 2.014 2.018 2.014-1.009 2.014-2.018zm0 23.88c0-1.009-1.007-2.018-2.014-2.018s-2.014 1.009-2.014 2.018 1.007 2.018 2.014 2.018 2.014-1.009 2.014-2.018zm0 23.544c0-1.009-1.007-2.018-2.014-2.018s-2.014 1.009-2.014 2.018 1.007 2.018 2.014 2.018c1.007.336 2.014-.673 2.014-2.018zM3.156 2.018C3.156 1.01 2.149 0 1.142 0S-.872 1.009-.872 2.018c0 1.01 1.007 2.018 2.014 2.018 1.007.336 2.014-.673 2.014-2.018zm0 23.88c0-1.009-1.007-2.018-2.014-2.018s-2.014 1.01-2.014 2.018c0 1.01 1.007 2.018 2.014 2.018s2.014-1.009 2.014-2.018zm0 23.881c0-1.009-1.007-2.018-2.014-2.018S-.872 48.77-.872 49.779c0 1.01 1.007 2.018 2.014 2.018s2.014-1.009 2.014-2.018zm0 23.544c0-1.009-1.007-2.018-2.014-2.018s-2.014 1.009-2.014 2.018 1.007 2.018 2.014 2.018c1.007.336 2.014-.673 2.014-2.018zm0 23.88c0-1.009-1.007-2.018-2.014-2.018s-2.014 1.01-2.014 2.018c0 1.01 1.007 2.018 2.014 2.018s2.014-.672 2.014-2.018zm0 23.88c0-1.009-1.007-2.018-2.014-2.018s-2.014 1.009-2.014 2.018c0 1.01 1.007 2.019 2.014 2.019s2.014-1.009 2.014-2.019zm0 23.545c0-1.009-1.007-2.018-2.014-2.018s-2.014 1.009-2.014 2.018 1.007 2.018 2.014 2.018c1.007.336 2.014-.673 2.014-2.018zm0 23.88c0-1.009-1.007-2.018-2.014-2.018s-2.014 1.009-2.014 2.018 1.007 2.018 2.014 2.018 2.014-.673 2.014-2.018zm0 23.88c0-1.009-1.007-2.018-2.014-2.018s-2.014 1.009-2.014 2.018 1.007 2.018 2.014 2.018 2.014-1.009 2.014-2.018zm0 23.88c0-1.009-1.007-2.018-2.014-2.018s-2.014 1.009-2.014 2.018 1.007 2.018 2.014 2.018 2.014-1.009 2.014-2.018zm0 23.545c0-1.01-1.007-2.019-2.014-2.019s-2.014 1.009-2.014 2.019c0 1.009 1.007 2.018 2.014 2.018s2.014-.673 2.014-2.018zm0 23.88c0-1.009-1.007-2.018-2.014-2.018s-2.014 1.009-2.014 2.018 1.007 2.018 2.014 2.018 2.014-1.009 2.014-2.018zm0 23.88c0-1.009-1.007-2.018-2.014-2.018s-2.014 1.009-2.014 2.018 1.007 2.018 2.014 2.018 2.014-1.009 2.014-2.018zm0 23.544c0-1.009-1.007-2.018-2.014-2.018s-2.014 1.009-2.014 2.018 1.007 2.018 2.014 2.018c1.007.336 2.014-.673 2.014-2.018z"/></g><defs><clipPath id="clip0"><path fill="#fff" transform="translate(-262)" d="M0 0h715.92v313.471H0z"/></clipPath></defs></svg>