<svg width="160" height="205" fill="none" xmlns="http://www.w3.org/2000/svg"><g clip-path="url(#clip0)" fill="#E8E9ED"><path d="M160 1.316C160 .658 159.343 0 158.687 0c-.657 0-1.314.658-1.314 1.316 0 .659.657 1.317 1.314 1.317.875.22 1.313-.439 1.313-1.317zm0 15.578c0-.658-.657-1.317-1.313-1.317-.657 0-1.314.659-1.314 1.317 0 .658.657 1.316 1.314 1.316.875 0 1.313-.658 1.313-1.316zm0 15.577c0-.658-.657-1.316-1.313-1.316-.657 0-1.314.658-1.314 1.316s.657 1.317 1.314 1.317c.875 0 1.313-.659 1.313-1.317zm0 15.359c0-.66-.657-1.317-1.313-1.317-.657 0-1.314.658-1.314 1.316s.657 1.316 1.314 1.316c.875.22 1.313-.438 1.313-1.316zm0 15.576c0-.658-.657-1.316-1.313-1.316-.657 0-1.314.658-1.314 1.316s.657 1.317 1.314 1.317c.875 0 1.313-.44 1.313-1.317zm0 15.578c0-.659-.657-1.317-1.313-1.317-.657 0-1.314.658-1.314 1.317 0 .658.657 1.316 1.314 1.316.875 0 1.313-.658 1.313-1.316zm0 15.358c0-.658-.657-1.317-1.313-1.317-.657 0-1.314.659-1.314 1.317 0 .658.657 1.316 1.314 1.316.875.22 1.313-.439 1.313-1.316zm0 15.577c0-.658-.657-1.316-1.313-1.316-.657 0-1.314.658-1.314 1.316s.657 1.316 1.314 1.316c.875 0 1.313-.438 1.313-1.316zm0 15.577c0-.658-.657-1.316-1.313-1.316-.657 0-1.314.658-1.314 1.316 0 .659.657 1.317 1.314 1.317.875 0 1.313-.658 1.313-1.317zm0 15.577c0-.658-.657-1.316-1.313-1.316-.657 0-1.314.658-1.314 1.316 0 .659.657 1.317 1.314 1.317.875 0 1.313-.658 1.313-1.317zm0 15.359c0-.659-.657-1.317-1.313-1.317-.657 0-1.314.658-1.314 1.317 0 .658.657 1.316 1.314 1.316.875 0 1.313-.439 1.313-1.316zm0 15.577c0-.658-.657-1.316-1.313-1.316-.657 0-1.314.658-1.314 1.316s.657 1.317 1.314 1.317c.875 0 1.313-.659 1.313-1.317zm0 15.577c0-.658-.657-1.316-1.313-1.316-.657 0-1.314.658-1.314 1.316s.657 1.317 1.314 1.317c.875 0 1.313-.659 1.313-1.317zm-2.627 15.358c0 .658.657 1.316 1.314 1.316.656 0 1.313-.658 1.313-1.316s-.657-1.317-1.313-1.317c-.657 0-1.314.659-1.314 1.317zM144.674 1.316c0-.658-.657-1.316-1.313-1.316-.657 0-1.314.658-1.314 1.316 0 .659.657 1.317 1.314 1.317.656.22 1.313-.439 1.313-1.317zm0 15.578c0-.658-.657-1.317-1.313-1.317-.657 0-1.314.659-1.314 1.317 0 .658.657 1.316 1.314 1.316.656 0 1.313-.658 1.313-1.316zm0 15.577c0-.658-.657-1.316-1.313-1.316-.657 0-1.314.658-1.314 1.316s.657 1.317 1.314 1.317c.656 0 1.313-.659 1.313-1.317zm0 15.359c0-.66-.657-1.317-1.313-1.317-.657 0-1.314.658-1.314 1.316s.657 1.316 1.314 1.316c.656.22 1.313-.438 1.313-1.316zm0 15.576c0-.658-.657-1.316-1.313-1.316-.657 0-1.314.658-1.314 1.316s.657 1.317 1.314 1.317c.656 0 1.313-.44 1.313-1.317zm0 15.578c0-.659-.657-1.317-1.313-1.317-.657 0-1.314.658-1.314 1.317 0 .658.657 1.316 1.314 1.316.656 0 1.313-.658 1.313-1.316zm0 15.358c0-.658-.657-1.317-1.313-1.317-.657 0-1.314.659-1.314 1.317 0 .658.657 1.316 1.314 1.316.656.22 1.313-.439 1.313-1.316zm0 15.577c0-.658-.657-1.316-1.313-1.316-.657 0-1.314.658-1.314 1.316s.657 1.316 1.314 1.316c.656 0 1.313-.438 1.313-1.316zm0 15.577c0-.658-.657-1.316-1.313-1.316-.657 0-1.314.658-1.314 1.316 0 .659.657 1.317 1.314 1.317.656 0 1.313-.658 1.313-1.317zm0 15.577c0-.658-.657-1.316-1.313-1.316-.657 0-1.314.658-1.314 1.316 0 .659.657 1.317 1.314 1.317.656 0 1.313-.658 1.313-1.317zm0 15.359c0-.659-.657-1.317-1.313-1.317-.657 0-1.314.658-1.314 1.317 0 .658.657 1.316 1.314 1.316.656 0 1.313-.439 1.313-1.316zm0 15.577c0-.658-.657-1.316-1.313-1.316-.657 0-1.314.658-1.314 1.316s.657 1.317 1.314 1.317c.656 0 1.313-.659 1.313-1.317zm0 15.577c0-.658-.657-1.316-1.313-1.316-.657 0-1.314.658-1.314 1.316s.657 1.317 1.314 1.317c.656 0 1.313-.659 1.313-1.317zm0 15.358c0-.658-.657-1.317-1.313-1.317-.657 0-1.314.659-1.314 1.317 0 .658.657 1.316 1.314 1.316.656.22 1.313-.439 1.313-1.316zM129.129 1.316c0-.658-.657-1.316-1.313-1.316-.657 0-1.314.658-1.314 1.316 0 .659.657 1.317 1.314 1.317.656.22 1.313-.439 1.313-1.317zm0 15.578c0-.658-.657-1.317-1.313-1.317-.657 0-1.314.659-1.314 1.317 0 .658.657 1.316 1.314 1.316.656 0 1.313-.658 1.313-1.316zm0 15.577c0-.658-.657-1.316-1.313-1.316-.657 0-1.314.658-1.314 1.316s.657 1.317 1.314 1.317c.656 0 1.313-.659 1.313-1.317zm0 15.359c0-.66-.657-1.317-1.313-1.317-.657 0-1.314.658-1.314 1.316s.657 1.316 1.314 1.316c.656.22 1.313-.438 1.313-1.316zm0 15.576c0-.658-.657-1.316-1.313-1.316-.657 0-1.314.658-1.314 1.316s.657 1.317 1.314 1.317c.656 0 1.313-.44 1.313-1.317zm0 15.578c0-.659-.657-1.317-1.313-1.317-.657 0-1.314.658-1.314 1.317 0 .658.657 1.316 1.314 1.316.656 0 1.313-.658 1.313-1.316zm0 15.358c0-.658-.657-1.317-1.313-1.317-.657 0-1.314.659-1.314 1.317 0 .658.657 1.316 1.314 1.316.656.22 1.313-.439 1.313-1.316zm0 15.577c0-.658-.657-1.316-1.313-1.316-.657 0-1.314.658-1.314 1.316s.657 1.316 1.314 1.316c.656 0 1.313-.438 1.313-1.316zm0 15.577c0-.658-.657-1.316-1.313-1.316-.657 0-1.314.658-1.314 1.316 0 .659.657 1.317 1.314 1.317.656 0 1.313-.658 1.313-1.317zm0 15.577c0-.658-.657-1.316-1.313-1.316-.657 0-1.314.658-1.314 1.316 0 .659.657 1.317 1.314 1.317.656 0 1.313-.658 1.313-1.317zm0 15.359c0-.659-.657-1.317-1.313-1.317-.657 0-1.314.658-1.314 1.317 0 .658.657 1.316 1.314 1.316.656 0 1.313-.439 1.313-1.316zm0 15.577c0-.658-.657-1.316-1.313-1.316-.657 0-1.314.658-1.314 1.316s.657 1.317 1.314 1.317c.656 0 1.313-.659 1.313-1.317zm0 15.577c0-.658-.657-1.316-1.313-1.316-.657 0-1.314.658-1.314 1.316s.657 1.317 1.314 1.317c.656 0 1.313-.659 1.313-1.317zm0 15.358c0-.658-.657-1.317-1.313-1.317-.657 0-1.314.659-1.314 1.317 0 .658.657 1.316 1.314 1.316.656.22 1.313-.439 1.313-1.316zM113.584 1.316c0-.658-.656-1.316-1.313-1.316-.657 0-1.314.658-1.314 1.316 0 .659.657 1.317 1.314 1.317.657.22 1.313-.439 1.313-1.317zm0 15.578c0-.658-.656-1.317-1.313-1.317-.657 0-1.314.659-1.314 1.317 0 .658.657 1.316 1.314 1.316s1.313-.658 1.313-1.316zm0 15.577c0-.658-.656-1.316-1.313-1.316-.657 0-1.314.658-1.314 1.316s.657 1.317 1.314 1.317 1.313-.659 1.313-1.317zm0 15.359c0-.66-.656-1.317-1.313-1.317-.657 0-1.314.658-1.314 1.316s.657 1.316 1.314 1.316c.657.22 1.313-.438 1.313-1.316zm0 15.576c0-.658-.656-1.316-1.313-1.316-.657 0-1.314.658-1.314 1.316s.657 1.317 1.314 1.317 1.313-.44 1.313-1.317zm0 15.578c0-.659-.656-1.317-1.313-1.317-.657 0-1.314.658-1.314 1.317 0 .658.657 1.316 1.314 1.316s1.313-.658 1.313-1.316zm0 15.358c0-.658-.656-1.317-1.313-1.317-.657 0-1.314.659-1.314 1.317 0 .658.657 1.316 1.314 1.316.657.22 1.313-.439 1.313-1.316zm0 15.577c0-.658-.656-1.316-1.313-1.316-.657 0-1.314.658-1.314 1.316s.657 1.316 1.314 1.316 1.313-.438 1.313-1.316zm0 15.577c0-.658-.656-1.316-1.313-1.316-.657 0-1.314.658-1.314 1.316 0 .659.657 1.317 1.314 1.317s1.313-.658 1.313-1.317zm0 15.577c0-.658-.656-1.316-1.313-1.316-.657 0-1.314.658-1.314 1.316 0 .659.657 1.317 1.314 1.317s1.313-.658 1.313-1.317zm0 15.359c0-.659-.656-1.317-1.313-1.317-.657 0-1.314.658-1.314 1.317 0 .658.657 1.316 1.314 1.316s1.313-.439 1.313-1.316zm0 15.577c0-.658-.656-1.316-1.313-1.316-.657 0-1.314.658-1.314 1.316s.657 1.317 1.314 1.317 1.313-.659 1.313-1.317zm0 15.577c0-.658-.656-1.316-1.313-1.316-.657 0-1.314.658-1.314 1.316s.657 1.317 1.314 1.317 1.313-.659 1.313-1.317zm0 15.358c0-.658-.656-1.317-1.313-1.317-.657 0-1.314.659-1.314 1.317 0 .658.657 1.316 1.314 1.316.657.22 1.313-.439 1.313-1.316zM98.258 1.316C98.258.658 97.601 0 96.945 0c-.657 0-1.314.658-1.314 1.316 0 .659.657 1.317 1.314 1.317.656.22 1.313-.439 1.313-1.317zm0 15.578c0-.658-.657-1.317-1.313-1.317-.657 0-1.314.659-1.314 1.317 0 .658.657 1.316 1.314 1.316.656 0 1.313-.658 1.313-1.316zm0 15.577c0-.658-.657-1.316-1.313-1.316-.657 0-1.314.658-1.314 1.316s.657 1.317 1.314 1.317c.656 0 1.313-.659 1.313-1.317zm0 15.359c0-.66-.657-1.317-1.313-1.317-.657 0-1.314.658-1.314 1.316s.657 1.316 1.314 1.316c.656.22 1.313-.438 1.313-1.316zm0 15.576c0-.658-.657-1.316-1.313-1.316-.657 0-1.314.658-1.314 1.316s.657 1.317 1.314 1.317c.656 0 1.313-.44 1.313-1.317zm0 15.578c0-.659-.657-1.317-1.313-1.317-.657 0-1.314.658-1.314 1.317 0 .658.657 1.316 1.314 1.316.656 0 1.313-.658 1.313-1.316zm0 15.358c0-.658-.657-1.317-1.313-1.317-.657 0-1.314.659-1.314 1.317 0 .658.657 1.316 1.314 1.316.656.22 1.313-.439 1.313-1.316zm0 15.577c0-.658-.657-1.316-1.313-1.316-.657 0-1.314.658-1.314 1.316s.657 1.316 1.314 1.316c.656 0 1.313-.438 1.313-1.316zm0 15.577c0-.658-.657-1.316-1.313-1.316-.657 0-1.314.658-1.314 1.316 0 .659.657 1.317 1.314 1.317.656 0 1.313-.658 1.313-1.317zm0 15.577c0-.658-.657-1.316-1.313-1.316-.657 0-1.314.658-1.314 1.316 0 .659.657 1.317 1.314 1.317.656 0 1.313-.658 1.313-1.317zm0 15.359c0-.659-.657-1.317-1.313-1.317-.657 0-1.314.658-1.314 1.317 0 .658.657 1.316 1.314 1.316.656 0 1.313-.439 1.313-1.316zm0 15.577c0-.658-.657-1.316-1.313-1.316-.657 0-1.314.658-1.314 1.316s.657 1.317 1.314 1.317c.656 0 1.313-.659 1.313-1.317zm0 15.577c0-.658-.657-1.316-1.313-1.316-.657 0-1.314.658-1.314 1.316s.657 1.317 1.314 1.317c.656 0 1.313-.659 1.313-1.317zm0 15.358c0-.658-.657-1.317-1.313-1.317-.657 0-1.314.659-1.314 1.317 0 .658.657 1.316 1.314 1.316.656.22 1.313-.439 1.313-1.316zM82.713 1.316C82.713.658 82.056 0 81.4 0c-.657 0-1.314.658-1.314 1.316 0 .659.657 1.317 1.314 1.317.656.22 1.313-.439 1.313-1.317zm0 15.578c0-.658-.657-1.317-1.313-1.317-.657 0-1.314.659-1.314 1.317 0 .658.657 1.316 1.314 1.316.656 0 1.313-.658 1.313-1.316zm0 15.577c0-.658-.657-1.316-1.313-1.316-.657 0-1.314.658-1.314 1.316s.657 1.317 1.314 1.317c.656 0 1.313-.659 1.313-1.317zm0 15.359c0-.66-.657-1.317-1.313-1.317-.657 0-1.314.658-1.314 1.316s.657 1.316 1.314 1.316c.656.22 1.313-.438 1.313-1.316zm0 15.576c0-.658-.657-1.316-1.313-1.316-.657 0-1.314.658-1.314 1.316s.657 1.317 1.314 1.317c.656 0 1.313-.44 1.313-1.317zm0 15.578c0-.659-.657-1.317-1.313-1.317-.657 0-1.314.658-1.314 1.317 0 .658.657 1.316 1.314 1.316.656 0 1.313-.658 1.313-1.316zm0 15.358c0-.658-.657-1.317-1.313-1.317-.657 0-1.314.659-1.314 1.317 0 .658.657 1.316 1.314 1.316.656.22 1.313-.439 1.313-1.316zm0 15.577c0-.658-.657-1.316-1.313-1.316-.657 0-1.314.658-1.314 1.316s.657 1.316 1.314 1.316c.656 0 1.313-.438 1.313-1.316zm0 15.577c0-.658-.657-1.316-1.313-1.316-.657 0-1.314.658-1.314 1.316 0 .659.657 1.317 1.314 1.317.656 0 1.313-.658 1.313-1.317zm0 15.577c0-.658-.657-1.316-1.313-1.316-.657 0-1.314.658-1.314 1.316 0 .659.657 1.317 1.314 1.317.656 0 1.313-.658 1.313-1.317zm0 15.359c0-.659-.657-1.317-1.313-1.317-.657 0-1.314.658-1.314 1.317 0 .658.657 1.316 1.314 1.316.656 0 1.313-.439 1.313-1.316zm0 15.577c0-.658-.657-1.316-1.313-1.316-.657 0-1.314.658-1.314 1.316s.657 1.317 1.314 1.317c.656 0 1.313-.659 1.313-1.317zm0 15.577c0-.658-.657-1.316-1.313-1.316-.657 0-1.314.658-1.314 1.316s.657 1.317 1.314 1.317c.656 0 1.313-.659 1.313-1.317zm0 15.358c0-.658-.657-1.317-1.313-1.317-.657 0-1.314.659-1.314 1.317 0 .658.657 1.316 1.314 1.316.656.22 1.313-.439 1.313-1.316zM67.17 1.316C67.17.658 66.512 0 65.855 0s-1.314.658-1.314 1.316c0 .659.657 1.317 1.314 1.317.657.22 1.313-.439 1.313-1.317zm0 15.578c0-.658-.657-1.317-1.314-1.317s-1.314.659-1.314 1.317c0 .658.657 1.316 1.314 1.316s1.313-.658 1.313-1.316zm0 15.577c0-.658-.657-1.316-1.314-1.316s-1.314.658-1.314 1.316.657 1.317 1.314 1.317 1.313-.659 1.313-1.317zm0 15.359c0-.66-.657-1.317-1.314-1.317s-1.314.658-1.314 1.316.657 1.316 1.314 1.316c.657.22 1.313-.438 1.313-1.316zm0 15.576c0-.658-.657-1.316-1.314-1.316s-1.314.658-1.314 1.316.657 1.317 1.314 1.317 1.313-.44 1.313-1.317zm0 15.578c0-.659-.657-1.317-1.314-1.317s-1.314.658-1.314 1.317c0 .658.657 1.316 1.314 1.316s1.313-.658 1.313-1.316zm0 15.358c0-.658-.657-1.317-1.314-1.317s-1.314.659-1.314 1.317c0 .658.657 1.316 1.314 1.316.657.22 1.313-.439 1.313-1.316zm0 15.577c0-.658-.657-1.316-1.314-1.316s-1.314.658-1.314 1.316.657 1.316 1.314 1.316 1.313-.438 1.313-1.316zm0 15.577c0-.658-.657-1.316-1.314-1.316s-1.314.658-1.314 1.316c0 .659.657 1.317 1.314 1.317s1.313-.658 1.313-1.317zm0 15.577c0-.658-.657-1.316-1.314-1.316s-1.314.658-1.314 1.316c0 .659.657 1.317 1.314 1.317s1.313-.658 1.313-1.317zm0 15.359c0-.659-.657-1.317-1.314-1.317s-1.314.658-1.314 1.317c0 .658.657 1.316 1.314 1.316s1.313-.439 1.313-1.316zm0 15.577c0-.658-.657-1.316-1.314-1.316s-1.314.658-1.314 1.316.657 1.317 1.314 1.317 1.313-.659 1.313-1.317zm0 15.577c0-.658-.657-1.316-1.314-1.316s-1.314.658-1.314 1.316.657 1.317 1.314 1.317 1.313-.659 1.313-1.317zm0 15.358c0-.658-.657-1.317-1.314-1.317s-1.314.659-1.314 1.317c0 .658.657 1.316 1.314 1.316.657.22 1.313-.439 1.313-1.316zM51.843 1.316C51.843.658 51.186 0 50.53 0c-.656 0-1.313.658-1.313 1.316 0 .659.657 1.317 1.313 1.317.657.22 1.314-.439 1.314-1.317zm0 15.578c0-.658-.657-1.317-1.314-1.317-.656 0-1.313.659-1.313 1.317 0 .658.657 1.316 1.313 1.316.657 0 1.314-.658 1.314-1.316zm0 15.577c0-.658-.657-1.316-1.314-1.316-.656 0-1.313.658-1.313 1.316s.657 1.317 1.313 1.317c.657 0 1.314-.659 1.314-1.317zm0 15.359c0-.66-.657-1.317-1.314-1.317-.656 0-1.313.658-1.313 1.316s.657 1.316 1.313 1.316c.657.22 1.314-.438 1.314-1.316zm0 15.576c0-.658-.657-1.316-1.314-1.316-.656 0-1.313.658-1.313 1.316s.657 1.317 1.313 1.317c.657 0 1.314-.44 1.314-1.317zm0 15.578c0-.659-.657-1.317-1.314-1.317-.656 0-1.313.658-1.313 1.317 0 .658.657 1.316 1.313 1.316.657 0 1.314-.658 1.314-1.316zm0 15.358c0-.658-.657-1.317-1.314-1.317-.656 0-1.313.659-1.313 1.317 0 .658.657 1.316 1.313 1.316.657.22 1.314-.439 1.314-1.316zm0 15.577c0-.658-.657-1.316-1.314-1.316-.656 0-1.313.658-1.313 1.316s.657 1.316 1.313 1.316c.657 0 1.314-.438 1.314-1.316zm0 15.577c0-.658-.657-1.316-1.314-1.316-.656 0-1.313.658-1.313 1.316 0 .659.657 1.317 1.313 1.317.657 0 1.314-.658 1.314-1.317zm0 15.577c0-.658-.657-1.316-1.314-1.316-.656 0-1.313.658-1.313 1.316 0 .659.657 1.317 1.313 1.317.657 0 1.314-.658 1.314-1.317zm-1.531 16.675c.725 0 1.313-.589 1.313-1.316 0-.727-.588-1.317-1.313-1.317a1.316 1.316 0 000 2.633zm1.531 14.261c0-.658-.657-1.316-1.314-1.316-.656 0-1.313.658-1.313 1.316s.657 1.317 1.313 1.317c.657 0 1.314-.659 1.314-1.317zm0 15.577c0-.658-.657-1.316-1.314-1.316-.656 0-1.313.658-1.313 1.316s.657 1.317 1.313 1.317c.657 0 1.314-.659 1.314-1.317zm0 15.358c0-.658-.657-1.317-1.314-1.317-.656 0-1.313.659-1.313 1.317 0 .658.657 1.316 1.313 1.316.657.22 1.314-.439 1.314-1.316zM36.3 1.316C36.3.658 35.641 0 34.985 0c-.657 0-1.314.658-1.314 1.316 0 .659.657 1.317 1.314 1.317.656.22 1.313-.439 1.313-1.317zm0 15.578c0-.658-.658-1.317-1.314-1.317-.657 0-1.314.659-1.314 1.317 0 .658.657 1.316 1.314 1.316.656 0 1.313-.658 1.313-1.316zm0 15.577c0-.658-.658-1.316-1.314-1.316-.657 0-1.314.658-1.314 1.316s.657 1.317 1.314 1.317c.656 0 1.313-.659 1.313-1.317zm0 15.359c0-.66-.658-1.317-1.314-1.317-.657 0-1.314.658-1.314 1.316s.657 1.316 1.314 1.316c.656.22 1.313-.438 1.313-1.316zm0 15.576c0-.658-.658-1.316-1.314-1.316-.657 0-1.314.658-1.314 1.316s.657 1.317 1.314 1.317c.656 0 1.313-.44 1.313-1.317zm0 15.578c0-.659-.658-1.317-1.314-1.317-.657 0-1.314.658-1.314 1.317 0 .658.657 1.316 1.314 1.316.656 0 1.313-.658 1.313-1.316zm0 15.358c0-.658-.658-1.317-1.314-1.317-.657 0-1.314.659-1.314 1.317 0 .658.657 1.316 1.314 1.316.656.22 1.313-.439 1.313-1.316zm0 15.577c0-.658-.658-1.316-1.314-1.316-.657 0-1.314.658-1.314 1.316s.657 1.316 1.314 1.316c.656 0 1.313-.438 1.313-1.316zm0 15.577c0-.658-.658-1.316-1.314-1.316-.657 0-1.314.658-1.314 1.316 0 .659.657 1.317 1.314 1.317.656 0 1.313-.658 1.313-1.317zm0 15.577c0-.658-.658-1.316-1.314-1.316-.657 0-1.314.658-1.314 1.316 0 .659.657 1.317 1.314 1.317.656 0 1.313-.658 1.313-1.317zm0 15.359c0-.659-.658-1.317-1.314-1.317-.657 0-1.314.658-1.314 1.317 0 .658.657 1.316 1.314 1.316.656 0 1.313-.439 1.313-1.316zm0 15.577c0-.658-.658-1.316-1.314-1.316-.657 0-1.314.658-1.314 1.316s.657 1.317 1.314 1.317c.656 0 1.313-.659 1.313-1.317zm0 15.577c0-.658-.658-1.316-1.314-1.316-.657 0-1.314.658-1.314 1.316s.657 1.317 1.314 1.317c.656 0 1.313-.659 1.313-1.317zm0 15.358c0-.658-.658-1.317-1.314-1.317-.657 0-1.314.659-1.314 1.317 0 .658.657 1.316 1.314 1.316.656.22 1.313-.439 1.313-1.316zM20.754 1.316C20.754.658 20.097 0 19.441 0c-.657 0-1.314.658-1.314 1.316 0 .659.657 1.317 1.314 1.317.656.22 1.313-.439 1.313-1.317zm0 15.578c0-.658-.657-1.317-1.313-1.317-.657 0-1.314.659-1.314 1.317 0 .658.657 1.316 1.314 1.316.656 0 1.313-.658 1.313-1.316zm0 15.577c0-.658-.657-1.316-1.313-1.316-.657 0-1.314.658-1.314 1.316s.657 1.317 1.314 1.317c.656 0 1.313-.659 1.313-1.317zm0 15.359c0-.66-.657-1.317-1.313-1.317-.657 0-1.314.658-1.314 1.316s.657 1.316 1.314 1.316c.656.22 1.313-.438 1.313-1.316zm0 15.576c0-.658-.657-1.316-1.313-1.316-.657 0-1.314.658-1.314 1.316s.657 1.317 1.314 1.317c.656 0 1.313-.44 1.313-1.317zm0 15.578c0-.659-.657-1.317-1.313-1.317-.657 0-1.314.658-1.314 1.317 0 .658.657 1.316 1.314 1.316.656 0 1.313-.658 1.313-1.316zm0 15.358c0-.658-.657-1.317-1.313-1.317-.657 0-1.314.659-1.314 1.317 0 .658.657 1.316 1.314 1.316.656.22 1.313-.439 1.313-1.316zm0 15.577c0-.658-.657-1.316-1.313-1.316-.657 0-1.314.658-1.314 1.316s.657 1.316 1.314 1.316c.656 0 1.313-.438 1.313-1.316zm0 15.577c0-.658-.657-1.316-1.313-1.316-.657 0-1.314.658-1.314 1.316 0 .659.657 1.317 1.314 1.317.656 0 1.313-.658 1.313-1.317zm0 15.577c0-.658-.657-1.316-1.313-1.316-.657 0-1.314.658-1.314 1.316 0 .659.657 1.317 1.314 1.317.656 0 1.313-.658 1.313-1.317zm0 15.359c0-.659-.657-1.317-1.313-1.317-.657 0-1.314.658-1.314 1.317 0 .658.657 1.316 1.314 1.316.656 0 1.313-.439 1.313-1.316zm0 15.577c0-.658-.657-1.316-1.313-1.316-.657 0-1.314.658-1.314 1.316s.657 1.317 1.314 1.317c.656 0 1.313-.659 1.313-1.317zm0 15.577c0-.658-.657-1.316-1.313-1.316-.657 0-1.314.658-1.314 1.316s.657 1.317 1.314 1.317c.656 0 1.313-.659 1.313-1.317zm0 15.358c0-.658-.657-1.317-1.313-1.317-.657 0-1.314.659-1.314 1.317 0 .658.657 1.316 1.314 1.316.656.22 1.313-.439 1.313-1.316zM5.21 1.316C5.21.658 4.552 0 3.895 0S2.582.658 2.582 1.316c0 .659.657 1.317 1.314 1.317s1.313-.439 1.313-1.317zm0 15.578c0-.658-.657-1.317-1.314-1.317s-1.314.659-1.314 1.317c0 .658.657 1.316 1.314 1.316s1.313-.658 1.313-1.316zm0 15.577c0-.658-.657-1.316-1.314-1.316s-1.314.658-1.314 1.316.657 1.317 1.314 1.317 1.313-.659 1.313-1.317zm0 15.359c0-.66-.657-1.317-1.314-1.317s-1.314.658-1.314 1.316.657 1.316 1.314 1.316 1.313-.438 1.313-1.316zm0 15.576c0-.658-.657-1.316-1.314-1.316s-1.314.658-1.314 1.316.657 1.317 1.314 1.317 1.313-.44 1.313-1.317zm0 15.578c0-.659-.657-1.317-1.314-1.317s-1.314.658-1.314 1.317c0 .658.657 1.316 1.314 1.316.875 0 1.313-.658 1.313-1.316zm0 15.358c0-.658-.657-1.317-1.314-1.317s-1.314.659-1.314 1.317c0 .658.657 1.316 1.314 1.316.875.22 1.313-.439 1.313-1.316zm0 15.577c0-.658-.657-1.316-1.314-1.316s-1.314.658-1.314 1.316.657 1.316 1.314 1.316c.875 0 1.313-.438 1.313-1.316zm0 15.577c0-.658-.657-1.316-1.314-1.316s-1.314.658-1.314 1.316c0 .659.657 1.317 1.314 1.317.875 0 1.313-.658 1.313-1.317zm0 15.577c0-.658-.657-1.316-1.314-1.316s-1.314.658-1.314 1.316c0 .659.657 1.317 1.314 1.317.875 0 1.313-.658 1.313-1.317zm0 15.359c0-.659-.657-1.317-1.314-1.317s-1.314.658-1.314 1.317c0 .658.657 1.316 1.314 1.316.875 0 1.313-.439 1.313-1.316zm0 15.577c0-.658-.657-1.316-1.314-1.316s-1.314.658-1.314 1.316.657 1.317 1.314 1.317c.875 0 1.313-.659 1.313-1.317zm0 15.577c0-.658-.657-1.316-1.314-1.316s-1.314.658-1.314 1.316.657 1.317 1.314 1.317c.875 0 1.313-.659 1.313-1.317zm0 15.358c0-.658-.657-1.317-1.314-1.317s-1.314.659-1.314 1.317c0 .658.657 1.316 1.314 1.316.875.22 1.313-.439 1.313-1.316z"/></g><defs><clipPath id="clip0"><path fill="#fff" transform="translate(-307)" d="M0 0h467v204.48H0z"/></clipPath></defs></svg>