<svg width="71" height="71" fill="none" xmlns="http://www.w3.org/2000/svg"><g clip-path="url(#clip0)" fill="#3E84D7"><path d="M39.416 34.208a1.168 1.168 0 01-1.168-1.168v-7.008h-4.673v7.008c0 .646-.523 1.168-1.168 1.168h-7.009v4.672h7.009c.645 0 1.168.523 1.168 1.169v7.008h4.672V40.05a1.17 1.17 0 011.169-1.169h7.008v-4.672h-7.008z"/><path d="M53.434 15.518V14.35c0-1.52-.979-2.805-2.336-3.289v-3.72A7.016 7.016 0 0044.089.334H28.904a7.016 7.016 0 00-7.009 7.009v3.72a3.498 3.498 0 00-2.336 3.289v1.167H9.046v37.38a2.339 2.339 0 002.336 2.336h49.06a2.339 2.339 0 002.337-2.336v-37.38h-9.345zM28.904 8.51a1.17 1.17 0 011.168-1.168H42.92c.645 0 1.168.523 1.168 1.168v2.551a3.498 3.498 0 00-2.336 3.29v1.167H31.24V14.35a3.5 3.5 0 00-2.336-3.289V8.51zm-7.01 5.84h.001a1.17 1.17 0 011.168-1.168h4.672a1.17 1.17 0 011.169 1.168v1.168h-7.01V14.35zm26.868 25.7c0 .646-.523 1.168-1.168 1.168h-7.008v7.008c0 .646-.523 1.168-1.168 1.168h-7.009a1.168 1.168 0 01-1.168-1.168v-7.008h-7.008a1.168 1.168 0 01-1.169-1.168v-7.01c0-.646.524-1.168 1.169-1.168h7.008v-7.009c0-.646.523-1.168 1.168-1.168h7.009c.645 0 1.168.522 1.168 1.168v7.009h7.008c.645 0 1.168.522 1.168 1.168v7.009zM44.09 15.52v-1.17a1.17 1.17 0 011.168-1.169h4.673a1.17 1.17 0 011.168 1.168v1.168H44.09z"/><path d="M66.282 15.518h-1.168v37.38a4.677 4.677 0 01-4.672 4.672h-49.06a4.677 4.677 0 01-4.673-4.672v-37.38H5.54a4.677 4.677 0 00-4.673 4.673v45.556a4.677 4.677 0 004.673 4.672h60.74a4.677 4.677 0 004.673-4.672V20.19a4.678 4.678 0 00-4.672-4.673z"/></g><defs><clipPath id="clip0"><path fill="#fff" transform="translate(.868 .333)" d="M0 0h70.086v70.086H0z"/></clipPath></defs></svg>