<svg width="72" height="71" fill="none" xmlns="http://www.w3.org/2000/svg"><g clip-path="url(#clip0)"><path d="M59.097 53.708L48.1 42.712a8.811 8.811 0 00-4.1-2.317V24.626c1.22 0 2.212-.992 2.212-2.212V17.99c0-1.22-.992-2.212-2.212-2.212v-2.213h1.106c.61 0 1.106-.494 1.106-1.106V9.141h-9.955a1.106 1.106 0 110-2.212h9.955V5.823a3.322 3.322 0 00-3.319-3.319H14.137a3.322 3.322 0 00-3.319 3.319v1.106h6.637a1.106 1.106 0 110 2.212h-6.637v3.318c0 .612.496 1.106 1.107 1.106h1.106v2.213c-1.22 0-2.213.992-2.213 2.212v4.424c0 1.22.993 2.212 2.213 2.212v5.53H29.62c.61 0 1.106.495 1.106 1.107v19.94H29.62c-.454 0-.898.046-1.335.113.077-.011.15-.035.229-.045V32.367H13.029v4.425h12.168a1.106 1.106 0 110 2.212H13.03v4.424h12.167a1.106 1.106 0 110 2.212H13.03v4.425h8.848a1.106 1.106 0 110 2.212H13.03V56.7h8.4c.006-.014.015-.027.021-.042a8.788 8.788 0 00-.597 2.255H13.03v5.53a4.429 4.429 0 004.424 4.425h11.524c.213.015.425.033.643.033h15.486a8.788 8.788 0 003.9-.918 8.854 8.854 0 003.806.877c2.302 0 4.581-.89 6.284-2.593 3.463-3.463 3.463-9.096 0-12.56zm-12.561-9.431l4.716 4.715-2.854 2.855a8.788 8.788 0 00-3.292-.642h-9.55c-.023-.062-.05-.121-.07-.184-.696-2.17-.185-4.674 1.305-6.395 2.488-2.872 7.064-3.03 9.745-.35zM21.878 6.927h9.955a1.106 1.106 0 110 2.213h-9.955a1.106 1.106 0 110-2.212zm-6.636 6.637h26.546v2.213H15.242v-2.213zm-1.106 8.85H13.03v-4.425H44l.002 4.424H14.136zm22.122 44.275H29.62c-.184 0-.367-.013-.553-.028-5.355-.416-7.943-7.16-4.333-11.092a6.67 6.67 0 014.886-2.152h6.636v13.272zm14.594-3.329a6.965 6.965 0 01-.492.733c-.339.44-.734.84-1.177 1.186-.022.018-.046.034-.068.05a6.584 6.584 0 01-4.01 1.36H38.47V53.416h6.637a6.643 6.643 0 016.636 6.637c0 .272-.02.54-.054.807-.008.061-.019.121-.028.182a6.562 6.562 0 01-.133.657l-.032.126a6.67 6.67 0 01-.643 1.534l-.001.001zm6.68 1.344a6.678 6.678 0 01-6.326 1.749c.01-.011.022-.025.033-.035a8.81 8.81 0 00.532-.564l.06-.065a8.807 8.807 0 002.124-5.736c0-2.895-1.404-5.46-3.559-7.077l2.42-2.42 4.717 4.716c2.6 2.6 2.6 6.832 0 9.432z" fill="#3E84D7"/></g><defs><clipPath id="clip0"><path fill="#fff" transform="translate(3.057 2.504)" d="M0 0h66.397v66.397H0z"/></clipPath></defs></svg>