<svg width="71" height="71" fill="none" xmlns="http://www.w3.org/2000/svg"><g clip-path="url(#clip0)"><path d="M67.898 54.374l-11.27-11.27v-12.4l-.002-.013a18.019 18.019 0 00-5.092-12.538l-.746-.773v-5.366h1.168c.645 0 1.168-.522 1.168-1.168V7.342H37.939a1.168 1.168 0 110-2.336h15.185V3.838A3.509 3.509 0 0049.62.333H7.568a3.509 3.509 0 00-3.504 3.505v1.168h12.849a1.168 1.168 0 110 2.336H4.063v3.504c0 .646.524 1.168 1.169 1.168H6.4v5.368l-.747.772a18.013 18.013 0 00-5.09 12.538l-.002.013v35.042a4.677 4.677 0 004.672 4.672h47.892a9.28 9.28 0 004.12-.97c1.28.61 2.65.927 4.019.927a9.38 9.38 0 006.636-2.738c3.656-3.657 3.656-9.608-.002-13.264zm-8.283-4.982l-3.013 3.015a9.29 9.29 0 00-3.478-.677H43.04c-.024-.066-.053-.129-.074-.195a7.123 7.123 0 01.138-4.683c1.04-2.702 3.665-4.463 6.552-4.463 1.815 0 3.63.675 4.98 2.024l4.98 4.98zm-19.257 1.17H25.09a1.168 1.168 0 110-2.337h15.272c-.028.224-.036.45-.049.675-.005.119-.023.237-.024.356a9.37 9.37 0 00.069 1.306zM25.09 44.72a1.168 1.168 0 01-.001-2.335h18.35c-.14.124-.284.243-.418.376a9.241 9.241 0 00-.884 1.035c-.089.12-.162.245-.244.368-.124.185-.258.364-.368.556H25.09zm-1.17-7.007a1.17 1.17 0 011.169-1.169h25.698a1.168 1.168 0 110 2.337H25.09a1.168 1.168 0 01-1.168-1.168zM21.586 5.006h11.681a1.168 1.168 0 110 2.336h-11.68a1.168 1.168 0 110-2.336zm-12.85 7.008h39.716v4.673H8.736v-4.673zm-1.404 7.764l.73-.755h41.061l.732.755a15.672 15.672 0 014.379 9.758H2.953a15.676 15.676 0 014.38-9.759zm.236 24.943a1.168 1.168 0 110-2.336h4.672v-4.672a1.168 1.168 0 112.337 0v4.672h4.672a1.168 1.168 0 110 2.336h-4.672v4.673a1.168 1.168 0 11-2.337 0V44.72H7.568zM5.232 68.083a2.339 2.339 0 01-2.336-2.336V57.57h25.218c-.309 0-.629 2.42-.653 2.699a9.185 9.185 0 00.135 2.529 9.466 9.466 0 002.808 5.098c.066.061.125.129.192.187H5.232zm38.546 0H36.77a7.016 7.016 0 01-7.008-7.008c0-3.327 2.437-6.209 5.678-6.869 1.109-.225 2.287-.14 3.415-.14h4.923v14.017zm15.414-3.516a7.303 7.303 0 01-.483.726l-.037.047a7.086 7.086 0 01-1.242 1.254c-.024.019-.048.035-.072.052a6.952 6.952 0 01-4.234 1.437h-7.008V54.066h7.008a7.017 7.017 0 017.009 7.009c0 .287-.023.57-.058.852-.008.064-.02.127-.029.192a6.82 6.82 0 01-.14.694l-.034.133a7.054 7.054 0 01-.678 1.62l-.002.001zm7.055 1.42a7.054 7.054 0 01-6.683 1.846c.013-.011.023-.025.035-.037a9.7 9.7 0 00.563-.595l.063-.069a9.3 9.3 0 002.243-6.057c0-3.057-1.483-5.767-3.758-7.474l2.556-2.556 4.98 4.981c2.746 2.745 2.746 7.214 0 9.96z" fill="#3E84D7"/></g><defs><clipPath id="clip0"><path fill="#fff" transform="translate(.559 .333)" d="M0 0h70.086v70.086H0z"/></clipPath></defs></svg>