<svg width="71" height="71" fill="none" xmlns="http://www.w3.org/2000/svg"><g clip-path="url(#clip0)" fill="#3E84D7"><path d="M28.061 64.161h15.343c-1.542-1.707-2.45-4.249-2.63-7.51H30.691c-.181 3.261-1.089 5.803-2.63 7.51zm23.943 2.504h-32.54c-.69 0-1.252.562-1.252 1.251 0 .69.562 1.252 1.252 1.252h32.54c.69 0 1.251-.562 1.251-1.252s-.562-1.251-1.251-1.251zM4.445 46.64H.69v5.005a2.506 2.506 0 002.505 2.504h65.077a2.506 2.506 0 002.505-2.504V46.64H4.445zm35.043 5.006h-7.51a1.252 1.252 0 010-2.503h7.51a1.252 1.252 0 010 2.503zm-2.503-17.522a1.252 1.252 0 01-2.503 0v-2.96l-12.515-5.89V32.1l13.767 6.884L49.5 32.099v-6.824l-12.516 5.89v2.96z"/><path d="M3.194 5.34c0-.692.56-1.252 1.251-1.252h62.577c.691 0 1.252.56 1.252 1.251v38.798h2.503V4.089a2.506 2.506 0 00-2.504-2.505H3.195A2.506 2.506 0 00.69 4.09v40.048h2.504V5.339z"/><path d="M51.41 21.609H36.987v1.251a1.252 1.252 0 01-2.504 0v-5.006a1.252 1.252 0 012.504 0v1.252H51.41l-15.677-7.378-18.337 8.63 18.337 8.628L51.41 21.61z"/><path d="M5.696 44.137H65.77V6.591H5.696v37.546zm8.228-24.912L35.2 9.213a1.253 1.253 0 011.066 0l.233.109.654.308c5.791 2.724 11.582 5.45 17.374 8.176l1.895.89.756.356c.125.06.259.11.38.177.434.237.702.704.702 1.196v10.817l2.293 3.44a1.252 1.252 0 01-2.083 1.389l-1.462-2.193-1.462 2.193a1.25 1.25 0 01-1.736.346 1.252 1.252 0 01-.346-1.736l2.292-3.439v-8.913l-3.753 1.767v8.777c0 .474-.268.908-.692 1.12l-15.019 7.51a1.26 1.26 0 01-1.119 0l-15.018-7.51a1.254 1.254 0 01-.692-1.12v-8.777l-5.54-2.607a1.25 1.25 0 010-2.264z"/></g><defs><clipPath id="clip0"><path fill="#fff" transform="translate(.69 .333)" d="M0 0h70.086v70.086H0z"/></clipPath></defs></svg>