<svg width="71" height="71" fill="none" xmlns="http://www.w3.org/2000/svg"><g clip-path="url(#clip0)" fill="#3E84D7"><path d="M52.016 38.22H19.31a1.17 1.17 0 000 2.336h32.705a1.17 1.17 0 000-2.336z"/><path d="M70.703 44.973V33.804a2.594 2.594 0 00-2.591-2.591h-5.585v-3.504c0-4.043-2.531-7.402-5.84-8.054V14.86a2.34 2.34 0 002.336-2.336v-2.336a2.339 2.339 0 00-2.336-2.336h-1.168V4.167A3.327 3.327 0 0052.196.844h-2.7a3.327 3.327 0 00-3.323 3.323v3.685h-1.168a2.338 2.338 0 00-2.336 2.336v2.336a2.34 2.34 0 002.336 2.336v4.795c-3.309.652-5.84 4.01-5.84 8.054v3.504h-7.008v-3.504c0-4.043-2.531-7.401-5.84-8.054V14.86a2.34 2.34 0 002.336-2.336v-2.336a2.338 2.338 0 00-2.336-2.336h-1.168V4.167A3.329 3.329 0 0021.824.844h-2.7a3.327 3.327 0 00-3.322 3.323v3.685h-1.168a2.338 2.338 0 00-2.336 2.336v2.336a2.34 2.34 0 002.336 2.336v4.795c-3.31.652-5.84 4.01-5.84 8.054v3.504H3.208a2.595 2.595 0 00-2.592 2.591v11.17a2.586 2.586 0 002.336 2.566v7.06a2.586 2.586 0 00-2.336 2.565v11.17a2.595 2.595 0 002.592 2.591h64.899a2.594 2.594 0 002.592-2.592V57.165a2.586 2.586 0 00-2.337-2.566v-7.06a2.586 2.586 0 002.34-2.566zm-23.36-34.785h9.344l.001 2.336H45.007v-2.336h2.336zm-5.84 17.52c0-3.22 2.095-5.84 4.671-5.84h9.345c2.256 0 4.143 2.01 4.577 4.672H49.678c-.644 0-1.168.522-1.168 1.168v3.504h-7.008v-3.504zm18.688 1.169v2.336h-9.344v-2.336h9.344zm-43.218-18.69h9.345l.001 2.337H14.637v-2.336h2.336zm-5.84 17.521c0-3.22 2.096-5.84 4.672-5.84h9.345c2.256 0 4.143 2.01 4.577 4.672H19.31c-.644 0-1.168.522-1.168 1.168v3.504h-7.008v-3.504zm18.689 1.169v2.336h-9.345v-2.336h9.345zM5.292 47.565h3.505v7.009H5.293v-7.009zm11.681 16.353H7.63a1.168 1.168 0 110-2.336h9.344a1.168 1.168 0 110 2.336zm1.168-9.344h-7.008v-7.009h7.008v7.009zm-2.336-15.185a3.508 3.508 0 013.504-3.504h32.706a3.508 3.508 0 013.504 3.504 3.508 3.508 0 01-3.504 3.504H19.309a3.508 3.508 0 01-3.504-3.504zm23.361 8.176v7.009h-7.008v-7.009h7.008zm-18.689 0h9.345v7.009h-9.345v-7.009zm4.673 16.353h-2.336a1.168 1.168 0 110-2.336h2.336a1.168 1.168 0 110 2.336zm15.184 0H30.99a1.168 1.168 0 110-2.336h9.344a1.168 1.168 0 110 2.336zm7.008 0h-1.167a1.168 1.168 0 110-2.336h1.168a1.168 1.168 0 110 2.336zm1.168-9.344h-7.008v-7.009h7.008v7.009zm2.337-7.009h9.344v7.009h-9.344v-7.009zm11.68 16.353h-9.344a1.168 1.168 0 110-2.336h9.344a1.168 1.168 0 110 2.336zm3.504-9.344h-3.504v-7.009h3.504v7.009z"/></g><defs><clipPath id="clip0"><path fill="#fff" transform="translate(.617 .841)" d="M0 0h70.086v70.086H0z"/></clipPath></defs></svg>