<svg width="71" height="71" fill="none" xmlns="http://www.w3.org/2000/svg"><g clip-path="url(#clip0)" fill="#3E84D7"><path d="M63.006 40.556c0-5.097-3.689-8.844-3.846-9.002a1.167 1.167 0 00-.826-.342h-1.085l4.372-6.33a1.168 1.168 0 00-1.902-1.359l-5.31 7.688H39.644c-.31 0-.607.122-.826.342-.157.157-3.846 3.905-3.846 9.002 0 7.336 5.666 13.361 12.849 13.958v9.406h-1.168c-3.22 0-5.84 2.62-5.84 5.84 0 .646.523 1.168 1.167 1.168h14.018c.644 0 1.168-.522 1.168-1.168 0-3.22-2.62-5.84-5.841-5.84h-1.168v-9.405c7.183-.597 12.85-6.622 12.85-13.958zM48.99 49.901c-5.153 0-9.345-4.192-9.345-9.345 0-.645.523-1.168 1.168-1.168h16.354c.644 0 1.168.523 1.168 1.168 0 5.153-4.193 9.345-9.345 9.345z"/><path d="M42.077 41.725c.559 3.31 3.445 5.84 6.912 5.84s6.353-2.53 6.91-5.84H42.077zm-21.123-1.169h10.513V38.22H17.45v16.353h14.017v-2.336H20.955a1.168 1.168 0 110-2.336h10.512v-2.336H20.955a1.168 1.168 0 110-2.337h10.512v-2.336H20.955a1.168 1.168 0 110-2.336z"/><path d="M26.793 63.919h4.672V56.91H16.28a1.168 1.168 0 01-1.168-1.168v-18.69c0-.646.523-1.168 1.168-1.168h15.185v-5.84c.002-3.262-1.648-6.205-4.204-7.5-.993-.504-1.634-1.642-1.634-2.899v-4.787a2.34 2.34 0 002.336-2.336v-2.336a2.339 2.339 0 00-2.336-2.336h-1.168V4.164A3.327 3.327 0 0021.136.841h-2.7a3.327 3.327 0 00-3.323 3.323V7.85h-1.168a2.339 2.339 0 00-2.336 2.336v2.336a2.34 2.34 0 002.336 2.336v4.787c0 1.257-.641 2.396-1.634 2.898-2.556 1.295-4.207 4.24-4.207 7.5V63.92h14.018a1.168 1.168 0 110 2.336H8.104v1.162a3.514 3.514 0 003.51 3.51h16.342a3.513 3.513 0 003.51-3.51v-1.162h-4.673a1.168 1.168 0 110-2.336zM13.946 12.522v-2.336h11.681l.001 2.336H13.946z"/></g><defs><clipPath id="clip0"><path fill="#fff" transform="translate(.512 .841)" d="M0 0h70.086v70.086H0z"/></clipPath></defs></svg>