<svg width="71" height="71" fill="none" xmlns="http://www.w3.org/2000/svg"><path d="M51.744 48.992H48.46a1.095 1.095 0 000 2.19h3.285a1.095 1.095 0 000-2.19zm4.402 8.76H53.91a2.17 2.17 0 00-2.167 2.167v2.237a2.17 2.17 0 002.167 2.168h2.237a2.17 2.17 0 002.168-2.168V59.92a2.17 2.17 0 00-2.168-2.167zm-39.422 0h-2.238a2.17 2.17 0 00-2.167 2.167v2.237a2.17 2.17 0 002.167 2.168h2.238a2.17 2.17 0 002.167-2.168V59.92a2.17 2.17 0 00-2.167-2.167z" fill="#3E84D7"/><path d="M68.044 49.91l-.007-.04c-.61-2.997-3.264-5.26-6.438-5.26h-2.19v-6.89a6.258 6.258 0 00-6.25-6.25h-9.082v-4.382a4.384 4.384 0 00-4.379-4.38H6.843a4.384 4.384 0 00-4.38 4.38v31.759c0 .604.492 1.095 1.096 1.095h4.468a7.763 7.763 0 00-.087 1.095c0 4.227 3.438 7.666 7.665 7.666h13.141a1.095 1.095 0 000-2.19H20.96a7.64 7.64 0 002.31-5.476c0-.372-.036-.736-.087-1.095H47.45a7.719 7.719 0 00-.087 1.095 7.65 7.65 0 002.31 5.476h-7.786a1.095 1.095 0 000 2.19h25.187a1.096 1.096 0 000-2.19h-6.69a7.64 7.64 0 002.31-5.476c0-.372-.036-.736-.087-1.095h4.467c.605 0 1.096-.49 1.096-1.095V51.18c0-.22-.012-.44-.033-.66a6.91 6.91 0 00-.093-.61zM53.157 33.66c1.562 0 2.903.894 3.583 2.19h-9.377c-.605 0-1.096.49-1.096 1.095v4.38c0 .605.491 1.095 1.096 1.095h9.856v2.19H44.077V33.66h9.08zM11.34 49.596l10.95-21.901c.372-.743 1.589-.743 1.96 0L35.2 49.596a1.094 1.094 0 01-.98 1.585h-21.9c-.38 0-.732-.197-.932-.52a1.098 1.098 0 01-.047-1.065zm-2.655 8.156H4.654v-2.19h5.595a7.687 7.687 0 00-.835.974c-.02.025-.038.05-.056.075a7.79 7.79 0 00-.65 1.101c-.006.014-.016.025-.023.04zm6.92 8.76c-2.607 0-4.918-1.924-5.387-4.49-.365-2 .492-4.15 2.12-5.363a5.56 5.56 0 014.996-.803c2.18.728 3.746 2.877 3.746 5.18a5.482 5.482 0 01-5.475 5.477zm6.247-9.901c-.018-.026-.038-.05-.055-.075a7.898 7.898 0 00-.832-.97l-.004-.005h20.926v2.19H22.524c-.006-.014-.015-.025-.022-.039a7.665 7.665 0 00-.65-1.102zm33.177 9.902a5.482 5.482 0 01-5.476-5.476c0-2.121 1.334-4.143 3.271-4.998a5.545 5.545 0 014.755.167c1.751.926 2.924 2.847 2.924 4.83a5.48 5.48 0 01-5.474 5.477zm6.92-8.761l-.03-.05c-1.272-2.615-4.023-4.344-6.937-4.325-2.88.017-5.588 1.74-6.844 4.324-.008.018-.02.033-.028.05h-4.031v-10.95H61.6c1.614 0 3.012.887 3.772 2.19h-2.676c-.605 0-1.096.49-1.096 1.095v4.38c0 .605.49 1.095 1.096 1.095h3.284v2.19h-4.03zM7.94 66.512H3.56a1.096 1.096 0 000 2.19h4.38a1.096 1.096 0 000-2.19z" fill="#3E84D7"/><path d="M37.507 66.512h-4.38a1.095 1.095 0 000 2.19h4.38a1.096 1.096 0 000-2.19zM6.844 15.043h10.951a4.385 4.385 0 004.38-4.38c0-2.565-2.264-4.63-4.828-4.357a5.493 5.493 0 00-5.027-3.31 5.497 5.497 0 00-5.03 3.31c-2.557-.276-4.826 1.792-4.826 4.357a4.385 4.385 0 004.38 4.38zm45.995 6.571h10.95a4.385 4.385 0 004.38-4.38c0-2.565-2.263-4.628-4.828-4.357a5.493 5.493 0 00-5.027-3.31 5.496 5.496 0 00-5.029 3.31c-2.556-.275-4.827 1.792-4.827 4.357a4.385 4.385 0 004.38 4.38zM23.27 30.633L14.093 48.99H32.45l-9.18-18.358zm1.096 15.073a1.095 1.095 0 01-2.19 0V44.61a1.095 1.095 0 012.19 0v1.096zm-1.095-4.38a1.096 1.096 0 01-1.095-1.096v-4.38a1.095 1.095 0 012.19 0v4.38c0 .605-.49 1.095-1.095 1.095z" fill="#3E84D7"/></svg>