<svg width="71" height="71" fill="none" xmlns="http://www.w3.org/2000/svg"><g clip-path="url(#clip0)" fill="#3E84D7"><path d="M67.77 40.042h-1.188v-8.316C66.582 14.67 52.754.841 35.696.841 18.64.841 4.811 14.67 4.811 31.727v8.315H3.623a2.376 2.376 0 00-2.376 2.376v9.503a2.376 2.376 0 002.376 2.376h2.376v1.188a4.752 4.752 0 004.751 4.751V34.102a4.752 4.752 0 00-3.563 1.64v-4.015c0-15.746 12.764-28.51 28.51-28.51 15.745 0 28.509 12.764 28.509 28.51v4.015a4.752 4.752 0 00-3.564-1.64v26.134a4.752 4.752 0 004.752-4.752v-1.187h2.376a2.376 2.376 0 002.375-2.376v-9.503a2.376 2.376 0 00-2.375-2.376zM43.799 66.176a3.564 3.564 0 00-3.35-2.376h-9.503a3.564 3.564 0 000 7.127h9.503a3.564 3.564 0 003.35-2.375h10.905a5.94 5.94 0 005.94-5.94h-2.377a3.564 3.564 0 01-3.563 3.564H43.799z"/><path d="M16.69 55.484v-16.63a4.752 4.752 0 00-3.563-4.586V60.07a4.752 4.752 0 003.564-4.585zm41.577-21.216a4.752 4.752 0 00-3.564 4.586v16.63a4.752 4.752 0 003.564 4.585v-25.8zm-9.504-17.617a1.188 1.188 0 00-1.65-.07c-2.46 2.126-8.185 2.137-10.692 0a1.188 1.188 0 00-1.568 0c-2.483 2.102-8.209 2.102-10.691 0a1.188 1.188 0 00-1.651.07L20.61 18.66a1.188 1.188 0 00-.13 1.544c3.397 4.752.962 8.565.962 16.346 0 8.885 9.8 16.345 17.818 13.613 6.89-2.376 10.691-8.173 10.691-13.613 0-7.793-2.376-11.63.962-16.346a1.188 1.188 0 00-.13-1.544l-2.02-2.008zm-5.155 15.55l-2.507 2.59a1.425 1.425 0 00-.38 1.188l.582 3.563a1.402 1.402 0 01-2.043 1.509l-2.863-1.592a1.378 1.378 0 00-1.354 0l-2.91 1.592a1.402 1.402 0 01-2.067-1.461l.582-3.564a1.426 1.426 0 00-.38-1.188l-2.483-2.637a1.413 1.413 0 01.784-2.376l3.35-.475a1.414 1.414 0 001.057-.796l1.45-3.112a1.402 1.402 0 012.541 0l1.45 3.112c.198.424.594.722 1.057.796l3.35.475a1.414 1.414 0 01.784 2.376z"/></g><defs><clipPath id="clip0"><path fill="#fff" transform="translate(.653 .841)" d="M0 0h70.086v70.086H0z"/></clipPath></defs></svg>