<svg width="208" height="77" fill="none" xmlns="http://www.w3.org/2000/svg"><g clip-path="url(#clip0)" fill="#E8E9ED"><path d="M132.747 58.441c6.079 0 12.159 2.277 15.958 7.59 3.04 3.795 7.6 5.313 12.159 5.313 4.56 0 9.119-2.277 12.159-5.313 4.559-4.554 9.879-7.59 15.958-7.59 6.08 0 12.159 2.277 15.959 7.59.76.76.76 3.036 0 3.795-.76.76-3.04.76-3.8 0-3.04-3.795-7.599-5.313-12.159-5.313-4.559 0-9.119 2.277-12.158 5.313-4.56 4.554-9.88 7.59-15.959 7.59-6.079 0-12.159-2.277-15.958-7.59-3.04-3.795-7.6-5.313-12.159-5.313-4.56 0-9.119 2.277-12.159 5.313-4.559 4.554-9.879 7.59-15.958 7.59-6.08 0-12.16-2.277-15.959-7.59-6.84-7.59-18.238-7.59-25.077 0-4.56 4.554-9.88 7.59-15.959 7.59-6.08 0-12.158-2.277-15.958-7.59-3.04-3.795-7.6-5.313-12.159-5.313-6.84-.759-11.399 1.518-14.438 4.554-.76.76-2.28.76-3.8 0-.76-.759-.76-2.277 0-3.036 4.56-4.554 9.879-7.59 15.958-7.59 6.08 0 12.16 2.277 15.959 7.59 3.04 3.795 7.599 5.313 12.158 5.313 4.56 0 9.12-2.277 12.16-5.313 8.359-9.867 24.317-9.867 32.676 0 3.04 3.795 7.6 5.313 12.159 5.313 4.559 0 9.119-2.277 12.159-5.313 6.079-4.554 12.158-7.59 18.238-7.59zm0-58.441c6.079 0 12.159 2.277 15.958 7.59 3.04 3.794 7.6 5.312 12.159 5.312 4.56 0 9.119-2.277 12.159-5.312C177.582 3.036 182.902 0 188.981 0c6.08 0 12.159 2.277 15.959 7.59.76.759.76 3.035 0 3.794-.76.76-3.04.76-3.8 0-3.04-3.794-7.599-5.312-12.159-5.312-4.559 0-9.119 2.277-12.158 5.312-4.56 4.554-9.88 7.59-15.959 7.59-6.079 0-12.159-2.277-15.958-7.59-3.04-3.794-7.6-5.312-12.159-5.312-4.56 0-9.119 2.277-12.159 5.312-4.559 4.554-9.879 7.59-15.958 7.59-6.08 0-12.16-2.277-15.959-7.59-6.84-7.59-18.238-7.59-25.077 0-4.56 4.554-9.88 7.59-15.959 7.59-6.08 0-12.158-2.277-15.958-7.59-3.04-3.794-7.6-5.312-12.159-5.312-6.84-.76-11.399.759-14.438 4.553-.76.76-2.28.76-3.8 0-.76-.759-.76-2.276 0-3.035C5.84 3.036 11.159 0 17.238 0c6.08 0 12.16 2.277 15.959 7.59 3.04 3.794 7.599 5.312 12.158 5.312 4.56 0 9.12-2.277 12.16-5.312 8.359-9.867 24.317-9.867 32.676 0 3.04 3.794 7.6 5.312 12.159 5.312 4.559 0 9.119-2.277 12.159-5.312C120.588 2.277 126.667 0 132.747 0zm0 29.6c6.079 0 12.159 2.276 15.958 7.59 3.04 3.794 7.6 5.312 12.159 5.312 4.56 0 9.119-2.277 12.159-5.313 4.559-4.553 9.879-7.59 15.958-7.59 6.08 0 12.159 2.277 15.959 7.59.76.76.76 3.036 0 3.795-.76.76-3.04.76-3.8 0-3.04-3.795-7.599-5.313-12.159-5.313-4.559 0-9.119 2.277-12.158 5.313-4.56 4.554-9.88 7.59-15.959 7.59-6.079 0-12.159-2.277-15.958-7.59-3.04-3.795-7.6-5.313-12.159-5.313-4.56 0-9.119 2.277-12.159 5.313-4.559 4.554-9.879 7.59-15.958 7.59-6.08 0-12.16-2.277-15.959-7.59-6.84-7.59-18.238-7.59-25.077 0-5.32 4.554-11.4 6.831-17.479 6.831-6.079 0-12.158-2.277-15.958-7.59-3.04-3.795-7.6-5.313-12.159-5.313A18.34 18.34 0 005.08 40.225c-.76.76-2.28.76-3.8 0-.76-.759-.76-2.277 0-3.036 4.56-4.553 9.879-7.59 15.958-7.59 6.08 0 12.16 2.277 15.959 7.59 3.04 3.795 7.599 5.313 12.158 5.313 4.56 0 9.12-2.277 12.16-5.313 8.359-9.107 24.317-9.107 32.676 0 3.04 3.795 7.6 5.313 12.159 5.313 4.559 0 9.119-2.277 12.159-5.313 6.079-4.553 12.158-7.59 18.238-7.59z"/></g><defs><clipPath id="clip0"><path fill="#fff" transform="translate(.52)" d="M0 0h206.7v76.657H0z"/></clipPath></defs></svg>